<svg width="51" height="51" viewBox="0 0 51 51" fill="none" xmlns="http://www.w3.org/2000/svg">
<path d="M43.0313 35.2872V28.6875C43.0313 27.8421 42.6954 27.0314 42.0977 26.4336C41.4999 25.8358 40.6891 25.5 39.8438 25.5H27.0938V19.125H30.2813C31.1264 19.1242 31.9366 18.7881 32.5342 18.1905C33.1318 17.5929 33.4679 16.7826 33.4688 15.9375V6.375C33.4679 5.52988 33.1318 4.71962 32.5342 4.12203C31.9366 3.52444 31.1264 3.18834 30.2813 3.1875H20.7188C19.8736 3.18834 19.0634 3.52444 18.4658 4.12203C17.8682 4.71962 17.5321 5.52988 17.5313 6.375V15.9375C17.5321 16.7826 17.8682 17.5929 18.4658 18.1905C19.0634 18.7881 19.8736 19.1242 20.7188 19.125H23.9063V25.5H11.1563C10.3109 25.5 9.50013 25.8358 8.90236 26.4336C8.30459 27.0314 7.96876 27.8421 7.96876 28.6875V35.2888C6.4664 35.6767 5.15709 36.5992 4.28624 37.8834C3.4154 39.1677 3.04281 40.7254 3.23833 42.2647C3.43384 43.8039 4.18403 45.219 5.34827 46.2448C6.51251 47.2705 8.01088 47.8364 9.56251 47.8364C11.1141 47.8364 12.6125 47.2705 13.7768 46.2448C14.941 45.219 15.6912 43.8039 15.8867 42.2647C16.0822 40.7254 15.7096 39.1677 14.8388 37.8834C13.9679 36.5992 12.6586 35.6767 11.1563 35.2888V28.6875H23.9063V35.2888C22.4039 35.6767 21.0946 36.5992 20.2237 37.8834C19.3529 39.1677 18.9803 40.7254 19.1758 42.2647C19.3713 43.8039 20.1215 45.219 21.2858 46.2448C22.45 47.2705 23.9484 47.8364 25.5 47.8364C27.0516 47.8364 28.55 47.2705 29.7143 46.2448C30.8785 45.219 31.6287 43.8039 31.8242 42.2647C32.0197 40.7254 31.6471 39.1677 30.7763 37.8834C29.9054 36.5992 28.5961 35.6767 27.0938 35.2888V28.6875H39.8438V35.2872C38.3414 35.6751 37.0321 36.5976 36.1612 37.8819C35.2904 39.1661 34.9178 40.7238 35.1133 42.2631C35.3088 43.8023 36.059 45.2174 37.2233 46.2432C38.3875 47.2689 39.8859 47.8348 41.4375 47.8348C42.9891 47.8348 44.4875 47.2689 45.6518 46.2432C46.816 45.2174 47.5662 43.8023 47.7617 42.2631C47.9572 40.7238 47.5846 39.1661 46.7138 37.8819C45.8429 36.5976 44.5336 35.6751 43.0313 35.2872ZM20.7188 6.375H30.2813L30.2829 15.9375H20.7188V6.375ZM12.75 41.4375C12.75 42.0679 12.5631 42.6842 12.2128 43.2084C11.8626 43.7326 11.3648 44.1411 10.7823 44.3824C10.1999 44.6236 9.55898 44.6867 8.94066 44.5638C8.32235 44.4408 7.75439 44.1372 7.30861 43.6914C6.86283 43.2456 6.55925 42.6777 6.43626 42.0593C6.31327 41.441 6.37639 40.8001 6.61765 40.2177C6.8589 39.6353 7.26745 39.1374 7.79164 38.7872C8.31582 38.4369 8.93209 38.25 9.56251 38.25C10.4076 38.2508 11.2179 38.5869 11.8155 39.1845C12.4131 39.7821 12.7492 40.5924 12.75 41.4375ZM28.6875 41.4375C28.6875 42.0679 28.5006 42.6842 28.1503 43.2084C27.8001 43.7326 27.3023 44.1411 26.7198 44.3824C26.1374 44.6236 25.4965 44.6867 24.8782 44.5638C24.2598 44.4408 23.6919 44.1372 23.2461 43.6914C22.8003 43.2456 22.4967 42.6777 22.3738 42.0593C22.2508 41.441 22.3139 40.8001 22.5551 40.2177C22.7964 39.6353 23.205 39.1374 23.7291 38.7872C24.2533 38.4369 24.8696 38.25 25.5 38.25C26.345 38.2513 27.155 38.5875 27.7525 39.185C28.35 39.7825 28.6862 40.5925 28.6875 41.4375ZM41.4375 44.625C40.8071 44.625 40.1908 44.4381 39.6666 44.0878C39.1424 43.7376 38.7339 43.2397 38.4926 42.6573C38.2514 42.0749 38.1883 41.434 38.3113 40.8156C38.4342 40.1973 38.7378 39.6294 39.1836 39.1836C39.6294 38.7378 40.1973 38.4342 40.8157 38.3112C41.434 38.1883 42.0749 38.2514 42.6573 38.4926C43.2398 38.7339 43.7376 39.1424 44.0878 39.6666C44.4381 40.1908 44.625 40.8071 44.625 41.4375C44.6242 42.2826 44.2881 43.0929 43.6905 43.6905C43.0929 44.2881 42.2826 44.6242 41.4375 44.625Z" fill="#77838F"/>
</svg>
