<svg width="51" height="44" viewBox="0 0 51 44" fill="none" xmlns="http://www.w3.org/2000/svg">
<path fill-rule="evenodd" clip-rule="evenodd" d="M18.4586 27.9845H40.8462C42.1911 27.9854 43.4067 27.1837 43.9357 25.9473L50.652 10.2759C51.096 9.23811 50.9889 8.04667 50.3669 7.10468C49.7449 6.1627 48.6913 5.59623 47.5625 5.59691H10.6229C9.97723 5.60524 9.34761 5.79956 8.80953 6.1566L6.57077 1.00744C6.30449 0.397318 5.70291 0.0021196 5.03722 0H1.67907C0.751746 0 0 0.751746 0 1.67907C0 2.6064 0.751746 3.35814 1.67907 3.35814H3.91784L14.1378 26.7084C15.4034 30.4954 14.9366 34.6476 12.8617 38.059C12.859 40.3372 14.2375 42.3897 16.3474 43.249C18.4573 44.1084 20.8775 43.6031 22.4674 41.9714C24.0572 40.3396 24.4993 37.907 23.5854 35.8202H35.7307C34.7432 38.0832 35.3553 40.7259 37.2371 42.3244C39.119 43.9228 41.8259 44.0993 43.8993 42.7587C45.9728 41.4181 46.9228 38.8772 46.2375 36.5052C45.5522 34.1331 43.3935 32.4904 40.9246 32.4621H18.7273H18.5034C17.2669 32.4621 16.2646 31.4597 16.2646 30.2233C16.2646 28.9869 17.2669 27.9845 18.5034 27.9845H18.4586ZM47.5625 8.95518L40.8463 24.6265H17.3392L10.623 8.95518H47.5625ZM20.6973 38.0589C20.6973 39.2954 19.695 40.2977 18.4586 40.2977C17.2221 40.2977 16.2198 39.2954 16.2198 38.0589C16.2198 36.8225 17.2221 35.8202 18.4586 35.8202C19.695 35.8202 20.6973 36.8225 20.6973 38.0589ZM43.085 38.0589C43.085 39.2954 42.0826 40.2977 40.8462 40.2977C39.6098 40.2977 38.6074 39.2954 38.6074 38.0589C38.6074 36.8225 39.6098 35.8202 40.8462 35.8202C42.0826 35.8202 43.085 36.8225 43.085 38.0589Z" fill="#5A9D26"/>
</svg>
