<svg width="30" height="28" viewBox="0 0 30 28" fill="none" xmlns="http://www.w3.org/2000/svg">
<path d="M25.1265 2.20884C24.8741 1.79024 24.518 1.44376 24.0927 1.20282C23.6674 0.961875 23.1872 0.834593 22.6983 0.833252H7.302C6.31316 0.833252 5.38241 1.36025 4.87383 2.20884L1.03608 8.60367C0.903275 8.82383 0.83322 9.07613 0.833497 9.33325C0.839155 10.7006 1.34278 12.0191 2.25016 13.0421V24.9166C2.25016 26.4792 3.52091 27.7499 5.0835 27.7499H24.9168C26.4794 27.7499 27.7502 26.4792 27.7502 24.9166V13.0421C28.6575 12.0191 29.1612 10.7006 29.1668 9.33325C29.1671 9.07613 29.0971 8.82383 28.9642 8.60367L25.1265 2.20884ZM26.3108 9.68884C26.2234 10.3728 25.8899 11.0016 25.3726 11.4576C24.8553 11.9136 24.1897 12.1656 23.5002 12.1666C21.9376 12.1666 20.6668 10.8958 20.6668 9.33325C20.6668 9.23692 20.6314 9.15192 20.6116 9.06125L20.6399 9.05558L19.5618 3.66659H22.6983L26.3108 9.68884ZM13.3271 3.66659H16.6718L17.8236 9.42533C17.774 10.944 16.5302 12.1666 15.0002 12.1666C13.4702 12.1666 12.2263 10.944 12.1767 9.42533L13.3271 3.66659ZM7.302 3.66659H10.4385L9.36183 9.05558L9.39016 9.06125C9.36891 9.15192 9.3335 9.23692 9.3335 9.33325C9.3335 10.8958 8.06275 12.1666 6.50016 12.1666C5.8106 12.1656 5.14499 11.9136 4.62772 11.4576C4.11046 11.0016 3.77694 10.3728 3.6895 9.68884L7.302 3.66659ZM12.1668 24.9166V20.6666H17.8335V24.9166H12.1668ZM20.6668 24.9166V20.6666C20.6668 19.104 19.3961 17.8333 17.8335 17.8333H12.1668C10.6042 17.8333 9.3335 19.104 9.3335 20.6666V24.9166H5.0835V14.7988C5.53825 14.9163 6.00716 14.9999 6.50016 14.9999C7.30457 15.0003 8.0998 14.8291 8.83271 14.4975C9.56562 14.166 10.2193 13.6819 10.7502 13.0775C11.7886 14.2562 13.3101 14.9999 15.0002 14.9999C16.6902 14.9999 18.2117 14.2562 19.2502 13.0775C19.781 13.6819 20.4347 14.166 21.1676 14.4975C21.9005 14.8291 22.6958 15.0003 23.5002 14.9999C23.9932 14.9999 24.4621 14.9163 24.9168 14.7988V24.9166H20.6668Z" fill="#222B45"/>
</svg>
