<svg width="221" height="202" viewBox="0 0 221 202" fill="none" xmlns="http://www.w3.org/2000/svg">
<path fill-rule="evenodd" clip-rule="evenodd" d="M162.02 58.477C160.102 56.8787 157.544 53.3626 156.585 51.4446C163.618 47.9284 179.285 44.7319 188.557 32.585C190.475 30.3474 195.591 23.9543 192.713 21.0774C188.877 17.8809 184.081 25.8723 170.013 30.0278C164.897 31.626 147.632 35.4619 143.156 32.9047C138.361 30.0278 137.082 29.0688 131.007 26.8312C122.374 23.9543 108.307 22.0364 99.0348 22.6757C96.477 22.6757 94.5587 22.9954 92.0009 23.6347C90.0826 23.9543 87.2051 25.233 85.9262 25.5526C81.1304 25.8723 64.8245 17.2416 60.6682 14.6844C49.1582 7.33231 45.3215 -3.21629 41.4849 0.939219C39.2468 3.49646 42.4441 11.4878 43.4032 13.7254C49.7976 27.7902 62.9062 34.1833 68.9809 39.6174C67.3823 41.2157 63.8654 44.0926 61.3076 45.0515C56.5118 46.9695 54.9132 44.4122 52.3554 42.1746C48.5188 38.6584 42.7638 34.1833 37.0088 31.626C21.6622 25.233 -6.47335 29.0688 2.47885 51.7643C4.7169 57.1984 8.55358 61.6736 12.3902 66.1487C14.3086 68.0667 16.5466 69.9846 19.1044 71.9025C40.5257 87.5656 51.3963 71.9025 56.1921 73.8204C57.1512 76.058 55.2329 80.8528 54.9132 84.0494C52.0357 103.868 55.8723 100.671 56.5118 111.859C57.1512 129.121 54.5935 131.998 60.3485 148.3C62.2668 153.095 64.1851 159.488 63.2259 165.881C62.2668 171.954 57.1513 178.987 60.3485 184.421C64.1851 191.134 70.5796 186.978 74.7359 193.052C78.2529 198.166 83.3684 199.445 90.722 200.404C98.3953 201.363 103.511 201.682 108.307 197.527C111.824 194.33 111.504 195.609 116.939 195.609C120.456 195.609 122.694 194.969 124.612 193.052C131.966 186.019 119.497 179.306 134.524 158.209C144.435 144.464 142.837 140.628 147.952 124.326C149.87 118.572 153.387 115.376 155.306 108.343C156.904 102.909 156.904 97.4749 157.224 92.0407C157.224 89.4835 157.224 88.8442 158.183 87.5656C160.421 87.2459 161.061 88.2049 162.34 89.8032C175.128 103.548 195.91 98.1142 206.461 89.4835C207.74 88.2049 208.699 87.8852 209.978 86.6066C212.536 84.6887 214.134 83.4101 216.373 80.5332C222.767 71.9025 222.128 61.6736 209.978 56.2394C203.584 53.3626 195.271 51.125 187.917 52.4036C171.931 54.6412 168.734 64.2308 162.02 58.477Z" fill="#68B82B"/>
</svg>
