<svg width="33" height="23" viewBox="0 0 33 23" fill="none" xmlns="http://www.w3.org/2000/svg">
<path fill-rule="evenodd" clip-rule="evenodd" d="M30.4973 8.45234V6.8679H1.97728V8.45234H30.4973ZM30.4973 10.0367H1.97728V18.7512C1.97728 20.0637 3.04135 21.1278 4.35395 21.1278H28.1206C29.4332 21.1278 30.4973 20.0637 30.4973 18.7512V10.0367ZM30.4973 5.28345V4.49123C30.4973 3.17863 29.4332 2.11456 28.1206 2.11456H4.35395C3.04135 2.11456 1.97728 3.17863 1.97728 4.49123V5.28345H30.4973ZM24.1595 19.1203C22.827 19.8903 21.134 19.5923 20.1446 18.4135C19.1553 17.2347 19.1553 15.5157 20.1446 14.337C21.134 13.1582 22.827 12.8602 24.1595 13.6302C25.4913 12.862 27.1824 13.1607 28.1705 14.3387C29.1586 15.5166 29.1586 17.2339 28.1705 18.4118C27.1824 19.5897 25.4913 19.8884 24.1595 19.1203ZM22.9712 17.9099C22.7106 17.4402 22.5743 16.9117 22.5751 16.3745C22.5751 15.8184 22.7177 15.2939 22.9712 14.8392C22.3289 14.6728 21.6508 14.9238 21.2717 15.4684C20.8926 16.013 20.8926 16.7361 21.2717 17.2807C21.6508 17.8253 22.3289 18.0763 22.9712 17.9099ZM0.393066 4.49114C0.393066 2.30348 2.16652 0.530029 4.35418 0.530029H28.1208C30.3085 0.530029 32.082 2.30348 32.082 4.49114V18.7511C32.082 20.9388 30.3085 22.7123 28.1208 22.7123H4.35418C2.16652 22.7123 0.393066 20.9388 0.393066 18.7511V4.49114ZM25.7441 17.9589C26.6192 17.9589 27.3285 17.2496 27.3285 16.3745C27.3285 15.4994 26.6192 14.79 25.7441 14.79C24.869 14.79 24.1597 15.4994 24.1597 16.3745C24.1597 17.2496 24.869 17.9589 25.7441 17.9589Z" fill="white"/>
</svg>
