<svg width="431" height="275" viewBox="0 0 431 275" fill="none" xmlns="http://www.w3.org/2000/svg">
<path fill-rule="evenodd" clip-rule="evenodd" d="M288.4 208.4L68.6 209.4C72.2 215.8 89.6 230.6 97.1 236C134 262.7 177.1 276.3 224.3 273.7C240.6 272.8 271 267.7 283.9 259.9L158 243.7C175.4 243.1 272.7 249.6 295.6 251.4C307.9 252.4 313.6 246.1 321.8 240.8C328.3 236.6 357.2 215 362.5 209.3L288.4 208.4Z" fill="#5A9D26"/>
<path d="M12.5 135.7V155.7H43L42.1 165.1H12.5V193.6H0V126H45.6L44.7 135.7H12.5ZM69.6 194.6C64.9 194.6 60.8 193.6 57.3 191.5C53.8 189.4 51.1 186.6 49.2 182.9C47.3 179.2 46.3 175 46.3 170.2C46.3 165.6 47.2 161.4 49.1 157.8C51 154.1 53.7 151.3 57.2 149.3C60.7 147.3 64.9 146.2 69.6 146.2C74.3 146.2 78.4 147.2 81.9 149.3C85.4 151.3 88.2 154.2 90.1 157.8C92 161.4 93 165.6 93 170.3C93 175 92 179.2 90.1 182.9C88.2 186.6 85.5 189.4 81.9 191.5C78.4 193.5 74.3 194.6 69.6 194.6ZM69.6 185.8C73.2 185.8 76 184.3 77.9 181.4C79.8 178.5 80.7 174.7 80.7 170.3C80.7 165.8 79.8 162.2 77.9 159.3C76 156.4 73.2 155 69.6 155C66 155 63.2 156.4 61.3 159.3C59.4 162.2 58.4 165.8 58.4 170.2C58.4 174.7 59.4 178.4 61.3 181.4C63.2 184.3 66 185.8 69.6 185.8ZM117.7 194.6C113 194.6 108.9 193.6 105.4 191.5C101.9 189.4 99.2 186.6 97.2 182.9C95.3 179.2 94.4 175 94.4 170.2C94.4 165.6 95.3 161.4 97.2 157.8C99.1 154.1 101.8 151.3 105.3 149.3C108.8 147.3 113 146.2 117.7 146.2C122.4 146.2 126.5 147.2 130 149.3C133.5 151.3 136.2 154.2 138.1 157.8C140 161.4 141 165.6 141 170.3C141 175 140.1 179.2 138.1 182.9C136.2 186.6 133.5 189.4 130 191.5C126.5 193.5 122.4 194.6 117.7 194.6ZM117.7 185.8C121.3 185.8 124.1 184.3 126 181.4C127.9 178.5 128.9 174.7 128.9 170.3C128.9 165.8 127.9 162.2 126 159.3C124.1 156.4 121.4 155 117.7 155C114.1 155 111.3 156.4 109.4 159.3C107.5 162.2 106.5 165.8 106.5 170.2C106.5 174.7 107.5 178.4 109.4 181.4C111.3 184.3 114.1 185.8 117.7 185.8ZM163.7 194.6C159.8 194.6 156.3 193.6 153.1 191.7C149.9 189.8 147.3 187 145.4 183.4C143.5 179.8 142.5 175.5 142.5 170.6C142.5 165.5 143.4 161.1 145.3 157.4C147.2 153.7 149.8 150.9 153 149C156.3 147.1 159.9 146.1 163.9 146.1C166.2 146.1 168.4 146.5 170.5 147.3C172.6 148.1 174.8 149.5 177.2 151.6H177.6V127.9L189.7 126V193.6H179.5L177.6 188.8H177.2C174.8 190.9 172.6 192.4 170.5 193.2C168.3 194.1 166.1 194.6 163.7 194.6ZM167.3 185C168.7 185 170.4 184.7 172.3 184C174.1 183.3 175.9 182.2 177.6 180.8V159.8C176 158.3 174.3 157.3 172.4 156.7C170.6 156 168.9 155.7 167.5 155.7C163.8 155.7 160.8 157.1 158.6 159.8C156.4 162.5 155.2 166.1 155.2 170.6C155.2 175 156.3 178.5 158.5 181.2C160.8 183.7 163.7 185 167.3 185ZM212.2 194.6C203 194.6 198.4 189.3 198.4 178.6V127.9L210.5 126V180.1C210.5 182.1 210.9 183.6 211.8 184.4C212.7 185.2 213.8 185.6 215 185.6C216.5 185.6 217.9 185.4 219.2 185V193.9C217.4 194.4 215.1 194.6 212.2 194.6ZM242.7 194.6C238 194.6 233.9 193.6 230.4 191.5C226.9 189.4 224.2 186.6 222.3 182.9C220.4 179.2 219.4 175 219.4 170.2C219.4 165.6 220.3 161.4 222.2 157.8C224.1 154.1 226.8 151.3 230.3 149.3C233.8 147.3 238 146.2 242.7 146.2C247.4 146.2 251.5 147.2 255 149.3C258.5 151.3 261.2 154.2 263.2 157.8C265.1 161.4 266 165.6 266 170.3C266 175 265.1 179.2 263.2 182.9C261.3 186.6 258.6 189.4 255 191.5C251.5 193.5 247.4 194.6 242.7 194.6ZM242.7 185.8C246.3 185.8 249.1 184.3 251 181.4C252.9 178.5 253.9 174.7 253.9 170.3C253.9 165.8 253 162.2 251 159.3C249.1 156.4 246.4 155 242.7 155C239.1 155 236.3 156.4 234.4 159.3C232.5 162.2 231.5 165.8 231.5 170.2C231.5 174.7 232.5 178.4 234.4 181.4C236.3 184.3 239.1 185.8 242.7 185.8ZM291.5 194.6C286.7 194.6 282.5 193.6 278.8 191.5C275.2 189.4 272.4 186.5 270.4 182.8C268.4 179.1 267.5 174.9 267.5 170.1C267.5 165.4 268.5 161.2 270.4 157.6C272.3 154 275.1 151.2 278.7 149.2C282.3 147.2 286.6 146.2 291.4 146.2C296.2 146.2 301.7 147.3 307.9 149.5L307 158.5C301.7 156.5 296.9 155.5 292.7 155.5C288.5 155.5 285.3 156.9 283 159.8C280.7 162.6 279.6 166.1 279.6 170.2C279.6 174.4 280.8 178 283.1 180.9C285.4 183.9 288.6 185.4 292.8 185.4C296.7 185.4 301.5 184.4 307.1 182.5L308 191.5C301.6 193.5 296.2 194.6 291.5 194.6ZM331.2 173L324.1 180.8V193.7H312V128L324.1 126.1V166.5L340.8 147.3H354.9L338.7 164.9L356.1 193.8H342.6L331.2 173ZM379.1 194.6C371.2 194.6 365.1 192.4 360.8 188.1C356.5 183.8 354.3 177.9 354.3 170.5C354.3 165.7 355.2 161.4 357 157.8C358.8 154.1 361.4 151.3 364.8 149.3C368.1 147.3 372 146.2 376.4 146.2C380.8 146.2 384.7 147.2 388.1 149.2C391.5 151.2 394.1 154 396 157.5C397.8 161.1 398.7 165.1 398.7 169.6C398.7 171.5 398.6 172.9 398.4 173.9H366.2C366.5 177.3 367.8 180.1 369.9 182.3C372.1 184.5 375.1 185.6 379 185.6C381.4 185.6 384.2 185.3 387.4 184.5C390.6 183.8 393.4 182.8 396 181.6L396.9 190.4C390.9 193.2 385 194.6 379.1 194.6ZM386.7 166.5C386.7 162.4 385.8 159.4 384 157.4C382.2 155.4 379.9 154.4 377.1 154.4C374.2 154.4 371.7 155.4 369.7 157.5C367.7 159.6 366.6 162.6 366.6 166.5H386.7ZM403.8 147.1H414.1L415.9 152.5H416.3C418.2 150.2 420.2 148.6 422.4 147.6C424.6 146.7 426.9 146.2 429.5 146.2C430.2 146.2 430.7 146.2 431 146.3V156.2C429.6 155.8 428.3 155.6 427.2 155.6C424.9 155.6 422.8 156.1 421 156.9C419.2 157.8 417.5 159.3 415.9 161.3V193.5H403.8V147.1Z" fill="#414041"/>
<path fill-rule="evenodd" clip-rule="evenodd" d="M135.5 74.6C135.5 87 144.7 98.1 155.7 103.1C166 107.7 187.1 108 187.1 92.8V91.2C187.1 87.4 184.7 83.8 182.6 81.9C182 81.3 181.4 80.9 180.7 80.5C175.8 77.2 171.1 79.7 167 78.2C160.2 75.8 164 69.4 161.6 64.4C161.1 63.4 160 61.7 159.2 61C148.3 51.9 135.5 60.9 135.5 74.6Z" fill="#FD6501"/>
<path fill-rule="evenodd" clip-rule="evenodd" d="M257.2 39.3C259.3 43.2 261.1 55.3 260.8 60.1C260.8 60.5 260.8 60.2 260.9 60.3L261 60C261.1 59.8 261.6 58.8 261.7 58.6C262.7 56.6 263.7 54.7 266 54.8C267.7 54.9 269.5 58.1 270.2 59.9C270.6 60.8 271.4 62.8 271.5 63.8V64C271.5 64.3 271.4 64.5 271.2 64.7C271 65 270.8 65 270.5 64.9C269.6 64.6 267.4 62.8 266.8 62.6C264.6 64.5 261.8 84.9 260.8 88.7C259.7 93.2 258.1 98.6 253.6 99.1C252.7 99.1 252.2 99.1 251.3 98.8C243.8 95.7 244.5 77 241.9 69.2C241.6 68.2 240.9 67.2 240.3 66.5C239.4 67 238.1 69.2 237.6 70.2C237.4 70.5 237 71.3 236.8 71.5C236.3 72.1 235.7 71.8 235.5 71.5C235.4 71.4 235.4 71.2 235.4 70.9V69.9C235.5 68.3 235.9 66.1 236 65.6C236.7 62.5 238.4 58 241.6 58.7C242.4 58.8 243.7 59.6 244.1 60.3C244.2 60.4 244.1 60.4 244.2 60.4L245.3 61.8C245.4 62.1 245.5 62.2 245.8 62.3V62C245.8 61.5 245.8 61.3 245.8 61C246.1 54.3 246.4 45.5 249.2 39.8C249.9 38.4 251.1 36.8 252.5 36.6C254.6 36.1 256.2 37.4 257.2 39.3Z" fill="#FBCA03"/>
<path fill-rule="evenodd" clip-rule="evenodd" d="M263 7.79999C267.7 9.89999 276.6 35 273.4 37.9C268.8 35.8 259.9 11.4 263 7.79999Z" fill="#FD6501"/>
<path fill-rule="evenodd" clip-rule="evenodd" d="M317.5 14.1C317.2 14.6 315.2 18.3 314.9 19.1L314.8 19.2C314.7 19.2 314.7 19.2 314.7 19.2H314.4C314.1 19.2 314.1 19.2 313.9 19.5C313.6 20.1 314.2 20.1 314.5 20.5C314.2 22 308.9 26.3 307.7 27.3C305.4 29.3 304.7 29.6 302.4 32.1C301.9 32.6 300.9 33.3 301 34.1L292.6 50.5C290.4 52.7 289.7 61.4 286 65C285.5 65.5 285.1 65.7 284.6 66.3C283.8 67.2 282.7 69.4 282.4 70.6C282 72 281 77.2 281.8 78.4C282.3 79 284 79.8 284.9 80.1C285.4 80.3 285.4 80.1 285.9 80.1C289.5 79.7 290.4 82.4 290.4 82.4C290.8 83.1 291 83.3 292 83.8C292.5 84.1 293.6 84.7 294.2 84.7C295 84.7 296.6 83.3 297.3 82.7C298.2 81.8 299.3 80.7 300.1 79.7C300.9 78.7 301.9 76.6 302.2 75.4C302.4 74.7 302.3 74.1 302.5 73.4C303.2 68.6 310 62.6 310.4 59.6L310.1 59.5C310.2 59.5 310.3 59.6 310.4 59.6C311.1 58.4 311.8 56.5 312.5 55.3L318.6 43.6L318.8 43.3C319.3 43.1 319.5 41.6 319.6 41.1C319.8 40.2 319.9 39.5 320 38.6C320.3 37 320.3 35.5 320.4 33.9C320.5 32.4 320.9 25.5 322 24.3C322.3 24.3 322.5 24.5 323 24.5L323.3 23.9C323.2 23.8 323.2 23.8 323.1 23.7C323.1 23.6 323 23.6 322.8 23.5C323.2 23 325.1 19 325.4 18.3C325.8 16.4 318.6 12.8 317.5 14.1Z" fill="#B2373A"/>
<path fill-rule="evenodd" clip-rule="evenodd" d="M284.5 1.79999C287.9 5.69999 285.5 32.2 281.4 33.5C278.1 29.8 280.2 3.79999 284.5 1.79999Z" fill="#FD6501"/>
<path d="M103 38.8C87.4 42.8 95.5 60.2 100.2 71.1C105.1 82.4 110.3 107.4 116.3 107.5C122 105.5 119 80.1 120 67.9C121 56.1 123 37 107 38.2C110.5 30.9 117.5 26.2 116.4 22.8C115.2 18.9 106.7 25.7 104.9 31.6C107.7 18.8 103.5 9.29998 100.2 9.79998C97 10.3 95.9 20.7 102.7 31.9C99.2 27 88.9 23.2 89 27.3C89.2 30.7 97.3 32.9 103 38.8Z" fill="#FBCA03"/>
<path d="M139.1 51C136.4 50.2 135.6 48.9 135.7 48.7C135.9 48.4 139.9 38.6 137 38.8C133.1 40.6 129.1 36.4 131.4 32.4C134.6 26.7 141.7 27.3 144.6 28C147.5 28.7 154.1 31.4 154.4 37.9C154.6 42.4 149.2 44.4 146.5 41.1C144 39.5 143.2 50.1 143.2 50.5C143.2 50.7 141.8 51.5 139.1 51Z" fill="#5A9D26"/>
<path fill-rule="evenodd" clip-rule="evenodd" d="M66.8 61.1C66.5 61.2 66.8 61.3 66.1 61.2C65.5 61.1 65.8 61.1 65.6 61C65.1 60.7 61.5 56.2 58.3 55.9C58.7 58.3 60.8 58.6 61 62C58.4 61.6 57.6 59.2 54.2 58.9C54.7 61.2 56.2 61.1 55.6 63.8C53.7 64.1 52.5 63.5 50.7 64.1C49.9 67.2 52.5 69.3 54.6 70.1C59.3 71.9 60 69.5 63.6 69.5C63.1 70.5 60.6 72.4 59.7 73.3C53.2 79.8 48.8 89.2 45.9 98C44.9 101 41.9 107.5 45.6 109.3C54.2 113.5 74.9 109.4 78.3 98.9C79.7 94.6 75 90.7 74.4 87.6C74.1 85.1 75.4 87.9 76.3 89.3C79.4 94.2 86.2 88.3 83.4 82.9C81.4 79 76.2 80.7 79.2 75.6C80.3 74.5 83.6 76.3 84.9 75.7C84.8 73.3 82.1 72 80.7 71.6C82.3 68.5 83.1 67.1 79 62.4C77.8 61 78 62.8 76.3 62.5C75.7 60.9 76.2 59 74.5 58.2C73.2 59.1 73.9 60.3 71.9 60.9C69 60.4 69 55.9 66.7 54.8C66.7 57 67.5 59.4 66.8 61.1Z" fill="#85506E"/>
<path fill-rule="evenodd" clip-rule="evenodd" d="M219.9 18.4C219.3 17.9 218.5 16.8 218.2 16.2C220.4 15.1 225.3 14.1 228.2 10.3C228.8 9.59999 230.4 7.59999 229.5 6.69999C228.3 5.69999 226.8 8.19999 222.4 9.49999C220.8 9.99999 215.4 11.2 214 10.4C212.5 9.49999 212.1 9.19999 210.2 8.49999C207.5 7.59999 203.1 6.99999 200.2 7.19999C199.4 7.19999 198.8 7.29999 198 7.49999C197.4 7.59999 196.5 7.99999 196.1 8.09999C194.6 8.19999 189.5 5.49999 188.2 4.69999C184.6 2.39999 183.4 -0.900006 182.2 0.399994C181.5 1.19999 182.5 3.69999 182.8 4.39999C184.8 8.79999 188.9 10.8 190.8 12.5C190.3 13 189.2 13.9 188.4 14.2C186.9 14.8 186.4 14 185.6 13.3C184.4 12.2 182.6 10.8 180.8 9.99999C176 7.99999 167.2 9.19999 170 16.3C170.7 18 171.9 19.4 173.1 20.8C173.7 21.4 174.4 22 175.2 22.6C181.9 27.5 185.3 22.6 186.8 23.2C187.1 23.9 186.5 25.4 186.4 26.4C185.5 32.6 186.7 31.6 186.9 35.1C187.1 40.5 186.3 41.4 188.1 46.5C188.7 48 189.3 50 189 52C188.7 53.9 187.1 56.1 188.1 57.8C189.3 59.9 191.3 58.6 192.6 60.5C193.7 62.1 195.3 62.5 197.6 62.8C200 63.1 201.6 63.2 203.1 61.9C204.2 60.9 204.1 61.3 205.8 61.3C206.9 61.3 207.6 61.1 208.2 60.5C210.5 58.3 206.6 56.2 211.3 49.6C214.4 45.3 213.9 44.1 215.5 39C216.1 37.2 217.2 36.2 217.8 34C218.3 32.3 218.3 30.6 218.4 28.9C218.4 28.1 218.4 27.9 218.7 27.5C219.4 27.4 219.6 27.7 220 28.2C224 32.5 230.5 30.8 233.8 28.1C234.2 27.7 234.5 27.6 234.9 27.2C235.7 26.6 236.2 26.2 236.9 25.3C238.9 22.6 238.7 19.4 234.9 17.7C232.9 16.8 230.3 16.1 228 16.5C223 17.2 222 20.2 219.9 18.4Z" fill="#85506E"/>
<path fill-rule="evenodd" clip-rule="evenodd" d="M386.7 110.5C382.8 110.8 385.1 112.4 382.4 107.6C360.5 67.2 333.9 85.6 329.6 53.4C337.7 52.9 346 59.2 349.1 63C358.5 74.7 350.1 71.6 361.8 78.9C369 83.4 390.9 104.5 386.7 110.5ZM374.8 99.8C370.9 103.9 361.7 106.2 357.3 100.7C363.2 96.6 368.1 96.3 374.8 99.8ZM379.3 67.5C384.7 72 384 83.9 379.5 88C375.7 79.4 376.1 76.2 379.3 67.5ZM370.9 78.5C362.1 75.4 357.9 65.7 357.8 53.1C368 56.9 370.7 64.9 370.9 78.5ZM361.9 91C349.2 93.6 338.9 94.5 331.5 85.6C340.7 79.1 357.4 83.8 361.9 91Z" fill="#5A9D26"/>
<path d="M217.2 101.9C215.8 100 206.7 100.2 202.2 99.5C197.7 98.8 199.7 94.2 205.2 95.7C200.9 92.9 201.1 87.7 205.1 88.3C203.3 85.3 204 80.6 207.8 82C207.5 79.1 211.3 78.7 212.1 81.8C213.8 78.3 218.2 79.9 217.1 84.5C219 81 222.7 85.2 221 88.4C224.1 86.8 227.2 88.3 225.1 90.9C223 93.5 217.9 96.2 219 101.2C218.2 102.5 217.2 101.9 217.2 101.9Z" fill="#82AD37"/>
<path fill-rule="evenodd" clip-rule="evenodd" d="M331.2 96.5C327.4 93 320.8 92.1 317.3 89.1C313.2 85.5 305.6 90.6 302.2 92.8C292.5 99 292.3 93.3 287.3 91.3C283.6 89.8 286.4 94.8 287 96.4C288.2 100 285.5 99.6 284.8 103.3C289.2 104 290.4 99.8 297.3 100.4C297.3 100.5 297.3 100.7 297.4 100.7C297.5 100.7 297.5 101 297.5 101.1C298.7 105 302.5 101.5 306 102.5L306.1 103.3C306.1 103.4 306.1 103.6 306.1 103.7C306.1 103.9 306 104.4 305.9 104.5C305.9 104.7 305.5 105.2 305.3 106.5C309.1 106.4 309.5 104.5 312.4 104C318.8 102.9 317.7 104.5 327.2 101C330.9 99.5 332.7 98.1 331.2 96.5Z" fill="#85506E"/>
</svg>
