<svg width="49" height="58" viewBox="0 0 49 58" fill="none" xmlns="http://www.w3.org/2000/svg">
<path fill-rule="evenodd" clip-rule="evenodd" d="M37.5218 45.1339C44.2987 40.8735 48.8029 33.3297 48.8029 24.7338C48.8029 11.4355 38.0224 0.655029 24.7241 0.655029C11.4257 0.655029 0.645264 11.4355 0.645264 24.7338C0.645264 33.1606 4.97403 40.5764 11.5292 44.8787C11.5911 44.9609 11.6973 45.0499 11.851 45.146C12.2302 45.3832 12.6489 45.6398 13.0967 45.9142C17.5042 48.6153 24.7241 53.0401 24.7241 57.5817C24.7668 52.5398 37.6649 45.146 37.6649 45.146C37.6649 45.146 37.6158 45.1418 37.5218 45.1339Z" fill="#64BA02"/>
<path fill-rule="evenodd" clip-rule="evenodd" d="M34.6028 23.1733V32.7604C34.6028 34.4653 33.2207 35.8474 31.5158 35.8474H27.8113C27.4704 35.8474 27.1939 35.571 27.1939 35.23V27.8211C27.1939 27.4801 26.9175 27.2037 26.5765 27.2037H22.8721C22.5311 27.2037 22.2547 27.4801 22.2547 27.8211V35.23C22.2547 35.571 21.9783 35.8474 21.6373 35.8474H17.9328C16.2279 35.8474 14.8458 34.4653 14.8458 32.7604V23.1733L14.6211 23.3585C14.3578 23.5754 13.9686 23.5378 13.7518 23.2746C13.5349 23.0113 13.5725 22.6221 13.8357 22.4052L24.3316 13.7616C24.5597 13.5736 24.8889 13.5736 25.117 13.7616L35.6129 22.4052C35.7832 22.5455 35.8657 22.766 35.8293 22.9836C35.793 23.2012 35.6433 23.3829 35.4366 23.4603C35.23 23.5376 34.9978 23.4988 34.8275 23.3585L34.6028 23.1733ZM33.3768 22.1632L24.7245 15.0383L16.0721 22.1632C16.0778 22.1966 16.0807 22.2305 16.0808 22.2644V32.7603C16.0808 33.7833 16.91 34.6125 17.933 34.6125H21.02V27.8211C21.02 26.7981 21.8493 25.9689 22.8722 25.9689H26.5767C27.5996 25.9689 28.4289 26.7981 28.4289 27.8211V34.6125H31.5159C32.5389 34.6125 33.3681 33.7833 33.3681 32.7603V22.2644C33.3681 22.2299 33.3706 22.1965 33.3768 22.1632Z" fill="white"/>
</svg>
