<svg width="47" height="44" viewBox="0 0 47 44" fill="none" xmlns="http://www.w3.org/2000/svg">
<path fill-rule="evenodd" clip-rule="evenodd" d="M45.4338 17.8006L25.3449 0.758054C24.1527 -0.252685 22.4043 -0.252685 21.2121 0.758054L1.12322 17.8006C0.125622 18.6506 -0.251824 20.0235 0.171072 21.264C0.593969 22.5045 1.73145 23.361 3.04051 23.4246V40.4672C3.04051 42.232 4.47117 43.6627 6.23598 43.6627H40.3211C42.0859 43.6627 43.5165 42.232 43.5165 40.4672V23.4353C44.8256 23.3717 45.9631 22.5152 46.386 21.2747C46.8089 20.0342 46.4314 18.6612 45.4338 17.8112V17.8006ZM22.2133 40.4778H20.083V30.8913H26.474V40.4778H22.2133ZM40.3211 20.2399V40.4779H29.6695V30.8915C29.6695 29.1266 28.2388 27.696 26.474 27.696H20.083C18.3182 27.696 16.8876 29.1266 16.8876 30.8915V40.4779H6.23599V20.2399H3.18963L23.2785 3.19732L43.3674 20.2399H40.3211Z" fill="#77838F"/>
</svg>
