<svg width="32" height="32" viewBox="0 0 32 32" fill="none" xmlns="http://www.w3.org/2000/svg">
<path d="M1.74999 17.5835H3.33332V28.6668C3.33332 30.4132 4.75357 31.8335 6.49999 31.8335H25.5C27.2464 31.8335 28.6667 30.4132 28.6667 28.6668V17.5835H30.25C30.5631 17.5834 30.8691 17.4905 31.1295 17.3165C31.3898 17.1426 31.5927 16.8953 31.7125 16.606C31.8323 16.3168 31.8636 15.9984 31.8026 15.6914C31.7415 15.3843 31.5908 15.1022 31.3694 14.8807L17.1194 0.630739C16.9725 0.483575 16.798 0.366823 16.6059 0.287165C16.4138 0.207506 16.2079 0.166504 16 0.166504C15.792 0.166504 15.5861 0.207506 15.3941 0.287165C15.202 0.366823 15.0275 0.483575 14.8806 0.630739L0.630571 14.8807C0.409206 15.1022 0.258463 15.3843 0.197398 15.6914C0.136332 15.9984 0.167687 16.3168 0.287498 16.606C0.407309 16.8953 0.610196 17.1426 0.870512 17.3165C1.13083 17.4905 1.43688 17.5834 1.74999 17.5835ZM12.8333 28.6668V20.7502H19.1667V28.6668H12.8333ZM16 3.98899L25.5 13.489V20.7502L25.5016 28.6668H22.3333V20.7502C22.3333 19.0037 20.9131 17.5835 19.1667 17.5835H12.8333C11.0869 17.5835 9.66665 19.0037 9.66665 20.7502V28.6668H6.49999V13.489L16 3.98899Z" fill="#222B45"/>
</svg>
