<svg width="33" height="33" viewBox="0 0 33 33" fill="none" xmlns="http://www.w3.org/2000/svg">
<path fill-rule="evenodd" clip-rule="evenodd" d="M17.822 22.9593H20.1987C20.6362 22.9593 20.9909 23.314 20.9909 23.7515C20.9909 24.189 20.6362 24.5437 20.1987 24.5437H13.8609C13.4234 24.5437 13.0687 24.189 13.0687 23.7515C13.0687 23.314 13.4234 22.9593 13.8609 22.9593H16.2376V15.0371H13.8609C13.4234 15.0371 13.0687 14.6824 13.0687 14.2448C13.0687 13.8073 13.4234 13.4526 13.8609 13.4526H17.0298C17.4673 13.4526 17.822 13.8073 17.822 14.2448V22.9593ZM16.2375 32.466C7.48662 32.466 0.393066 25.3724 0.393066 16.6215C0.393066 7.87066 7.48662 0.7771 16.2375 0.7771C24.9884 0.7771 32.082 7.87066 32.082 16.6215C32.082 25.3724 24.9884 32.466 16.2375 32.466ZM16.2373 30.8817C21.3319 30.8817 26.0395 28.1637 28.5868 23.7517C31.1341 19.3396 31.1341 13.9037 28.5868 9.49166C26.0395 5.0796 21.3319 2.36166 16.2373 2.36166C8.3617 2.36166 1.97728 8.74608 1.97728 16.6217C1.97728 24.4972 8.3617 30.8817 16.2373 30.8817ZM15.4452 8.69928H17.0297C17.4672 8.69928 17.8219 9.05397 17.8219 9.49151V11.076C17.8219 11.5135 17.4672 11.8682 17.0297 11.8682H15.4452C15.0077 11.8682 14.653 11.5135 14.653 11.076V9.49151C14.653 9.05397 15.0077 8.69928 15.4452 8.69928Z" fill="white"/>
</svg>
