<svg width="18" height="23" viewBox="0 0 18 23" fill="none" xmlns="http://www.w3.org/2000/svg">
<path fill-rule="evenodd" clip-rule="evenodd" d="M9.15253 13.7159C6.42466 13.7159 4.21328 11.5045 4.21328 8.77666C4.21328 6.04879 6.42466 3.83741 9.15253 3.83741C11.8804 3.83741 14.0918 6.04879 14.0918 8.77666C14.0918 11.5045 11.8804 13.7159 9.15253 13.7159ZM9.15268 12.4812C11.1986 12.4812 12.8571 10.8227 12.8571 8.77681C12.8571 6.73091 11.1986 5.07238 9.15268 5.07238C7.10678 5.07238 5.44825 6.73091 5.44825 8.77681C5.44825 10.8227 7.10678 12.4812 9.15268 12.4812ZM9.5723 22.1954C9.3355 22.4151 8.96944 22.4151 8.73263 22.1954C3.26983 17.1512 0.508789 12.6936 0.508789 8.77674C0.508789 5.68865 2.15626 2.83513 4.83063 1.29109C7.50499 -0.252954 10.7999 -0.252954 13.4743 1.29109C16.1487 2.83513 17.7961 5.68865 17.7961 8.77674C17.7961 12.6936 15.0363 17.1512 9.5723 22.1954ZM16.5615 8.77681C16.5615 4.685 13.2445 1.36794 9.15268 1.36794C5.06087 1.36794 1.74381 4.685 1.74381 8.77681C1.74381 12.175 4.19738 16.2289 9.15268 20.8977C14.108 16.2301 16.5615 12.175 16.5615 8.77681Z" fill="#C5CEE0"/>
</svg>
