<svg width="546" height="452" viewBox="0 0 546 452" fill="none" xmlns="http://www.w3.org/2000/svg">
<g clip-path="url(#clip0)">
<path d="M117.782 350.983L121.119 300.302H105.911L109.111 350.879L117.782 350.983Z" fill="#5ED45E"/>
<path d="M120.775 385.606L124.457 416.62L159.451 402.935L143.451 378.248L120.775 385.606Z" fill="#5ED45E"/>
<path d="M121.119 300.302L146.72 293.632L137.36 345.137L118.229 351.154L121.119 300.302Z" fill="#5ED45E"/>
<path d="M124.457 416.62L113.515 413.319L112.723 386.294L120.947 384.953L124.457 416.62Z" fill="#5ED45E"/>
<path d="M146.72 293.288L131.683 290.365L105.911 299.202L120.775 299.786L146.72 293.288Z" fill="#5ED45E"/>
<path d="M0.378418 350.639L20.0947 339.705L44.2497 369.996L0.378418 394.236V350.639Z" fill="#4A91D6"/>
<path d="M0.172119 406.958L49.5144 375.807L73.8071 405.205L0.172119 451.484V406.958Z" fill="#4A91D6"/>
<path d="M343.263 3.85076C338.239 0.378072 331.495 2.75051 328.054 7.77044L326.334 10.246L323.856 8.52686C318.833 5.05417 311.71 5.22609 308.235 10.246C304.759 15.2659 306.033 22.1769 311.056 25.6496L313.534 27.3688L331.77 39.953L344.364 21.73L346.084 19.2544C349.56 14.2345 348.287 7.28907 343.263 3.85076Z" fill="#FCD118"/>
<path d="M526.043 107.034C523.118 101.705 516.03 100.811 510.662 103.734L508.013 105.178L506.568 102.53C503.643 97.2008 497.174 94.1407 491.841 97.0976C486.507 100.02 484.546 106.794 487.471 112.157L488.916 114.805L499.617 134.197L519.024 123.504L521.673 122.06C527.007 119.137 528.968 112.364 526.043 107.034Z" fill="#FCD118"/>
<path d="M118.435 143.171C112.655 141.246 106.84 145.372 104.913 151.148L103.949 154.002L101.093 153.039C95.3127 151.114 88.4997 153.245 86.5728 159.022C84.6459 164.798 87.7771 171.125 93.5578 173.05L96.4138 174.013L117.438 181.061L124.491 160.053L125.455 157.199C127.347 151.423 124.216 145.097 118.435 143.171Z" fill="#FCD118"/>
<path d="M252.492 325.023H199.158V72.1357H344.502V325.023H288.794H252.492Z" fill="#5ED45E"/>
<path d="M412.872 347.2L344.501 325.023L348.046 72.1357L412.872 45.5232V347.2Z" fill="#E1E1E5"/>
<path d="M396.75 189.015C397.317 185.529 394.947 182.244 391.458 181.678C387.969 181.112 384.682 183.48 384.115 186.966C383.549 190.453 385.919 193.738 389.408 194.304C392.897 194.869 396.184 192.502 396.75 189.015Z" fill="#5ED45E"/>
<path d="M430.981 189.506C431.793 186.069 429.663 182.624 426.223 181.812C422.783 181.001 419.336 183.129 418.524 186.567C417.712 190.004 419.842 193.448 423.282 194.26C426.722 195.072 430.169 192.943 430.981 189.506Z" fill="#5ED45E"/>
<path d="M215.331 331.315L199.158 362.501H325.68L334.936 331.315H215.331Z" fill="#4A91D6"/>
<path d="M265.12 156.478C265.12 156.478 268.183 167.824 259.959 167.343C252.836 166.896 244.957 167.308 240.243 171.606C238.97 172.775 238.281 174.391 238.281 176.11V212.9L247.125 236.865L265.12 156.478Z" fill="white"/>
<path d="M278.678 156.478C278.678 156.478 275.615 167.824 283.839 167.343C290.962 166.896 298.841 167.308 303.555 171.606C304.828 172.775 305.138 174.391 305.138 176.11L301.938 214.138L295.435 238.275L278.678 156.478Z" fill="white"/>
<path d="M287.28 134.507V142.036C287.28 148.81 279.159 161.085 276.166 167.48C275.236 169.474 272.587 167.067 271.933 167.927L267.46 168.271C263.434 156.821 256.552 149.394 256.552 140.627L287.28 134.507Z" fill="white"/>
<path d="M295.297 201.175H247.675V248.761H295.297V201.175Z" fill="#4A91D6"/>
<path d="M288.587 250.103L288.931 333.55H276.303L275.959 264.543C269.766 259.008 265.12 264.543 265.12 264.543L265.465 333.55H252.458V250.103H288.587Z" fill="#FCD118"/>
<path d="M252.492 332.312C252.492 332.312 257.551 337.436 265.121 332.588L256.277 346.41C256.277 341.527 252.32 337.573 247.434 337.573C242.548 337.573 238.591 341.527 238.591 346.41H256.277L252.492 332.312Z" fill="#E1E1E5"/>
<path d="M289.516 332.312C289.516 332.312 284.458 337.436 276.888 332.588L285.732 346.41C285.732 341.527 289.689 337.573 294.575 337.573C299.461 337.573 303.418 341.527 303.418 346.41H285.732L289.516 332.312Z" fill="#E1E1E5"/>
<path d="M265.12 183.64C265.12 183.64 268.183 167.48 259.959 166.999C252.836 166.552 244.957 166.964 240.243 171.262C238.97 172.431 238.281 174.047 238.281 175.766V195.365L265.12 183.64Z" fill="#E1E1E5"/>
<path d="M268.355 169.887C268.355 169.887 275.615 167.48 283.839 166.999C290.961 166.552 298.841 166.964 303.555 171.262C304.828 172.431 305.138 174.047 305.138 175.766L302.282 193.508L293.301 192.545L285.834 200.969L254.832 200.213L254.144 169.165L268.355 169.887Z" fill="#E1E1E5"/>
<path d="M263.4 166.517C265.258 167.343 268.424 168.408 272.415 168.34C276.028 168.271 278.918 167.308 280.673 166.517H263.4Z" fill="#E1E1E5"/>
<path d="M254.557 135.779V125.395C254.557 117.796 259.925 109.166 266.841 107.035L276.647 106.931C283.701 108.994 288.863 115.493 288.863 123.229V135.057L272.037 138.151L254.557 135.779Z" fill="#FCD118"/>
<path d="M500.684 434.637L496.176 444.642C495.109 447.221 492.15 448.493 489.57 447.427L433.999 424.803C431.418 423.737 430.145 420.78 431.212 418.201L436.924 405.239L500.684 434.637Z" fill="#E1E1E5"/>
<path d="M472.881 315.602L478.111 303.328C479.178 300.749 482.137 299.477 484.718 300.542L540.288 323.167C542.869 324.232 544.142 327.189 543.075 329.768L537.57 342.765L472.881 315.602Z" fill="#E1E1E5"/>
<path d="M476.219 370.684C479.281 373.16 484.27 371.303 486.817 367.727C487.092 367.349 486.61 368.105 486.817 367.727C490.086 361.744 489.569 355.934 495.006 357.378C498.722 358.375 498.172 363.085 494.903 369.068C494.283 370.203 493.63 378.145 492.976 379.108L476.219 370.684Z" fill="#FCD118"/>
<path d="M471.986 382.856C476.528 383.234 479.075 382.993 484.408 388.116C495.453 398.775 501.991 406.649 511.453 381.515C512.245 379.417 511.453 377.045 509.561 375.841C507.393 374.466 480.933 373.744 476.081 372.369L471.986 382.856Z" fill="#FCD118"/>
<path d="M469.819 386.707L458.361 382.065C458.223 382.03 458.188 381.859 458.223 381.755L466.103 361.366C466.137 361.229 466.309 361.194 466.412 361.229L477.87 365.87C478.008 365.905 478.042 366.077 478.008 366.18L470.128 386.569C470.094 386.672 469.956 386.741 469.819 386.707Z" fill="#4A91D6"/>
<path d="M61.7983 110.748C87.8901 110.748 109.042 89.6123 109.042 63.54C109.042 37.4678 87.8901 16.332 61.7983 16.332C35.7065 16.332 14.5549 37.4678 14.5549 63.54C14.5549 89.6123 35.7065 110.748 61.7983 110.748Z" fill="#E1E1E5"/>
<path d="M140.388 259.833C138.599 259.214 137.636 257.254 138.289 255.466C138.909 253.678 140.87 252.716 142.659 253.335C144.449 253.953 145.412 255.913 144.793 257.701C144.311 259.111 142.969 260.005 141.558 260.005C141.145 260.039 140.767 259.97 140.388 259.833ZM151.434 256.945C150.401 255.329 150.917 253.231 152.5 252.2C154.117 251.203 156.216 251.684 157.249 253.266C158.246 254.882 157.765 257.014 156.182 258.011C155.597 258.354 154.978 258.526 154.358 258.526C153.223 258.561 152.087 258.011 151.434 256.945ZM129.137 248.624C128.517 246.836 129.446 244.876 131.235 244.223C133.025 243.604 134.986 244.532 135.64 246.32C136.259 248.108 135.33 250.068 133.541 250.721C133.162 250.859 132.784 250.928 132.405 250.928C130.96 250.928 129.618 250.034 129.137 248.624ZM160.827 247.627C158.935 247.421 157.593 245.701 157.799 243.845C158.006 241.954 159.726 240.613 161.584 240.819C163.477 241.025 164.819 242.745 164.612 244.601C164.406 246.355 162.926 247.661 161.206 247.661C161.068 247.627 160.965 247.627 160.827 247.627ZM131.992 237.553C130.375 236.556 129.894 234.424 130.891 232.808C131.889 231.192 134.023 230.71 135.64 231.708C137.257 232.705 137.739 234.836 136.741 236.452C136.087 237.484 134.952 238.068 133.816 238.068C133.162 238.103 132.543 237.931 131.992 237.553ZM154.496 234.458C154.496 234.458 154.496 234.424 154.496 234.458C153.12 233.083 153.12 230.917 154.461 229.576C155.803 228.235 157.971 228.235 159.313 229.576C159.313 229.576 159.313 229.576 159.348 229.61C160.689 230.951 160.689 233.117 159.348 234.458C158.659 235.146 157.799 235.455 156.905 235.455C156.044 235.455 155.184 235.146 154.496 234.458ZM141.283 228.166C141.076 226.275 142.418 224.59 144.311 224.35C146.203 224.143 147.889 225.484 148.13 227.375C148.337 229.266 146.995 230.951 145.102 231.192C144.965 231.192 144.827 231.226 144.724 231.226C143.003 231.192 141.489 229.92 141.283 228.166Z" fill="#1E243A"/>
<path d="M26.8389 285.105C25.0497 284.486 24.0862 282.526 24.7056 280.738C25.3249 278.95 27.2862 277.987 29.0755 278.606C30.8648 279.225 31.8282 281.185 31.2088 282.973C30.7271 284.382 29.3852 285.276 27.9744 285.276C27.5959 285.311 27.2174 285.242 26.8389 285.105ZM37.8842 282.251C36.8863 280.635 37.368 278.503 38.9508 277.506C40.5681 276.474 42.667 276.956 43.6993 278.572C44.6971 280.188 44.2154 282.285 42.6326 283.317C42.0476 283.66 41.4283 283.832 40.8089 283.832C39.639 283.832 38.5379 283.282 37.8842 282.251ZM15.5872 273.896C14.9679 272.108 15.8969 270.148 17.6862 269.495C19.4754 268.876 21.4367 269.804 22.0905 271.592C22.7099 273.38 21.7808 275.34 19.9916 275.993C19.6131 276.131 19.2346 276.199 18.8561 276.199C17.4109 276.199 16.0689 275.305 15.5872 273.896ZM47.2778 272.899C45.3853 272.692 44.0089 271.007 44.2498 269.116C44.4563 267.225 46.1767 265.884 48.0348 266.091C49.9273 266.297 51.2692 268.016 51.0628 269.873C50.8563 271.626 49.3767 272.933 47.6563 272.933C47.5186 272.899 47.381 272.899 47.2778 272.899ZM18.4088 262.859C16.7915 261.862 16.3098 259.73 17.3077 258.114C18.3055 256.498 20.4389 256.016 22.0561 257.014C23.6733 258.011 24.155 260.142 23.1572 261.758C22.5034 262.79 21.3679 263.374 20.2324 263.374C19.6131 263.374 18.9937 263.202 18.4088 262.859ZM40.9466 259.73C40.9121 259.73 40.9121 259.73 40.9466 259.73C39.5702 258.354 39.5702 256.188 40.9121 254.847C42.2541 253.506 44.4219 253.506 45.7638 254.847L45.7982 254.882C47.1402 256.223 47.1402 258.389 45.7982 259.764C45.11 260.417 44.2498 260.761 43.3552 260.761C42.495 260.727 41.6003 260.417 40.9466 259.73ZM27.7336 253.438C27.5271 251.547 28.869 249.862 30.7615 249.621C32.654 249.415 34.3401 250.756 34.5809 252.647C34.7874 254.538 33.4454 256.223 31.5529 256.463C31.4153 256.463 31.2777 256.498 31.1744 256.498C29.4196 256.498 27.94 255.191 27.7336 253.438Z" fill="#1E243A"/>
<path d="M474.533 251.34C472.744 250.721 471.78 248.762 472.4 246.974C473.019 245.186 474.98 244.223 476.77 244.842C478.559 245.461 479.522 247.421 478.903 249.209C478.421 250.618 477.079 251.512 475.634 251.512C475.29 251.547 474.911 251.478 474.533 251.34ZM485.578 248.487C484.546 246.871 485.062 244.773 486.645 243.742C488.262 242.745 490.361 243.226 491.393 244.808C492.426 246.424 491.909 248.555 490.327 249.552C489.742 249.896 489.122 250.068 488.503 250.068C487.367 250.068 486.232 249.518 485.578 248.487ZM463.281 240.131C462.662 238.344 463.591 236.384 465.38 235.765C467.17 235.146 469.131 236.074 469.785 237.862C470.404 239.65 469.475 241.61 467.686 242.263C467.307 242.401 466.929 242.47 466.55 242.47C465.105 242.435 463.763 241.541 463.281 240.131ZM494.972 239.134C493.079 238.928 491.737 237.209 491.944 235.352C492.15 233.461 493.871 232.12 495.729 232.326C497.621 232.533 498.963 234.252 498.757 236.109C498.55 237.862 497.071 239.169 495.35 239.169C495.213 239.169 495.11 239.134 494.972 239.134ZM466.137 229.094C464.52 228.097 464.038 225.966 465.036 224.35C466.034 222.734 468.167 222.252 469.785 223.249C471.402 224.246 471.884 226.378 470.886 227.994C470.232 229.026 469.096 229.61 467.961 229.61C467.307 229.61 466.688 229.438 466.137 229.094ZM488.641 225.966C487.264 224.59 487.264 222.424 488.606 221.083C489.948 219.742 492.116 219.742 493.458 221.083C493.458 221.083 493.458 221.083 493.492 221.118C494.834 222.459 494.834 224.625 493.492 225.966C492.804 226.653 491.944 226.963 491.049 226.963C490.189 226.997 489.329 226.653 488.641 225.966ZM475.428 219.674C475.221 217.782 476.563 216.098 478.456 215.857C480.348 215.651 482.034 216.992 482.275 218.883C482.481 220.774 481.14 222.459 479.247 222.699C479.109 222.699 478.972 222.734 478.869 222.734C477.148 222.734 475.634 221.427 475.428 219.674Z" fill="#1E243A"/>
<path d="M360.398 386.053C358.609 385.434 357.646 383.475 358.265 381.687C358.884 379.899 360.846 378.936 362.635 379.555C364.424 380.174 365.388 382.134 364.768 383.921C364.287 385.331 362.945 386.225 361.534 386.225C361.155 386.225 360.777 386.191 360.398 386.053ZM371.444 383.165C370.446 381.549 370.928 379.417 372.51 378.42C374.128 377.389 376.227 377.87 377.259 379.486C378.291 381.102 377.809 383.199 376.192 384.231C375.607 384.609 374.988 384.747 374.368 384.747C373.199 384.781 372.098 384.197 371.444 383.165ZM349.147 374.844C348.527 373.056 349.456 371.097 351.246 370.478C353.035 369.859 354.996 370.787 355.65 372.575C356.269 374.363 355.34 376.323 353.551 376.976C353.173 377.114 352.794 377.182 352.416 377.182C350.97 377.148 349.629 376.254 349.147 374.844ZM380.837 373.847C378.945 373.641 377.603 371.922 377.809 370.065C378.016 368.174 379.736 366.833 381.629 367.039C383.521 367.246 384.863 368.965 384.657 370.822C384.45 372.575 382.971 373.882 381.25 373.882C381.078 373.847 380.941 373.847 380.837 373.847ZM351.968 363.773C350.351 362.776 349.869 360.644 350.867 359.028C351.865 357.412 353.998 356.931 355.616 357.928C357.233 358.925 357.715 361.057 356.717 362.673C356.063 363.704 354.927 364.289 353.792 364.289C353.173 364.323 352.553 364.151 351.968 363.773ZM374.541 360.713L374.506 360.679C373.164 359.338 373.164 357.171 374.506 355.831C375.848 354.49 378.016 354.49 379.358 355.831C379.358 355.831 379.392 355.831 379.392 355.865C380.734 357.206 380.734 359.372 379.392 360.713C378.704 361.401 377.844 361.71 376.949 361.71C376.055 361.676 375.194 361.366 374.541 360.713ZM361.293 354.386C361.087 352.495 362.429 350.811 364.321 350.57C366.214 350.364 367.9 351.705 368.14 353.596C368.347 355.487 367.005 357.171 365.112 357.412C364.975 357.412 364.837 357.447 364.7 357.447C362.979 357.412 361.5 356.14 361.293 354.386Z" fill="#1E243A"/>
<path d="M170.53 59.0359C169.12 59.0359 167.95 57.8668 167.95 56.4571V39.9532C167.95 38.5435 169.12 37.3745 170.53 37.3745C171.941 37.3745 173.111 38.5435 173.111 39.9532V56.4571C173.111 57.8668 171.941 59.0359 170.53 59.0359Z" fill="#1E243A"/>
<path d="M178.96 50.9558H162.444C161.033 50.9558 159.864 49.7868 159.864 48.3771C159.864 46.9674 161.033 45.7983 162.444 45.7983H178.96C180.371 45.7983 181.541 46.9674 181.541 48.3771C181.541 49.7868 180.371 50.9558 178.96 50.9558Z" fill="#1E243A"/>
<path d="M293.68 404.998C292.269 404.998 291.099 403.829 291.099 402.42V385.916C291.099 384.506 292.269 383.337 293.68 383.337C295.09 383.337 296.26 384.506 296.26 385.916V402.42C296.26 403.864 295.125 404.998 293.68 404.998Z" fill="#1E243A"/>
<path d="M302.11 396.918H285.594C284.183 396.918 283.013 395.749 283.013 394.339C283.013 392.93 284.183 391.761 285.594 391.761H302.11C303.521 391.761 304.691 392.93 304.691 394.339C304.691 395.784 303.555 396.918 302.11 396.918Z" fill="#1E243A"/>
<path d="M452.683 53.3969C451.272 53.3969 450.103 52.2279 450.103 50.8182V34.3143C450.103 32.9046 451.272 31.7356 452.683 31.7356C454.094 31.7356 455.264 32.9046 455.264 34.3143V50.8182C455.264 52.2279 454.094 53.3969 452.683 53.3969Z" fill="#1E243A"/>
<path d="M461.113 45.3169H444.597C443.186 45.3169 442.016 44.1479 442.016 42.7382C442.016 41.3284 443.186 40.1594 444.597 40.1594H461.113C462.524 40.1594 463.694 41.3284 463.694 42.7382C463.694 44.1479 462.524 45.3169 461.113 45.3169Z" fill="#1E243A"/>
<path d="M17.5487 161.566C16.1379 161.566 14.968 160.397 14.968 158.987V142.484C14.968 141.074 16.1379 139.905 17.5487 139.905C18.9594 139.905 20.1293 141.074 20.1293 142.484V158.987C20.1293 160.431 18.9594 161.566 17.5487 161.566Z" fill="#1E243A"/>
<path d="M25.9788 153.486H9.4625C8.05174 153.486 6.88184 152.317 6.88184 150.907C6.88184 149.498 8.05174 148.329 9.4625 148.329H25.9788C27.3895 148.329 28.5594 149.498 28.5594 150.907C28.5594 152.351 27.3895 153.486 25.9788 153.486Z" fill="#1E243A"/>
<path d="M117.816 353.905C117.747 353.905 117.713 353.905 117.644 353.905C116.233 353.802 115.132 352.599 115.235 351.155L118.366 303.224H108.663L111.691 351.086C111.794 352.495 110.693 353.733 109.282 353.836C107.872 353.94 106.633 352.839 106.53 351.43L103.33 300.818C103.295 300.096 103.536 299.408 104.018 298.892C104.5 298.376 105.188 298.067 105.91 298.067H121.119C121.842 298.067 122.53 298.376 123.012 298.892C123.493 299.408 123.734 300.096 123.7 300.818L120.362 351.498C120.293 352.839 119.158 353.905 117.816 353.905Z" fill="#1E243A"/>
<path d="M124.457 419.542C124.009 419.542 123.528 419.405 123.115 419.164C122.427 418.752 121.979 418.064 121.876 417.239L118.194 386.191C118.022 384.781 119.02 383.509 120.465 383.337C121.876 383.165 123.149 384.162 123.321 385.606L126.624 413.319L155.597 401.973L141.317 379.967C140.526 378.764 140.87 377.182 142.074 376.392C143.278 375.601 144.861 375.945 145.653 377.148L161.653 401.801C162.066 402.454 162.169 403.245 161.928 404.001C161.687 404.723 161.137 405.342 160.414 405.617L125.386 419.336C125.076 419.508 124.766 419.542 124.457 419.542Z" fill="#1E243A"/>
<path d="M138.392 344.622C138.255 344.622 138.083 344.622 137.945 344.587C136.534 344.347 135.605 343.006 135.846 341.596L143.485 297.482L121.773 303.121C120.397 303.465 118.986 302.64 118.642 301.265C118.298 299.889 119.123 298.48 120.5 298.136L146.1 291.5C146.96 291.293 147.855 291.5 148.509 292.084C149.162 292.669 149.438 293.563 149.3 294.422L141.007 342.49C140.732 343.762 139.631 344.622 138.392 344.622Z" fill="#1E243A"/>
<path d="M124.457 419.542C124.216 419.542 123.941 419.508 123.7 419.439L112.758 416.104C111.691 415.795 110.968 414.832 110.934 413.697L110.143 386.707C110.108 385.297 111.209 384.094 112.654 384.059C114.1 384.025 115.27 385.125 115.304 386.569L116.027 411.738L125.179 414.523C126.556 414.935 127.313 416.379 126.9 417.755C126.59 418.82 125.558 419.542 124.457 419.542Z" fill="#1E243A"/>
<path d="M105.91 302.124C104.844 302.124 103.846 301.437 103.467 300.371C103.02 299.03 103.708 297.551 105.085 297.104L130.857 288.233C131.27 288.096 131.751 288.062 132.199 288.13L147.235 291.053C148.646 291.328 149.541 292.669 149.266 294.079C148.99 295.488 147.648 296.382 146.238 296.107L131.889 293.322L106.771 301.952C106.461 302.09 106.186 302.124 105.91 302.124Z" fill="#1E243A"/>
<path d="M70.125 402.557C70.0906 402.557 70.0562 402.557 70.0218 402.557C69.2648 402.523 68.5766 402.179 68.0949 401.595L52.9206 382.856C52.0948 381.824 52.1636 380.38 53.0926 379.417L74.8391 357.275C75.8369 356.243 77.4885 356.243 78.4864 357.24C79.5187 358.238 79.5187 359.854 78.5208 360.885L58.3916 381.412L70.2283 396.059L77.4541 388.357C78.8305 386.879 80.6886 385.985 82.7187 385.847L108.904 384.059C109.214 384.025 136.741 382.34 145.997 371.337C150.367 366.146 148.956 357.24 146.41 351.223C144.173 345.963 141.558 343.556 140.663 343.281C140.629 343.315 140.594 343.35 140.56 343.418C133.3 355.04 118.745 355.59 110.693 354.868C108.422 354.73 97.6521 353.733 96.379 347.235C96.1037 345.825 96.9984 344.484 98.4091 344.209C99.8199 343.934 101.162 344.828 101.437 346.238C101.816 348.06 107.287 349.504 111.037 349.711C111.072 349.711 111.106 349.711 111.106 349.711C117.988 350.329 130.375 349.951 136.19 340.668C137.291 338.88 139.046 337.952 140.939 338.089C145.205 338.433 149.059 344.14 151.227 349.332C154.427 357 155.769 367.693 149.954 374.638C139.287 387.326 110.452 389.113 109.248 389.182L83.0972 390.97C82.3746 391.005 81.7208 391.314 81.2391 391.83L71.9831 401.698C71.5014 402.282 70.8476 402.557 70.125 402.557Z" fill="#1E243A"/>
<path d="M68.4047 316.324C67.6477 316.324 66.8908 315.981 66.409 315.362C65.5144 314.262 65.6864 312.646 66.7875 311.752L77.7295 302.915C78.693 302.124 79.0027 300.852 78.3833 300.096C78.0392 299.683 77.5575 299.58 77.2134 299.546C76.6285 299.511 76.0091 299.717 75.493 300.13C74.3919 301.024 72.7747 300.852 71.88 299.752C70.9854 298.652 71.1575 297.036 72.2585 296.142C73.7725 294.938 75.6306 294.319 77.4887 294.422C79.45 294.526 81.2048 295.385 82.4091 296.864C84.8178 299.855 84.164 304.359 80.9984 306.938L70.0564 315.774C69.5402 316.118 68.9897 316.324 68.4047 316.324Z" fill="#1E243A"/>
<path d="M39.7421 366.73C38.9851 366.73 38.2281 366.386 37.7463 365.767L22.572 347.028C22.0903 346.444 21.9183 345.688 22.0215 344.966C22.1591 344.243 22.6064 343.59 23.2258 343.212L34.8216 336.232C35.4409 335.854 35.8539 335.304 36.0603 334.616L43.2862 309.413C43.2862 309.345 43.3206 309.31 43.3206 309.241C44.2152 306.732 45.798 304.497 47.897 302.812L73.8068 281.873C77.0757 279.225 81.8929 279.741 84.508 283.007C87.1575 286.274 86.6413 291.087 83.3725 293.7L63.4154 309.895C63.9315 309.826 64.482 309.826 65.0326 309.895C69.196 310.342 72.2584 314.089 71.8111 318.284L69.4369 340.53C68.9552 344.931 66.8218 348.851 63.3809 351.636C63.3121 351.705 63.2433 351.739 63.1745 351.773L41.084 366.317C40.7399 366.592 40.2238 366.73 39.7421 366.73ZM28.4559 346.1L40.2926 360.713L60.3186 347.544C62.624 345.653 64.0691 342.971 64.3788 339.98L66.753 317.734C66.8907 316.393 65.9272 315.19 64.5508 315.018C63.2089 314.88 62.0046 315.843 61.8325 317.218L60.1809 331.934C60.0089 333.344 58.7358 334.376 57.325 334.204C55.9142 334.032 54.882 332.76 55.054 331.35L57.497 309.035C57.5658 308.347 57.9099 307.729 58.4261 307.316L80.1381 289.712C81.2047 288.852 81.3768 287.305 80.5166 286.239C79.6563 285.173 78.1079 285.036 77.0757 285.861L51.1658 306.8C49.8239 307.866 48.826 309.276 48.241 310.892L41.0152 336.026C40.4646 337.951 39.1915 339.602 37.4711 340.633L28.4559 346.1Z" fill="#1E243A"/>
<path d="M77.3166 360.816C76.7317 360.816 76.1467 360.61 75.6994 360.232C74.5983 359.338 74.4263 357.722 75.3209 356.587L95.3469 332.141C96.5168 330.628 98.1684 329.631 100.095 329.356C102.022 329.08 103.949 329.562 105.497 330.696L105.566 330.731C108.801 333.103 109.455 337.676 107.08 340.908C107.046 340.943 107.046 340.977 107.011 341.011L100.956 348.404C100.061 349.504 98.4437 349.676 97.3082 348.782C96.2071 347.888 96.035 346.272 96.9297 345.137L102.917 337.814C103.571 336.885 103.364 335.579 102.435 334.891L102.366 334.857C101.919 334.513 101.368 334.375 100.783 334.479C100.233 334.547 99.7168 334.857 99.4071 335.304C99.3727 335.338 99.3727 335.373 99.3383 335.407L79.2779 359.888C78.8306 360.472 78.0736 360.816 77.3166 360.816Z" fill="#1E243A"/>
<path d="M114.96 365.183C113.412 365.183 111.829 365.114 110.177 364.908C108.766 364.736 107.734 363.464 107.906 362.054C108.078 360.644 109.317 359.613 110.762 359.785C130.96 361.985 144.724 347.2 144.827 347.063C145.79 345.997 147.408 345.928 148.474 346.891C149.541 347.854 149.61 349.47 148.646 350.536C148.061 351.154 135.089 365.183 114.96 365.183Z" fill="#1E243A"/>
<path d="M119.467 376.77C117.472 376.77 115.373 376.632 113.171 376.357C111.76 376.185 110.762 374.879 110.934 373.469C111.106 372.059 112.414 371.062 113.824 371.234C123.734 372.472 132.508 370.581 139.872 365.595C145.412 361.848 148.096 357.653 148.13 357.619C148.887 356.415 150.47 356.037 151.674 356.793C152.879 357.55 153.257 359.131 152.5 360.335C152.362 360.541 149.334 365.355 142.969 369.687C138.083 373.125 130.237 376.77 119.467 376.77Z" fill="#1E243A"/>
<path d="M2.78696 397.159C1.89233 397.159 1.03211 396.712 0.550382 395.887C-0.172204 394.649 0.240703 393.067 1.47942 392.345L40.3614 369.618L19.5097 343.487L4.16331 353.183C2.959 353.939 1.3762 353.596 0.6192 352.392C-0.137795 351.189 0.206294 349.607 1.4106 348.851L20.6796 336.714L48.1378 371.131L4.0945 396.849C3.68159 397.021 3.23427 397.159 2.78696 397.159Z" fill="#1E243A"/>
<path d="M2.58055 452C1.72033 452 0.860104 451.553 0.37838 450.762C-0.378616 449.559 0.0342908 447.943 1.2386 447.221L70.9166 404.93L49.0325 379.52L3.99131 407.783C2.787 408.54 1.20419 408.162 0.447197 406.958C-0.309798 405.755 0.0686997 404.173 1.27301 403.417L50.0648 372.816L78.8306 406.202L3.92249 451.622C3.50959 451.863 3.02786 452 2.58055 452Z" fill="#1E243A"/>
<path d="M344.502 327.946H288.759C287.348 327.946 286.179 326.777 286.179 325.367C286.179 323.958 287.348 322.789 288.759 322.789H341.921V75.0583H201.739V322.754H252.458C253.869 322.754 255.039 323.923 255.039 325.333C255.039 326.743 253.869 327.912 252.458 327.912H199.159C197.748 327.912 196.578 326.743 196.578 325.333V72.4796C196.578 71.0699 197.748 69.9009 199.159 69.9009H344.502C345.912 69.9009 347.082 71.0699 347.082 72.4796V325.333C347.082 326.777 345.947 327.946 344.502 327.946Z" fill="#1E243A"/>
<path d="M275.959 327.602H265.499C264.088 327.602 262.918 326.433 262.918 325.023C262.918 323.614 264.088 322.445 265.499 322.445H275.959C277.37 322.445 278.54 323.614 278.54 325.023C278.54 326.433 277.37 327.602 275.959 327.602Z" fill="#1E243A"/>
<path d="M412.872 350.123H405.371C403.96 350.123 402.79 348.954 402.79 347.544V45.8671C402.79 44.4574 403.96 43.2883 405.371 43.2883H412.872C414.283 43.2883 415.453 44.4574 415.453 45.8671V347.544C415.453 348.954 414.317 350.123 412.872 350.123ZM407.986 344.965H410.326V48.4458H407.986V344.965Z" fill="#1E243A"/>
<path d="M344.502 74.7145C343.504 74.7145 342.54 74.13 342.127 73.1673C341.577 71.8607 342.162 70.3479 343.469 69.7634L404.339 43.4947C405.646 42.9446 407.16 43.5291 407.745 44.8356C408.296 46.1422 407.711 47.655 406.403 48.2395L345.534 74.5082C345.19 74.6458 344.846 74.7145 344.502 74.7145Z" fill="#1E243A"/>
<path d="M405.405 350.123C405.096 350.123 404.821 350.054 404.511 349.951L343.642 327.43C342.3 326.949 341.611 325.436 342.128 324.129C342.609 322.788 344.089 322.101 345.431 322.617L406.3 345.137C407.642 345.619 408.33 347.132 407.814 348.438C407.436 349.47 406.438 350.123 405.405 350.123Z" fill="#1E243A"/>
<path d="M390.438 197.324C385.483 197.324 381.457 193.302 381.457 188.35C381.457 183.399 385.483 179.376 390.438 179.376C395.392 179.376 399.418 183.399 399.418 188.35C399.418 193.302 395.392 197.324 390.438 197.324ZM390.438 184.534C388.339 184.534 386.618 186.253 386.618 188.35C386.618 190.448 388.339 192.167 390.438 192.167C392.536 192.167 394.257 190.448 394.257 188.35C394.257 186.253 392.536 184.534 390.438 184.534Z" fill="#1E243A"/>
<path d="M424.743 197.324C419.788 197.324 415.762 193.302 415.762 188.35C415.762 183.399 419.788 179.376 424.743 179.376C429.698 179.376 433.724 183.399 433.724 188.35C433.724 193.302 429.698 197.324 424.743 197.324ZM424.743 184.534C422.644 184.534 420.924 186.253 420.924 188.35C420.924 190.448 422.644 192.167 424.743 192.167C426.842 192.167 428.563 190.448 428.563 188.35C428.563 186.253 426.842 184.534 424.743 184.534Z" fill="#1E243A"/>
<path d="M325.68 365.423H199.159C198.264 365.423 197.438 364.942 196.956 364.186C196.475 363.429 196.44 362.467 196.888 361.676L213.06 330.525C213.714 329.252 215.262 328.771 216.535 329.424C217.808 330.078 218.29 331.625 217.636 332.897L203.425 360.3H323.753L332.459 330.972C332.871 329.596 334.317 328.84 335.659 329.218C337.035 329.631 337.792 331.075 337.413 332.416L328.157 363.567C327.813 364.667 326.815 365.423 325.68 365.423Z" fill="#1E243A"/>
<path d="M61.4199 121.75C28.3186 121.75 1.37646 94.8284 1.37646 61.7519C1.37646 28.6754 28.3186 1.75342 61.4199 1.75342C94.5213 1.75342 121.463 28.6754 121.463 61.7519C121.463 94.8284 94.5213 121.75 61.4199 121.75ZM61.4199 6.91088C31.1745 6.91088 6.5378 31.5292 6.5378 61.7519C6.5378 91.9746 31.1401 116.593 61.4199 116.593C91.6654 116.593 116.302 92.009 116.302 61.7519C116.302 31.5292 91.6654 6.91088 61.4199 6.91088Z" fill="#1E243A"/>
<path d="M15.5184 64.6746C14.1076 64.6746 12.9377 63.5056 12.9377 62.0959C12.9377 50.5088 17.1012 39.2655 24.6712 30.4978C25.6002 29.432 27.2174 29.2944 28.3185 30.2228C29.3852 31.1511 29.5228 32.7671 28.5938 33.8674C21.8496 41.7067 18.1335 51.7466 18.1335 62.0959C18.0991 63.54 16.9292 64.6746 15.5184 64.6746Z" fill="#1E243A"/>
<path d="M61.42 110.541C43.5962 110.541 27.252 100.811 18.753 85.0979C18.0648 83.8601 18.5466 82.2785 19.7853 81.5908C21.024 80.9032 22.6068 81.3845 23.295 82.6223C30.8649 96.6506 45.4887 105.35 61.42 105.35C85.2998 105.35 104.741 85.9231 104.741 62.0612C104.741 38.1994 85.2998 18.7729 61.42 18.7729C54.9512 18.7729 48.7231 20.1483 42.9425 22.8989C41.6693 23.5178 40.1209 22.9677 39.5016 21.6611C38.8822 20.3889 39.4327 18.8417 40.7403 18.2228C47.2436 15.1627 54.1942 13.6155 61.42 13.6155C88.1557 13.6155 109.902 35.3456 109.902 62.0612C109.902 88.8113 88.1557 110.541 61.42 110.541Z" fill="#1E243A"/>
<path d="M59.8373 66.4967C58.805 66.4967 57.8416 65.8778 57.4287 64.8807L44.3533 31.9073C43.8371 30.5664 44.4909 29.0879 45.7985 28.5721C47.1404 28.0564 48.62 28.7097 49.1361 30.0162L61.3513 60.8579L88.5343 53.7406C89.9106 53.3623 91.3214 54.2219 91.6999 55.5972C92.044 56.9726 91.2526 58.3823 89.8418 58.7605L60.4222 66.4623C60.2502 66.4623 60.0437 66.4967 59.8373 66.4967Z" fill="#1E243A"/>
<path d="M331.805 42.8757C331.289 42.8757 330.773 42.7382 330.325 42.4288L309.577 28.1254C306.583 26.0624 304.553 22.9336 303.899 19.3577C303.245 15.7475 304.002 12.1373 306.067 9.14594C308.131 6.15461 311.366 4.33231 315.22 3.98848C318.661 3.71342 322.342 4.71053 325.302 6.73913L325.646 6.97981L325.886 6.63598C330.463 0.103192 338.893 -1.95979 344.743 2.06303C347.736 4.12601 349.766 7.25487 350.42 10.8307C351.074 14.4409 350.317 18.0512 348.252 21.0425L333.938 41.7755C333.422 42.4975 332.596 42.8757 331.805 42.8757ZM316.424 9.11156C316.183 9.11156 315.908 9.11156 315.667 9.14594C314.084 9.28347 311.848 9.90237 310.334 12.0685C309.061 13.9252 308.579 16.1945 308.992 18.4294C309.405 20.6643 310.643 22.6241 312.501 23.8963L331.117 36.7212L343.951 18.1199C345.224 16.2632 345.706 13.994 345.293 11.7591C344.88 9.52416 343.641 7.56432 341.783 6.29215C337.861 3.57588 332.699 5.87955 330.153 9.55854L328.433 12.0341C328.054 12.5843 327.435 12.9968 326.781 13.1C326.093 13.2375 325.405 13.0656 324.854 12.6874L322.377 10.9682C320.622 9.76484 318.489 9.11156 316.424 9.11156Z" fill="#1E243A"/>
<path d="M499.617 137.12C498.722 137.12 497.828 136.638 497.346 135.779L485.199 113.739C481.552 107.138 483.995 98.8171 490.567 95.2069C496.795 91.803 504.985 94.6911 508.804 101.671L509.01 102.049L509.389 101.843C516.374 97.9919 524.839 99.9174 528.279 106.141C531.927 112.742 529.484 121.063 522.912 124.673L500.856 136.81C500.443 137.017 500.03 137.12 499.617 137.12ZM496.279 98.8859C495.212 98.8859 494.111 99.1266 493.079 99.7111C488.984 101.98 487.47 107.138 489.741 111.264L500.649 131.068L520.469 120.169C524.563 117.9 526.077 112.742 523.806 108.616C521.501 104.456 515.858 104.181 511.935 106.347L509.286 107.791C508.701 108.135 507.978 108.204 507.324 107.997C506.671 107.791 506.12 107.378 505.776 106.76L504.331 104.112C502.679 101.19 499.514 98.8859 496.279 98.8859Z" fill="#1E243A"/>
<path d="M117.403 183.984C117.128 183.984 116.853 183.95 116.577 183.846L92.6975 175.87C89.2566 174.701 86.4351 172.294 84.8178 168.993C83.2006 165.727 82.9254 162.013 84.0609 158.575C86.2974 151.836 94.3147 148.432 101.85 150.976L102.263 151.114L102.401 150.701C103.536 147.297 105.876 144.272 108.801 142.449C112.035 140.421 115.751 139.939 119.192 141.074C122.633 142.243 125.455 144.65 127.072 147.951C128.689 151.217 128.964 154.93 127.829 158.369L119.846 182.23C119.502 183.296 118.504 183.984 117.403 183.984ZM96.8265 155.308C93.4545 155.308 90.1168 156.856 89.0157 160.225C88.2931 162.357 88.4652 164.661 89.4975 166.724C90.5297 168.752 92.2502 170.265 94.3835 170.987L115.82 178.173L123.012 156.753C123.734 154.621 123.562 152.317 122.53 150.254C121.498 148.226 119.777 146.713 117.644 145.991C115.132 145.131 112.999 145.991 111.622 146.816C109.695 148.019 108.147 150.048 107.39 152.352L106.427 155.205C105.979 156.546 104.5 157.268 103.158 156.821L100.302 155.859C99.1663 155.48 97.9964 155.308 96.8265 155.308Z" fill="#1E243A"/>
<path d="M273 141.968C264.26 141.968 248.81 139.939 246.815 139.251C245.851 138.908 245.163 138.014 245.094 136.982C245.025 135.951 245.61 134.988 246.539 134.507C246.987 134.266 247.537 134.128 248.569 133.853C249.498 133.613 251.976 132.994 252.595 132.478C253.49 131.412 255.107 131.275 256.174 132.169C257.206 133.028 257.412 134.507 256.69 135.572C264.019 136.432 273.894 137.257 276.509 136.57C278.918 135.951 283.907 132.994 285.697 131.653C286.832 130.793 288.449 131 289.309 132.134C290.17 133.269 289.963 134.885 288.828 135.744C287.142 137.017 281.43 140.627 277.817 141.555C276.785 141.83 275.064 141.968 273 141.968ZM252.561 132.512C252.561 132.512 252.561 132.547 252.561 132.512C252.561 132.547 252.561 132.512 252.561 132.512Z" fill="#1E243A"/>
<path d="M247.124 239.753C246.058 239.753 245.094 239.1 244.716 238.069L235.873 214.104C235.77 213.828 235.701 213.519 235.701 213.21V176.42C235.701 173.978 236.733 171.64 238.488 170.024C244.234 164.764 253.559 164.695 260.097 165.073C261.679 165.176 262.127 164.626 262.299 164.42C263.537 162.941 263.021 159.091 262.608 157.44C262.23 156.065 263.056 154.655 264.432 154.277C265.808 153.899 267.219 154.724 267.598 156.099C267.804 156.856 269.525 163.732 266.29 167.652C265.258 168.924 263.262 170.403 259.753 170.196C254.178 169.852 246.23 169.852 241.963 173.807C241.241 174.46 240.828 175.388 240.828 176.385V212.694L249.499 236.212C249.98 237.553 249.292 239.031 247.985 239.513C247.709 239.719 247.4 239.753 247.124 239.753Z" fill="#1E243A"/>
<path d="M295.435 241.197C295.228 241.197 294.987 241.163 294.746 241.094C293.37 240.716 292.544 239.306 292.923 237.931L299.357 214L302.523 176.317C302.523 174.701 302.076 174.116 301.766 173.841C297.465 169.921 289.551 169.921 283.976 170.231C280.467 170.437 278.505 168.959 277.439 167.686C274.239 163.767 275.925 156.89 276.131 156.134C276.51 154.758 277.92 153.933 279.297 154.311C280.673 154.69 281.499 156.099 281.12 157.475C280.708 159.091 280.191 162.941 281.43 164.454C281.602 164.661 282.049 165.211 283.632 165.108C290.17 164.695 299.495 164.798 305.241 170.059C306.893 171.572 307.684 173.635 307.684 176.454C307.684 176.523 307.684 176.592 307.684 176.66L304.519 214.688C304.519 214.826 304.484 214.997 304.45 215.135L297.946 239.306C297.602 240.441 296.57 241.197 295.435 241.197Z" fill="#1E243A"/>
<path d="M271.899 160.878C262.333 160.878 253.937 151.561 253.937 140.971C253.937 139.561 255.107 138.392 256.518 138.392C257.929 138.392 259.099 139.561 259.099 140.971C259.099 148.707 265.189 155.721 271.899 155.721C278.953 155.721 284.699 149.738 284.699 142.415V134.885C284.699 133.475 285.869 132.306 287.279 132.306C288.69 132.306 289.86 133.475 289.86 134.885V142.415C289.86 152.592 281.808 160.878 271.899 160.878Z" fill="#1E243A"/>
<path d="M272.036 171.606C268.733 171.606 265.464 170.918 262.368 169.577C261.06 168.993 260.475 167.48 261.026 166.173C261.576 164.867 263.125 164.282 264.432 164.833C266.978 165.933 269.662 166.483 272.381 166.449C274.892 166.414 277.335 165.864 279.675 164.833C280.983 164.248 282.497 164.867 283.082 166.173C283.667 167.48 283.047 168.993 281.74 169.577C278.781 170.884 275.649 171.572 272.484 171.606C272.312 171.606 272.174 171.606 272.036 171.606Z" fill="#1E243A"/>
<path d="M254.557 135.263C253.146 135.263 251.976 134.094 251.976 132.684V125.739C251.976 116.662 258.307 107.344 266.084 104.903C266.325 104.834 266.565 104.8 266.841 104.8L276.647 104.697C276.888 104.697 277.163 104.731 277.404 104.8C285.697 107.206 291.477 114.908 291.477 123.573V131.962C291.477 133.372 290.308 134.541 288.897 134.541C287.486 134.541 286.316 133.372 286.316 131.962V123.573C286.316 117.35 282.221 111.745 276.303 109.888L267.322 109.957C261.886 111.883 257.206 119.137 257.206 125.739V132.684C257.137 134.128 256.002 135.263 254.557 135.263Z" fill="#1E243A"/>
<path d="M265.189 129.762C265.086 129.762 264.983 129.762 264.845 129.727C263.434 129.555 262.436 128.249 262.608 126.839C262.677 126.323 262.712 125.292 262.746 124.192C262.918 120.306 263.056 117.659 263.847 116.112C264.501 114.839 266.049 114.358 267.322 115.011C268.596 115.665 269.077 117.212 268.424 118.484C268.079 119.275 267.942 122.748 267.873 124.398C267.839 125.67 267.77 126.77 267.667 127.492C267.563 128.799 266.462 129.762 265.189 129.762Z" fill="#1E243A"/>
<path d="M295.297 251.718H247.675C246.264 251.718 245.094 250.549 245.094 249.14V201.519C245.094 200.109 246.264 198.94 247.675 198.94H295.297C296.708 198.94 297.877 200.109 297.877 201.519V249.105C297.877 250.549 296.742 251.718 295.297 251.718ZM250.256 246.561H292.716V204.098H250.256V246.561Z" fill="#1E243A"/>
<path d="M252.492 201.416C251.082 201.416 249.912 200.247 249.912 198.837V185.187C249.912 183.777 251.082 182.608 252.492 182.608C253.903 182.608 255.073 183.777 255.073 185.187V198.837C255.073 200.247 253.903 201.416 252.492 201.416Z" fill="#1E243A"/>
<path d="M288.966 201.416C287.555 201.416 286.385 200.247 286.385 198.837V185.187C286.385 183.777 287.555 182.608 288.966 182.608C290.376 182.608 291.546 183.777 291.546 185.187V198.837C291.546 200.247 290.376 201.416 288.966 201.416Z" fill="#1E243A"/>
<path d="M252.492 194.746H238.316C236.905 194.746 235.735 193.577 235.735 192.167C235.735 190.757 236.905 189.588 238.316 189.588H252.492C253.903 189.588 255.073 190.757 255.073 192.167C255.073 193.577 253.903 194.746 252.492 194.746Z" fill="#1E243A"/>
<path d="M303.417 194.746H289.241C287.83 194.746 286.66 193.577 286.66 192.167C286.66 190.757 287.83 189.588 289.241 189.588H303.417C304.828 189.588 305.998 190.757 305.998 192.167C305.998 193.577 304.828 194.746 303.417 194.746Z" fill="#1E243A"/>
<path d="M252.492 334.41C251.082 334.41 249.912 333.241 249.912 331.831V250.446C249.912 249.036 251.082 247.867 252.492 247.867C253.903 247.867 255.073 249.036 255.073 250.446V331.831C255.073 333.241 253.903 334.41 252.492 334.41Z" fill="#1E243A"/>
<path d="M288.966 334.41C287.555 334.41 286.385 333.275 286.385 331.831L286.041 250.446C286.041 249.036 287.176 247.867 288.622 247.867C290.032 247.867 291.202 249.002 291.202 250.446L291.546 331.831C291.546 333.241 290.411 334.375 288.966 334.41Z" fill="#1E243A"/>
<path d="M276.303 334.41C274.893 334.41 273.723 333.275 273.723 331.831L273.379 266.125C272.277 265.334 271.211 264.956 270.179 265.025C269.112 265.093 268.252 265.609 267.701 266.022L268.045 331.831C268.045 333.241 266.91 334.41 265.465 334.41C264.019 334.41 262.884 333.275 262.884 331.831L262.54 264.887C262.54 264.268 262.746 263.684 263.159 263.202C263.434 262.893 265.843 260.142 269.8 259.867C272.518 259.661 275.202 260.727 277.714 262.962C278.265 263.443 278.574 264.131 278.574 264.887L278.918 331.831C278.918 333.241 277.748 334.375 276.303 334.41C276.338 334.41 276.338 334.41 276.303 334.41Z" fill="#1E243A"/>
<path d="M256.277 349.332C256.243 349.332 256.243 349.332 256.277 349.332H238.591C237.18 349.332 236.01 348.163 236.01 346.753C236.01 340.461 241.137 335.338 247.434 335.338C251.494 335.338 255.073 337.47 257.103 340.667L259.099 337.573C255.142 337.711 252.079 335.923 250.668 334.479L254.35 330.868L254.316 330.834C254.694 331.212 258.204 334.307 263.744 330.765C264.776 330.112 266.118 330.249 266.944 331.109C267.804 331.969 267.942 333.31 267.288 334.307L258.445 348.094C258.376 348.197 258.307 348.266 258.238 348.369C258.101 348.541 257.929 348.679 257.757 348.816C257.378 349.091 256.931 349.263 256.449 349.298C256.415 349.332 256.346 349.332 256.277 349.332ZM241.722 344.175H253.146C252.148 342.008 249.98 340.496 247.434 340.496C244.888 340.496 242.686 342.008 241.722 344.175Z" fill="#1E243A"/>
<path d="M249.808 340.599C249.326 340.599 248.845 340.461 248.432 340.186C247.228 339.43 246.883 337.814 247.64 336.61L250.668 331.9C251.425 330.696 253.043 330.352 254.247 331.109C255.451 331.865 255.795 333.481 255.038 334.685L252.01 339.395C251.494 340.186 250.668 340.599 249.808 340.599Z" fill="#1E243A"/>
<path d="M285.731 349.332C285.662 349.332 285.559 349.332 285.49 349.332C285.009 349.298 284.596 349.126 284.217 348.851C284.045 348.713 283.873 348.576 283.735 348.369C283.667 348.301 283.598 348.197 283.563 348.094L274.72 334.307C274.067 333.275 274.204 331.934 275.064 331.109C275.925 330.249 277.267 330.112 278.264 330.765C283.908 334.341 286.763 331.143 286.867 331.006C287.796 329.94 289.413 329.802 290.514 330.731C291.615 331.659 291.718 333.275 290.789 334.375C289.516 335.888 286.729 337.711 282.91 337.607L284.905 340.702C286.936 337.504 290.514 335.373 294.574 335.373C300.871 335.373 305.998 340.496 305.998 346.788C305.998 348.197 304.828 349.366 303.417 349.366L285.731 349.332ZM288.862 344.175H300.286C299.288 342.008 297.121 340.496 294.574 340.496C292.028 340.496 289.86 342.008 288.862 344.175Z" fill="#1E243A"/>
<path d="M292.166 340.599C291.306 340.599 290.48 340.186 289.998 339.395L286.97 334.685C286.213 333.481 286.557 331.9 287.761 331.109C288.966 330.352 290.549 330.696 291.34 331.9L294.368 336.61C295.125 337.814 294.781 339.395 293.577 340.186C293.129 340.461 292.648 340.599 292.166 340.599Z" fill="#1E243A"/>
<path d="M491.496 450.762C490.533 450.762 489.57 450.59 488.606 450.212L433.036 427.588C431.143 426.832 429.664 425.353 428.872 423.462C428.081 421.571 428.046 419.508 428.838 417.617L475.703 302.709C477.286 298.789 481.759 296.932 485.681 298.514L541.252 321.138C545.174 322.72 547.032 327.189 545.45 331.109L498.585 445.983C497.38 448.94 494.524 450.762 491.496 450.762ZM490.567 445.399C491.187 445.639 491.84 445.639 492.46 445.399C493.079 445.123 493.561 444.642 493.802 444.058L540.667 329.149C541.183 327.877 540.564 326.433 539.29 325.883L483.754 303.259C482.481 302.743 481.036 303.362 480.486 304.634L433.621 419.542C433.38 420.161 433.38 420.815 433.621 421.434C433.896 422.052 434.378 422.534 434.963 422.774L490.567 445.399Z" fill="#1E243A"/>
<path d="M432.623 427.107C432.313 427.107 431.969 427.038 431.659 426.9C428.494 425.594 426.98 421.984 428.253 418.82L451.582 361.641C452.133 360.335 453.612 359.682 454.954 360.232C456.262 360.782 456.915 362.26 456.365 363.601L433.036 420.78C432.829 421.296 433.07 421.915 433.621 422.121C434.928 422.671 435.582 424.15 435.031 425.491C434.584 426.488 433.621 427.107 432.623 427.107Z" fill="#1E243A"/>
<path d="M538.224 344.553C537.914 344.553 537.57 344.484 537.26 344.347L472.296 317.906C470.989 317.356 470.335 315.878 470.885 314.537C471.436 313.23 472.916 312.577 474.257 313.127L539.221 339.567C540.529 340.118 541.183 341.596 540.632 342.937C540.219 343.969 539.221 344.553 538.224 344.553Z" fill="#1E243A"/>
<path d="M500.546 435.668C500.236 435.668 499.892 435.599 499.582 435.462L435.066 409.193C433.758 408.643 433.104 407.165 433.655 405.824C434.205 404.517 435.685 403.864 437.027 404.414L501.544 430.683C502.851 431.233 503.505 432.711 502.954 434.052C502.541 435.084 501.578 435.668 500.546 435.668Z" fill="#1E243A"/>
<path d="M515.135 325.642C514.825 325.642 514.481 325.573 514.172 325.436L502.507 320.691C501.2 320.141 500.546 318.662 501.096 317.322C501.647 316.015 503.126 315.362 504.468 315.912L516.133 320.657C517.44 321.207 518.094 322.685 517.544 324.026C517.131 325.023 516.167 325.642 515.135 325.642Z" fill="#1E243A"/>
<path d="M468.27 434.602C467.857 434.602 467.41 434.533 466.997 434.361L461.354 432.058C460.528 431.714 459.875 431.061 459.531 430.235C459.186 429.41 459.186 428.482 459.531 427.657L460.563 425.112C460.907 424.287 461.561 423.634 462.386 423.29C463.212 422.946 464.141 422.946 464.967 423.29L470.61 425.594C471.436 425.938 472.09 426.591 472.434 427.416C472.778 428.241 472.778 429.17 472.434 429.995L471.402 432.539C470.851 433.811 469.612 434.602 468.27 434.602Z" fill="#1E243A"/>
<path d="M524.081 326.708C523.806 327.396 523.049 327.705 522.361 327.43C521.673 327.155 521.363 326.399 521.638 325.711C521.914 325.023 522.671 324.714 523.359 324.989C524.047 325.264 524.357 326.02 524.081 326.708Z" fill="#1E243A"/>
<path d="M492.941 375.188C492.46 375.188 491.944 375.051 491.496 374.741C490.326 373.95 490.017 372.334 490.808 371.165C491.427 370.237 492.047 369.24 492.597 368.208C495.04 363.739 495.144 361.332 494.834 360.575C494.799 360.472 494.731 360.335 494.318 360.232C493.01 359.888 492.838 359.819 491.427 363.773C490.877 365.32 490.258 367.039 489.328 368.862C489.26 369.068 489.156 369.24 489.053 369.446C488.95 369.652 488.812 369.824 488.675 369.962C486.713 372.506 483.789 374.294 480.864 374.672C478.524 374.982 476.322 374.432 474.636 373.056C473.535 372.162 473.363 370.546 474.257 369.446C475.152 368.346 476.769 368.174 477.87 369.068C478.455 369.549 479.212 369.721 480.176 369.584C481.793 369.377 483.513 368.277 484.614 366.799C485.475 365.183 486.06 363.532 486.61 362.054C487.883 358.512 489.604 353.664 495.694 355.28C497.552 355.762 498.929 356.931 499.617 358.581C500.821 361.435 500.03 365.492 497.174 370.718C496.52 371.887 495.832 373.022 495.144 374.088C494.593 374.81 493.802 375.188 492.941 375.188Z" fill="#1E243A"/>
<path d="M498.722 401.182C493.767 401.182 489.191 396.712 483.961 391.658C483.513 391.211 483.066 390.764 482.584 390.317C478.352 386.225 476.528 386.088 472.847 385.847C472.503 385.813 472.124 385.778 471.746 385.778C470.335 385.675 469.268 384.403 469.371 382.993C469.475 381.583 470.713 380.518 472.159 380.621C472.537 380.655 472.881 380.689 473.225 380.689C477.802 381.033 480.864 381.48 486.163 386.603C486.645 387.05 487.092 387.497 487.539 387.944C492.322 392.586 496.451 396.609 499.376 395.956C502.266 395.302 505.501 390.282 508.976 380.965C509.355 380.002 508.976 378.902 508.15 378.386C507.29 377.87 503.23 377.251 500.511 376.804C497.518 376.323 494.455 375.841 492.185 375.223C490.808 374.844 490.017 373.4 490.395 372.025C490.774 370.65 492.219 369.859 493.595 370.237C495.557 370.787 498.481 371.268 501.303 371.681C506.189 372.437 509.286 372.988 510.869 373.985C513.793 375.807 514.998 379.52 513.793 382.752C509.423 394.408 505.432 399.841 500.477 400.941C499.927 401.147 499.307 401.182 498.722 401.182Z" fill="#1E243A"/>
<path d="M469.922 389.629C469.578 389.629 469.199 389.56 468.855 389.423L457.397 384.781C456.709 384.506 456.158 383.956 455.849 383.268C455.573 382.581 455.539 381.824 455.814 381.137L463.694 360.782C464.004 360.06 464.52 359.51 465.208 359.2C465.896 358.891 466.653 358.891 467.376 359.166L478.834 363.807C479.522 364.082 480.073 364.633 480.382 365.32C480.658 366.008 480.692 366.764 480.417 367.452L472.537 387.807V387.841C472.262 388.529 471.711 389.079 471.023 389.388C470.679 389.56 470.3 389.629 469.922 389.629ZM461.457 380.861L468.58 383.75L474.774 367.727L467.651 364.839L461.457 380.861Z" fill="#1E243A"/>
<path d="M277.232 218.023H256.518C255.107 218.023 253.938 216.854 253.938 215.444C253.938 214.035 255.107 212.866 256.518 212.866H277.232C278.643 212.866 279.813 214.035 279.813 215.444C279.813 216.854 278.677 218.023 277.232 218.023Z" fill="#1E243A"/>
<path d="M286.247 232.189H269.697C268.286 232.189 267.116 231.02 267.116 229.61C267.116 228.201 268.286 227.031 269.697 227.031H286.247C287.658 227.031 288.828 228.201 288.828 229.61C288.828 231.02 287.658 232.189 286.247 232.189Z" fill="#1E243A"/>
<path d="M68.508 270.251C67.4757 270.251 66.4779 269.632 66.0994 268.601C65.5832 267.225 65.0671 265.85 64.5854 264.509C64.1036 263.168 64.8262 261.69 66.1682 261.208C67.5101 260.727 68.9897 261.449 69.4714 262.79C69.9532 264.096 70.4349 265.437 70.9166 266.778C71.4327 268.119 70.7446 269.598 69.437 270.113C69.1273 270.182 68.8177 270.251 68.508 270.251Z" fill="#1E243A"/>
<path d="M62.1425 249.931C60.9726 249.931 59.9403 249.14 59.6306 247.971C58.8736 244.911 58.1854 241.782 57.6005 238.619C57.3252 237.209 58.2543 235.868 59.665 235.593C61.0758 235.318 62.4177 236.246 62.693 237.656C63.2779 240.716 63.9317 243.776 64.6543 246.767C64.9984 248.143 64.1382 249.552 62.7618 249.896C62.5554 249.896 62.3489 249.931 62.1425 249.931ZM57.6693 223.868C56.3618 223.868 55.2607 222.871 55.123 221.565C54.8134 218.504 54.5037 215.307 54.2972 212.075C54.194 210.665 55.2607 209.427 56.7059 209.324C58.1166 209.221 59.3553 210.287 59.4586 211.731C59.665 214.929 59.9403 218.057 60.2844 221.049C60.422 222.458 59.4242 223.731 57.979 223.903C57.8758 223.868 57.7725 223.868 57.6693 223.868ZM56.1209 197.496C54.7101 197.496 53.5746 196.362 53.5402 194.952C53.4714 191.926 53.437 188.832 53.437 185.462C53.437 184.053 54.5725 182.884 56.0177 182.884C57.4284 182.884 58.5983 184.053 58.5983 185.462C58.5983 188.797 58.6328 191.858 58.7016 194.849C58.736 196.259 57.6005 197.462 56.1897 197.462C56.1553 197.496 56.1553 197.496 56.1209 197.496ZM56.5682 171.056C56.4994 171.056 56.465 171.056 56.3962 171.056C54.9854 170.953 53.8843 169.749 53.9876 168.305C54.194 165.142 54.4693 161.944 54.779 158.781C54.9166 157.371 56.1897 156.34 57.6005 156.477C59.0112 156.615 60.0435 157.887 59.9059 159.297C59.5962 162.391 59.3209 165.52 59.1145 168.615C59.0457 169.99 57.9102 171.056 56.5682 171.056Z" fill="#1E243A"/>
<path d="M59.6995 144.787C59.5618 144.787 59.3898 144.787 59.2522 144.753C57.8414 144.512 56.9124 143.171 57.1532 141.761C57.3941 140.352 57.6693 138.908 57.9446 137.498C58.2199 136.088 59.5618 135.194 60.9726 135.469C62.3834 135.744 63.278 137.085 63.0027 138.495C62.7275 139.905 62.4866 141.28 62.2457 142.69C62.0393 143.893 60.9382 144.787 59.6995 144.787Z" fill="#1E243A"/>
<path d="M425.225 396.368C424.365 396.368 423.539 395.956 423.023 395.165C422.266 393.961 422.644 392.38 423.848 391.623C425.053 390.867 426.257 390.11 427.427 389.32C428.631 388.529 430.214 388.873 431.006 390.076C431.797 391.279 431.453 392.861 430.249 393.652C429.044 394.443 427.806 395.233 426.601 395.99C426.154 396.231 425.672 396.368 425.225 396.368Z" fill="#1E243A"/>
<path d="M299.288 430.132C296.57 430.132 293.817 430.098 291.168 430.029C289.757 429.995 288.621 428.791 288.656 427.382C288.69 425.972 289.895 424.837 291.305 424.872C293.92 424.94 296.604 424.975 299.288 424.975H299.563C300.974 424.975 302.144 426.11 302.144 427.554C302.144 428.963 301.009 430.132 299.563 430.132H299.288ZM314.6 429.754C313.224 429.754 312.088 428.688 312.019 427.313C311.951 425.903 313.052 424.665 314.462 424.597C317.215 424.459 320.002 424.287 322.721 424.081C324.131 423.978 325.37 425.044 325.508 426.453C325.611 427.863 324.544 429.101 323.133 429.238C320.381 429.445 317.559 429.651 314.738 429.789C314.669 429.754 314.634 429.754 314.6 429.754ZM276.234 429.238C276.165 429.238 276.097 429.238 276.028 429.238C273.206 429.032 270.385 428.757 267.632 428.448C266.221 428.276 265.189 427.004 265.361 425.594C265.533 424.184 266.806 423.153 268.217 423.324C270.935 423.634 273.688 423.875 276.441 424.115C277.851 424.218 278.918 425.456 278.815 426.9C278.677 428.207 277.542 429.238 276.234 429.238ZM337.86 427.622C336.587 427.622 335.486 426.694 335.314 425.387C335.108 423.978 336.106 422.671 337.516 422.499C340.269 422.121 342.987 421.708 345.671 421.227C347.082 420.986 348.424 421.915 348.665 423.324C348.906 424.734 347.977 426.075 346.566 426.316C343.813 426.797 341.026 427.21 338.239 427.588C338.101 427.588 337.964 427.622 337.86 427.622ZM253.043 426.35C252.905 426.35 252.767 426.35 252.595 426.316C249.808 425.834 247.021 425.319 244.303 424.734C242.892 424.459 241.997 423.084 242.307 421.674C242.582 420.264 243.959 419.37 245.369 419.68C248.019 420.23 250.772 420.746 253.49 421.227C254.901 421.468 255.83 422.809 255.589 424.218C255.348 425.491 254.281 426.35 253.043 426.35ZM360.846 423.324C359.676 423.324 358.609 422.534 358.334 421.33C357.99 419.955 358.85 418.545 360.261 418.236C362.945 417.583 365.628 416.895 368.243 416.173C369.62 415.795 371.031 416.585 371.409 417.961C371.788 419.336 370.996 420.746 369.62 421.124C366.936 421.88 364.183 422.568 361.431 423.221C361.224 423.29 361.018 423.324 360.846 423.324ZM230.23 421.296C229.989 421.296 229.782 421.262 229.541 421.193C226.823 420.436 224.105 419.646 221.455 418.786C220.113 418.339 219.356 416.895 219.769 415.554C220.217 414.213 221.662 413.457 223.004 413.869C225.619 414.694 228.268 415.485 230.918 416.207C232.294 416.585 233.085 417.995 232.707 419.37C232.397 420.539 231.365 421.296 230.23 421.296ZM383.246 416.723C382.179 416.723 381.181 416.07 380.803 415.004C380.321 413.663 381.044 412.184 382.386 411.703C384.966 410.775 387.547 409.812 390.093 408.78C391.401 408.265 392.915 408.884 393.465 410.225C393.981 411.531 393.362 413.044 392.02 413.594C389.405 414.626 386.756 415.623 384.106 416.585C383.796 416.654 383.521 416.723 383.246 416.723ZM208.07 413.869C207.761 413.869 207.416 413.8 207.107 413.697C204.492 412.666 201.877 411.565 199.33 410.431C198.023 409.846 197.438 408.333 198.023 407.027C198.608 405.72 200.122 405.136 201.429 405.72C203.941 406.821 206.487 407.887 209.034 408.918C210.376 409.434 210.995 410.947 210.479 412.253C210.066 413.25 209.102 413.869 208.07 413.869ZM404.786 407.68C403.822 407.68 402.893 407.13 402.446 406.236C401.827 404.964 402.343 403.417 403.65 402.798C406.093 401.594 408.571 400.357 411.014 399.05C412.287 398.362 413.835 398.844 414.523 400.116C415.212 401.388 414.73 402.935 413.457 403.623C410.979 404.964 408.433 406.236 405.921 407.474C405.543 407.611 405.164 407.68 404.786 407.68ZM186.84 404.104C186.427 404.104 186.014 404.001 185.636 403.795C183.158 402.488 180.681 401.113 178.238 399.703C176.999 398.981 176.586 397.4 177.309 396.196C178.031 394.958 179.614 394.546 180.818 395.268C183.193 396.643 185.601 397.984 188.044 399.256C189.317 399.91 189.799 401.491 189.111 402.729C188.664 403.623 187.769 404.104 186.84 404.104Z" fill="#1E243A"/>
<path d="M166.745 392.07C166.264 392.07 165.747 391.933 165.3 391.623C164.096 390.832 162.892 390.007 161.722 389.148C160.552 388.323 160.276 386.707 161.102 385.572C161.928 384.403 163.545 384.128 164.681 384.953C165.851 385.778 167.021 386.569 168.19 387.36C169.36 388.151 169.67 389.767 168.879 390.936C168.397 391.658 167.606 392.07 166.745 392.07Z" fill="#1E243A"/>
</g>
<defs>
<clipPath id="clip0">
<rect width="546" height="452" fill="white"/>
</clipPath>
</defs>
</svg>
