<svg width="529" height="442" viewBox="0 0 529 442" fill="none" xmlns="http://www.w3.org/2000/svg">
<g clip-path="url(#clip0)">
<path d="M253.7 293.447H177.048L162.682 282.536L171.891 215.293L184.181 146.606H257.819L266.694 271.088L253.7 293.447Z" fill="#E1E1E5"/>
<path d="M222.39 144.592C231.13 98.0617 244.558 65.3297 253.098 66.8068C261.402 68.2504 262.206 99.4381 255.643 144.289L222.39 144.592Z" fill="#FCD118"/>
<path d="M201.192 143.45C209.899 101.15 222.088 70.0633 230.125 71.4397C233.708 72.044 235.919 79.094 236.756 90.4747L221.285 144.894L201.192 143.45Z" fill="#FCD118"/>
<path d="M301.152 35.5184L300.248 11.8506C300.214 7.01637 304.132 3.05495 308.921 3.02138L412.297 2.1821C417.119 2.14853 421.07 6.0428 421.104 10.8771L421.84 31.1542L301.152 35.5184Z" fill="#E1E1E5"/>
<path d="M422.075 202.704L422.811 225.331C422.845 230.165 418.96 234.126 414.138 234.16L361.295 234.63L360.893 204.986L352.99 201.394L422.075 202.704Z" fill="#E1E1E5"/>
<path d="M392.204 185.75H330.253C323.789 185.75 318.532 180.446 318.532 174V165.943C318.532 159.464 323.823 154.193 330.253 154.193H392.204C398.667 154.193 403.925 159.497 403.925 165.943V174C403.925 180.446 398.667 185.75 392.204 185.75Z" fill="#5ED45E"/>
<path d="M409.785 53.2441H312.337V73.3869H409.785V53.2441Z" fill="#4A91D6"/>
<path d="M312.136 218.18C308.151 248.361 291.206 271.021 268.301 287.773L268.401 294.118C273.19 295.596 279.151 294.723 284.408 292.44L299.88 275.889L324.493 221.336L312.136 218.18Z" fill="#FCD118"/>
<path d="M317.728 217.441C316.489 248.663 306.175 274.009 284.174 293.145L284.542 296.066C292.546 297.711 302.927 293.111 308.519 286.598C322.483 270.451 328.176 253.766 331.19 237.383C333.032 227.446 331.056 216.703 321.512 214.689L317.728 217.441Z" fill="#FCD118"/>
<path d="M292.412 210.022L294.99 220.362C280.825 249.435 261.202 269.208 233.943 278.306L233.039 281.227C239.334 286.061 250.352 285.961 257.953 282.1C260.833 280.656 264.785 279.582 267.363 277.971L283.236 262.192L298.306 230.4L292.412 210.022Z" fill="#FCD118"/>
<path d="M299.478 219.859C292.211 250.811 278.649 272.868 253.7 287.807L253.5 290.795C258.087 292.742 261.938 292.473 267.363 290.728L296.028 259.103L302.525 250.845L299.478 219.859Z" fill="#FCD118"/>
<path d="M129.83 189.644C130.065 212.003 143.895 206.43 144.029 220.765L144.699 285.222C144.732 288.613 142.02 291.365 138.671 291.399L107.16 291.735C103.777 291.768 101.031 289.049 100.998 285.692L100.328 221.235C102.605 208.847 111.312 212.238 112.417 189.846L129.83 189.644Z" fill="#4A91D6"/>
<path d="M142.522 237.383H103.141V263.065H142.522V237.383Z" fill="#5ED45E"/>
<path d="M415.645 322.251L421.372 282.435L502.846 285.793L525.517 393.221L514.902 412.357H467.551L415.645 322.251Z" fill="#4A91D6"/>
<path d="M488.212 300.665H455.83V317.047H488.212V300.665Z" fill="#FCD118"/>
<path d="M19.5566 189.208C17.8153 188.604 16.8776 186.69 17.4804 184.944C18.0832 183.199 19.992 182.259 21.7333 182.863C23.4747 183.467 24.4123 185.381 23.8095 187.126C23.3407 188.503 22.0347 189.376 20.6282 189.376C20.2934 189.409 19.925 189.342 19.5566 189.208ZM30.3061 186.421C29.3015 184.844 29.7703 182.762 31.3442 181.789C32.9181 180.815 34.9608 181.285 35.9654 182.829C36.9366 184.407 36.4678 186.455 34.9273 187.462C34.358 187.831 33.7553 187.966 33.1525 187.966C32.0474 187.966 30.9423 187.429 30.3061 186.421ZM8.60626 178.264C8.00349 176.518 8.90765 174.604 10.649 174C12.3903 173.396 14.2991 174.302 14.9019 176.048C15.5047 177.794 14.6005 179.707 12.8592 180.345C12.4908 180.479 12.1224 180.546 11.7541 180.546C10.3811 180.513 9.10857 179.64 8.60626 178.264ZM39.4481 177.29C37.6063 177.089 36.3003 175.41 36.5012 173.597C36.7022 171.751 38.343 170.441 40.1849 170.643C42.0267 170.844 43.3327 172.523 43.1317 174.336C42.9308 176.048 41.4909 177.324 39.8165 177.324C39.716 177.324 39.5821 177.29 39.4481 177.29ZM11.3857 167.487C9.81181 166.514 9.34298 164.432 10.3141 162.854C11.2852 161.276 13.3615 160.806 14.9354 161.78C16.5093 162.754 16.9781 164.835 16.007 166.413C15.3707 167.42 14.2656 167.991 13.1605 167.991C12.5578 167.991 11.9215 167.823 11.3857 167.487ZM33.3199 164.432C33.2865 164.432 33.2865 164.432 33.3199 164.432C33.2865 164.432 33.2865 164.432 33.3199 164.432C31.9804 163.089 31.9804 160.974 33.2865 159.665C34.5925 158.356 36.7022 158.356 38.0417 159.665C38.0417 159.665 38.0417 159.665 38.0751 159.699C39.3812 161.008 39.3812 163.123 38.0751 164.432C37.4054 165.104 36.5682 165.406 35.6975 165.406C34.8269 165.439 33.9562 165.104 33.3199 164.432ZM20.4608 158.289C20.2599 156.442 21.5659 154.797 23.4077 154.562C25.2495 154.361 26.8904 155.67 27.1248 157.516C27.3257 159.363 26.0197 161.008 24.1779 161.243C24.0439 161.243 23.91 161.276 23.8095 161.276C22.1017 161.276 20.6617 160.001 20.4608 158.289Z" fill="#1E243A"/>
<path d="M45.9446 366.095C44.2033 365.491 43.2656 363.577 43.8684 361.832C44.4712 360.086 46.3799 359.146 48.1213 359.75C49.8626 360.355 50.8003 362.268 50.1975 364.014C49.7287 365.39 48.4227 366.263 47.0497 366.263C46.6813 366.297 46.313 366.23 45.9446 366.095ZM56.6941 363.309C55.6894 361.731 56.1918 359.683 57.7322 358.676C59.3061 357.669 61.3488 358.172 62.3534 359.717C63.3246 361.295 62.8557 363.342 61.3153 364.35C60.7795 364.685 60.1433 364.853 59.5405 364.853C58.4019 364.853 57.3303 364.316 56.6941 363.309ZM34.9608 355.151C34.358 353.405 35.2621 351.492 37.0035 350.887C38.7448 350.283 40.6536 351.19 41.2899 352.935C41.8926 354.681 40.9885 356.595 39.2471 357.232C38.8788 357.367 38.5104 357.434 38.1421 357.434C36.7691 357.4 35.4631 356.527 34.9608 355.151ZM65.8026 354.177C63.9608 353.976 62.6548 352.297 62.8557 350.451C63.0567 348.605 64.731 347.295 66.5394 347.497C68.3812 347.698 69.6872 349.377 69.4862 351.223C69.2853 352.935 67.8454 354.211 66.171 354.211C66.0705 354.177 65.9366 354.177 65.8026 354.177ZM37.7402 344.375C36.1663 343.401 35.6975 341.32 36.6686 339.742C37.6397 338.164 39.716 337.694 41.2899 338.667C42.8638 339.641 43.3326 341.722 42.3615 343.3C41.7252 344.307 40.6536 344.878 39.515 344.878C38.9123 344.878 38.3095 344.71 37.7402 344.375ZM59.7079 341.353C59.7079 341.32 59.6744 341.32 59.6744 341.286C58.3684 339.977 58.3684 337.862 59.6744 336.552C60.9804 335.243 63.0902 335.243 64.3962 336.552L64.4296 336.586C65.7357 337.895 65.7357 340.01 64.4296 341.32C63.7599 341.957 62.9227 342.293 62.052 342.293C61.1814 342.293 60.3442 341.991 59.7079 341.353ZM46.8153 335.176C46.6144 333.33 47.9204 331.651 49.7622 331.45C51.604 331.248 53.2784 332.557 53.4793 334.404C53.6802 336.25 52.3742 337.895 50.5324 338.13C50.3984 338.13 50.2645 338.164 50.1305 338.164C48.4562 338.164 47.0162 336.888 46.8153 335.176Z" fill="#1E243A"/>
<path d="M289.096 356.225C287.355 355.621 286.417 353.707 287.02 351.962C287.623 350.216 289.532 349.276 291.273 349.88C293.014 350.485 293.952 352.398 293.349 354.144C292.88 355.52 291.574 356.393 290.168 356.393C289.833 356.393 289.465 356.326 289.096 356.225ZM299.846 353.405C298.841 351.827 299.31 349.78 300.884 348.772C302.458 347.765 304.534 348.235 305.505 349.813C306.476 351.391 306.008 353.439 304.467 354.446C303.931 354.782 303.295 354.95 302.692 354.95C301.587 354.983 300.482 354.412 299.846 353.405ZM278.146 345.247C277.543 343.502 278.447 341.588 280.189 340.95C281.93 340.346 283.839 341.252 284.475 342.998C285.078 344.744 284.174 346.657 282.432 347.262C282.064 347.396 281.696 347.463 281.327 347.463C279.921 347.497 278.648 346.657 278.146 345.247ZM308.988 344.274C307.146 344.072 305.84 342.394 306.041 340.547C306.242 338.701 307.916 337.392 309.758 337.593C311.6 337.795 312.906 339.473 312.705 341.32C312.504 343.032 311.064 344.307 309.39 344.307C309.256 344.307 309.122 344.307 308.988 344.274ZM280.926 334.471C279.352 333.497 278.883 331.416 279.854 329.838C280.825 328.26 282.901 327.79 284.475 328.764C286.049 329.737 286.518 331.819 285.547 333.397C284.911 334.404 283.805 334.975 282.7 334.975C282.098 334.975 281.461 334.807 280.926 334.471ZM302.86 331.45C302.826 331.416 302.826 331.416 302.86 331.45C301.52 330.107 301.52 327.992 302.826 326.682C304.132 325.373 306.242 325.373 307.581 326.682C307.581 326.682 307.581 326.682 307.615 326.716C308.921 328.025 308.921 330.14 307.615 331.45C306.945 332.087 306.108 332.423 305.237 332.423C304.367 332.423 303.496 332.087 302.86 331.45ZM290.001 325.306C289.8 323.46 291.106 321.781 292.947 321.58C294.789 321.378 296.43 322.687 296.665 324.534C296.865 326.38 295.559 328.025 293.718 328.26C293.584 328.26 293.45 328.294 293.316 328.294C291.641 328.26 290.201 326.985 290.001 325.306Z" fill="#1E243A"/>
<path d="M452.481 231.273C450.74 230.669 449.802 228.755 450.405 227.009C451.008 225.264 452.917 224.324 454.658 224.928C456.399 225.532 457.337 227.446 456.734 229.191C456.266 230.568 454.959 231.441 453.587 231.441C453.218 231.441 452.85 231.374 452.481 231.273ZM463.231 228.453C462.226 226.875 462.695 224.827 464.269 223.82C465.843 222.846 467.886 223.316 468.89 224.861C469.861 226.439 469.393 228.52 467.852 229.494C467.283 229.829 466.68 229.997 466.077 229.997C464.939 230.031 463.867 229.46 463.231 228.453ZM441.531 220.295C440.928 218.549 441.832 216.636 443.574 215.998C445.315 215.394 447.224 216.3 447.86 218.046C448.463 219.791 447.559 221.705 445.817 222.309C445.449 222.444 445.081 222.511 444.712 222.511C443.306 222.544 442 221.705 441.531 220.295ZM472.373 219.321C470.531 219.12 469.225 217.441 469.426 215.629C469.627 213.782 471.301 212.473 473.143 212.674C474.985 212.876 476.291 214.554 476.09 216.367C475.889 218.079 474.449 219.355 472.775 219.355C472.607 219.355 472.473 219.355 472.373 219.321ZM444.277 209.519C442.703 208.545 442.234 206.464 443.205 204.886C444.177 203.308 446.253 202.838 447.827 203.812C449.401 204.785 449.869 206.867 448.898 208.444C448.262 209.452 447.157 210.022 446.052 210.022C445.449 210.022 444.846 209.854 444.277 209.519ZM466.211 206.497C466.211 206.497 466.211 206.464 466.211 206.497C466.211 206.464 466.178 206.464 466.211 206.497C464.872 205.154 464.872 203.039 466.178 201.73C467.484 200.421 469.56 200.421 470.899 201.697C470.933 201.73 470.933 201.73 470.966 201.764C472.272 203.073 472.272 205.188 470.966 206.497C470.297 207.169 469.46 207.471 468.589 207.471C467.718 207.471 466.881 207.135 466.211 206.497ZM453.352 200.32C453.151 198.474 454.457 196.829 456.299 196.594C458.141 196.392 459.782 197.702 460.016 199.548C460.217 201.394 458.911 203.039 457.069 203.274C456.935 203.308 456.801 203.308 456.667 203.308C454.993 203.308 453.553 202.066 453.352 200.32Z" fill="#1E243A"/>
<path d="M120.856 50.8941C119.115 50.2898 118.177 48.3762 118.78 46.6305C119.383 44.8848 121.291 43.9448 123.033 44.5491C124.774 45.1534 125.712 47.0669 125.109 48.8126C124.64 50.1891 123.334 51.0619 121.928 51.0619C121.593 51.0619 121.224 50.9948 120.856 50.8941ZM131.605 48.0741C130.601 46.4962 131.103 44.4484 132.643 43.4412C134.217 42.4677 136.26 42.9377 137.265 44.4819C138.236 46.0598 137.767 48.1412 136.227 49.1148C135.657 49.4505 135.055 49.6184 134.452 49.6184C133.313 49.6519 132.242 49.0812 131.605 48.0741ZM109.906 39.9162C109.303 38.1705 110.207 36.257 111.948 35.6191C113.69 35.0148 115.598 35.9213 116.235 37.667C116.837 39.4127 115.933 41.3262 114.192 41.9641C113.824 42.0984 113.455 42.1655 113.087 42.1655C111.68 42.1655 110.374 41.3262 109.906 39.9162ZM140.747 38.9427C138.906 38.7413 137.6 37.0627 137.801 35.2498C138.001 33.4034 139.676 32.0941 141.484 32.2956C143.326 32.497 144.632 34.1756 144.431 35.9884C144.23 37.7005 142.79 38.9762 141.116 38.9762C140.982 38.9762 140.881 38.9762 140.747 38.9427ZM112.652 29.1399C111.078 28.1663 110.609 26.0849 111.58 24.507C112.551 22.9292 114.627 22.4592 116.201 23.4327C117.775 24.4063 118.244 26.4877 117.273 28.0656C116.637 29.0727 115.531 29.6434 114.426 29.6434C113.824 29.6434 113.221 29.5091 112.652 29.1399ZM134.619 26.152C134.586 26.152 134.586 26.1184 134.552 26.1184C133.246 24.8092 133.246 22.6942 134.552 21.3849C135.858 20.0756 137.968 20.0756 139.274 21.3849C139.274 21.3849 139.274 21.4185 139.307 21.4185C140.613 22.7277 140.613 24.8427 139.307 26.152C138.638 26.8234 137.801 27.1256 136.93 27.1256C136.126 27.092 135.256 26.7899 134.619 26.152ZM121.727 19.9749C121.526 18.1285 122.832 16.4835 124.673 16.2485C126.515 16.047 128.156 17.3563 128.391 19.2027C128.592 21.0492 127.286 22.6942 125.444 22.9292C125.31 22.9292 125.176 22.9627 125.075 22.9627C123.367 22.9292 121.928 21.687 121.727 19.9749Z" fill="#1E243A"/>
<path d="M473.579 105.38C471.837 104.776 470.9 102.863 471.502 101.117C472.105 99.3711 474.014 98.4311 475.755 99.0354C477.497 99.6397 478.434 101.553 477.832 103.299C477.363 104.675 476.057 105.548 474.684 105.548C474.282 105.582 473.913 105.515 473.579 105.38ZM484.328 102.594C483.323 101.016 483.826 98.9347 485.366 97.9611C486.94 96.9876 488.983 97.4576 489.987 99.0018C490.992 100.58 490.49 102.628 488.949 103.635C488.38 103.97 487.777 104.138 487.175 104.138C486.036 104.138 484.964 103.601 484.328 102.594ZM462.595 94.4361C461.992 92.6904 462.896 90.7769 464.638 90.1726C466.379 89.5683 468.288 90.4747 468.924 92.2204C469.527 93.9662 468.622 95.8797 466.881 96.5176C466.513 96.6519 466.144 96.719 465.776 96.719C464.37 96.6854 463.097 95.8126 462.595 94.4361ZM493.437 93.4626C491.595 93.2611 490.255 91.5826 490.49 89.7697C490.691 87.9233 492.365 86.614 494.173 86.8155C496.015 87.0169 497.321 88.6954 497.12 90.5083C496.919 92.2204 495.479 93.4961 493.805 93.4961C493.705 93.4961 493.571 93.4626 493.437 93.4626ZM465.374 83.6598C463.8 82.6862 463.332 80.6048 464.303 79.0269C465.274 77.4491 467.35 76.9791 468.924 77.9526C470.498 78.9262 470.967 81.0076 469.995 82.5855C469.359 83.5926 468.254 84.1633 467.149 84.1633C466.546 84.1633 465.91 83.9955 465.374 83.6598ZM487.308 80.6048C487.308 80.6048 487.275 80.6048 487.308 80.6048C487.275 80.6048 487.275 80.6048 487.308 80.6048C485.969 79.2619 485.969 77.1469 487.275 75.8376C488.581 74.5284 490.691 74.5284 491.997 75.8376C491.997 75.8376 491.997 75.8712 492.03 75.8712L492.064 75.9048C493.336 77.2141 493.336 79.3291 492.03 80.6383C491.394 81.3098 490.523 81.6119 489.653 81.6119C488.815 81.6119 487.945 81.2762 487.308 80.6048ZM474.449 74.4612C474.248 72.6148 475.554 70.9698 477.396 70.7348C479.238 70.5334 480.879 71.8427 481.113 73.6891C481.314 75.5355 480.008 77.2141 478.166 77.4155C478.032 77.4155 477.899 77.4491 477.798 77.4491C476.09 77.4491 474.65 76.1734 474.449 74.4612Z" fill="#1E243A"/>
<path d="M30.44 41.7962C29.067 41.7962 27.9285 40.6548 27.9285 39.2783V23.1641C27.9285 21.7877 29.067 20.6462 30.44 20.6462C31.813 20.6462 32.9516 21.7877 32.9516 23.1641V39.2783C32.9516 40.6883 31.813 41.7962 30.44 41.7962Z" fill="#1E243A"/>
<path d="M38.6443 33.907H22.5704C21.1974 33.907 20.0588 32.7656 20.0588 31.3892C20.0588 30.0128 21.1974 28.8713 22.5704 28.8713H38.6443C40.0173 28.8713 41.1559 30.0128 41.1559 31.3892C41.1559 32.7992 40.0173 33.907 38.6443 33.907Z" fill="#1E243A"/>
<path d="M318.766 400.472C317.393 400.472 316.255 399.331 316.255 397.954V381.84C316.255 380.464 317.393 379.322 318.766 379.322C320.139 379.322 321.278 380.464 321.278 381.84V397.954C321.278 399.331 320.139 400.472 318.766 400.472Z" fill="#1E243A"/>
<path d="M326.971 392.583H310.897C309.524 392.583 308.385 391.442 308.385 390.065C308.385 388.689 309.524 387.547 310.897 387.547H326.971C328.344 387.547 329.482 388.689 329.482 390.065C329.482 391.442 328.344 392.583 326.971 392.583Z" fill="#1E243A"/>
<path d="M446.989 33.3699C445.616 33.3699 444.478 32.2285 444.478 30.8521V14.7378C444.478 13.3614 445.616 12.22 446.989 12.22C448.362 12.22 449.501 13.3614 449.501 14.7378V30.8521C449.501 32.262 448.396 33.3699 446.989 33.3699Z" fill="#1E243A"/>
<path d="M455.194 25.4808H439.12C437.747 25.4808 436.608 24.3393 436.608 22.9629C436.608 21.5865 437.747 20.4451 439.12 20.4451H455.194C456.567 20.4451 457.705 21.5865 457.705 22.9629C457.705 24.3729 456.6 25.4808 455.194 25.4808Z" fill="#1E243A"/>
<path d="M509.108 180.983C507.735 180.983 506.597 179.842 506.597 178.465V162.351C506.597 160.974 507.735 159.833 509.108 159.833C510.481 159.833 511.62 160.974 511.62 162.351V178.465C511.62 179.875 510.481 180.983 509.108 180.983Z" fill="#1E243A"/>
<path d="M517.313 173.094H501.239C499.866 173.094 498.728 171.952 498.728 170.576C498.728 169.2 499.866 168.058 501.239 168.058H517.313C518.686 168.058 519.825 169.2 519.825 170.576C519.825 171.986 518.686 173.094 517.313 173.094Z" fill="#1E243A"/>
<path d="M25.283 425.751C23.9101 425.751 22.7715 424.61 22.7715 423.234V407.119C22.7715 405.743 23.9101 404.602 25.283 404.602C26.656 404.602 27.7946 405.743 27.7946 407.119V423.234C27.7946 424.644 26.656 425.751 25.283 425.751Z" fill="#1E243A"/>
<path d="M33.4873 417.862H17.4134C16.0404 417.862 14.9019 416.721 14.9019 415.344C14.9019 413.968 16.0404 412.827 17.4134 412.827H33.4873C34.8603 412.827 35.9989 413.968 35.9989 415.344C35.9989 416.721 34.8603 417.862 33.4873 417.862Z" fill="#1E243A"/>
<path d="M173.465 335.512C172.092 335.512 170.953 334.37 170.953 332.994V316.88C170.953 315.503 172.092 314.362 173.465 314.362C174.838 314.362 175.976 315.503 175.976 316.88V332.994C175.976 334.404 174.838 335.512 173.465 335.512Z" fill="#1E243A"/>
<path d="M181.669 327.622H165.595C164.222 327.622 163.083 326.481 163.083 325.105C163.083 323.728 164.222 322.587 165.595 322.587H181.669C183.042 322.587 184.181 323.728 184.181 325.105C184.181 326.481 183.042 327.622 181.669 327.622Z" fill="#1E243A"/>
<path d="M39.5152 261.319C38.1422 261.319 37.0037 260.178 37.0037 258.801V242.687C37.0037 241.311 38.1422 240.169 39.5152 240.169C40.8882 240.169 42.0268 241.311 42.0268 242.687V258.801C42.0268 260.211 40.8882 261.319 39.5152 261.319Z" fill="#1E243A"/>
<path d="M47.7195 253.43H31.6456C30.2726 253.43 29.134 252.288 29.134 250.912C29.134 249.536 30.2726 248.394 31.6456 248.394H47.7195C49.0925 248.394 50.2311 249.536 50.2311 250.912C50.2311 252.288 49.0925 253.43 47.7195 253.43Z" fill="#1E243A"/>
<path d="M253.031 297.912H183.41C182.037 297.912 180.899 296.77 180.899 295.394L180.664 145.196C180.664 144.524 180.932 143.887 181.401 143.417C181.87 142.947 182.506 142.678 183.176 142.678H258.79C260.13 142.678 261.201 143.719 261.302 145.028L268.167 259.439C268.234 260.815 267.196 262.024 265.823 262.091C264.45 262.192 263.244 261.118 263.177 259.741L256.48 147.714H185.721L185.922 292.876H253.031C254.403 292.876 255.542 294.018 255.542 295.394C255.542 296.77 254.437 297.912 253.031 297.912Z" fill="#1E243A"/>
<path d="M161.443 285.323C161.309 285.323 161.175 285.323 161.074 285.289C159.701 285.088 158.764 283.778 158.965 282.402L180.028 145.095C180.229 143.719 181.535 142.779 182.908 142.98C184.281 143.182 185.219 144.491 185.018 145.867L163.954 283.174C163.753 284.45 162.682 285.323 161.443 285.323Z" fill="#1E243A"/>
<path d="M180.698 297.777C180.296 297.777 179.894 297.677 179.526 297.475L158.027 286.028C156.788 285.39 156.353 283.845 156.989 282.637C157.625 281.395 159.165 280.925 160.371 281.596L181.87 293.044C183.109 293.682 183.544 295.226 182.908 296.435C182.473 297.274 181.602 297.777 180.698 297.777Z" fill="#1E243A"/>
<path d="M222.39 147.445C222.222 147.445 222.088 147.445 221.921 147.412C220.548 147.143 219.677 145.834 219.912 144.457C224.131 122.065 229.656 101.687 235.483 87.0839C241.913 71.0033 247.807 63.6512 253.533 64.6583C259.125 65.6319 261.972 73.5211 262.474 89.5347C262.909 103.534 261.402 122.737 258.154 145.028C257.953 146.404 256.681 147.344 255.308 147.143C253.935 146.942 252.997 145.666 253.198 144.289C256.413 122.3 257.886 103.4 257.484 89.7025C256.882 70.6004 252.897 69.6604 252.729 69.6604C251.992 69.5261 250.285 70.4997 248.007 73.6554C245.563 77.0461 242.85 82.3504 240.205 89.0311C234.479 103.332 229.054 123.375 224.901 145.464C224.633 146.606 223.595 147.445 222.39 147.445Z" fill="#1E243A"/>
<path d="M223.193 138.952C222.858 138.952 222.49 138.884 222.155 138.717C219.61 137.575 212.209 130.928 210.87 128.309C210.468 127.504 210.502 126.564 210.97 125.825C212.712 123.039 215.491 122.602 220.146 121.83C221.117 121.662 222.222 121.494 223.461 121.259C224.834 121.024 226.14 121.931 226.375 123.307C226.609 124.684 225.705 125.993 224.332 126.228C223.059 126.463 221.954 126.631 220.95 126.799C218.873 127.134 217.534 127.369 216.63 127.638C218.806 129.954 222.858 133.547 224.198 134.117C225.47 134.688 226.04 136.165 225.47 137.441C225.069 138.414 224.131 138.952 223.193 138.952Z" fill="#1E243A"/>
<path d="M230.125 110.718C229.79 110.718 229.422 110.651 229.087 110.483C226.073 109.107 220.548 101.62 219.543 99.6395C219.141 98.8338 219.175 97.8938 219.644 97.1552C221.385 94.3688 224.165 93.9324 228.819 93.1603C229.79 92.9924 230.896 92.8245 232.135 92.5895C233.508 92.3545 234.814 93.261 235.048 94.6374C235.282 96.0138 234.378 97.3231 233.005 97.5581C231.733 97.7931 230.628 97.961 229.623 98.1288C227.346 98.4981 225.939 98.7667 225.069 99.0352C226.877 101.587 230.058 105.347 231.13 105.884C232.403 106.455 232.938 107.932 232.369 109.207C232.001 110.181 231.063 110.718 230.125 110.718Z" fill="#1E243A"/>
<path d="M201.192 146.304C201.025 146.304 200.857 146.27 200.69 146.236C199.317 145.968 198.446 144.625 198.748 143.249C203.001 122.468 208.292 103.735 213.583 90.4409C216.262 83.7267 218.907 78.5231 221.385 74.9981C224.499 70.6003 227.513 68.7539 230.527 69.2574C235.483 70.0967 238.263 76.8781 239.234 90.6088C239.334 91.9852 238.296 93.1938 236.923 93.2945C235.55 93.3952 234.345 92.3545 234.244 90.9781C233.273 77.7174 230.628 74.3939 229.69 74.226C228.585 74.0246 224.365 76.9117 218.237 92.2874C213.047 105.313 207.856 123.777 203.637 144.256C203.402 145.498 202.331 146.304 201.192 146.304Z" fill="#1E243A"/>
<path d="M258.02 110.92C257.551 110.92 257.049 110.785 256.647 110.517C254.872 109.342 252.763 108.133 250.519 106.824C247.94 105.347 244.994 103.668 242.147 101.755C241.176 101.117 240.774 99.8747 241.176 98.7668C242.917 94.0668 250.452 91.0454 258.69 88.1247C259.996 87.6547 261.436 88.3597 261.905 89.669C262.374 90.9783 261.67 92.4218 260.364 92.8918C257.35 93.9661 250.151 96.5175 247.137 98.9682C249.113 100.21 251.088 101.318 252.997 102.426C255.308 103.769 257.484 105.011 259.393 106.287C260.565 107.059 260.867 108.603 260.096 109.778C259.661 110.517 258.857 110.92 258.02 110.92Z" fill="#1E243A"/>
<path d="M255.977 139.757C255.642 139.757 255.308 139.69 255.006 139.556L254.136 139.187C249.246 137.105 241.846 133.983 237.693 129.552C236.956 128.746 236.789 127.537 237.358 126.597C239.066 123.61 244.793 121.36 257.149 118.842C258.522 118.574 259.828 119.447 260.096 120.823C260.364 122.2 259.493 123.509 258.12 123.777C249.414 125.557 245.295 126.967 243.353 127.94C247.003 130.76 252.327 132.976 256.044 134.554L256.915 134.923C258.187 135.46 258.79 136.937 258.254 138.213C257.886 139.187 256.948 139.757 255.977 139.757Z" fill="#1E243A"/>
<path d="M235.985 165.171H211.305C209.932 165.171 208.794 164.03 208.794 162.653C208.794 161.277 209.932 160.135 211.305 160.135H235.985C237.358 160.135 238.497 161.277 238.497 162.653C238.497 164.063 237.392 165.171 235.985 165.171Z" fill="#1E243A"/>
<path d="M273.592 297.677C271.482 297.677 269.506 297.408 267.664 296.838L265.923 296.301L265.789 286.834L266.827 286.061C291.708 267.832 306.141 245.004 309.658 218.18C309.825 216.804 311.097 215.83 312.47 215.998C313.843 216.166 314.815 217.442 314.647 218.818C310.964 246.682 296.229 270.417 270.846 289.351L270.879 292.44C274.563 293.044 279.017 292.373 283.403 290.459C284.676 289.889 286.149 290.493 286.719 291.768C287.288 293.044 286.685 294.521 285.413 295.092C281.428 296.804 277.342 297.677 273.592 297.677Z" fill="#1E243A"/>
<path d="M317.661 221.806C316.891 221.806 316.154 221.47 315.652 220.832C314.747 219.624 314.044 219.221 311.7 218.482L310.829 218.214L304.467 208.109C303.73 206.934 304.065 205.389 305.237 204.651C306.409 203.912 307.95 204.248 308.686 205.423L314.078 213.984C316.522 214.823 318.063 215.696 319.637 217.777C320.474 218.885 320.273 220.463 319.168 221.302C318.732 221.638 318.197 221.806 317.661 221.806Z" fill="#1E243A"/>
<path d="M287.924 299.288C286.585 299.288 285.279 299.154 284.04 298.919L282.265 298.55L281.495 292.507L282.499 291.634C303.228 273.606 313.944 249.435 315.183 217.744C315.25 216.401 316.355 215.327 317.695 215.327C317.728 215.327 317.761 215.327 317.795 215.327C318.096 215.327 318.364 215.394 318.599 215.494L312.772 207.907C311.935 206.799 312.102 205.222 313.207 204.382C314.312 203.543 315.886 203.711 316.723 204.819L322.952 212.809C331.893 215.259 336.079 225.096 333.668 238.189C329.85 258.835 322.684 274.379 310.428 288.613C304.835 295.092 295.76 299.288 287.924 299.288ZM287.154 294.219C293.651 294.555 301.788 290.929 306.61 285.323C318.264 271.794 325.095 256.989 328.712 237.282C329.248 234.361 331.424 219.691 320.976 217.509L320.173 217.341C320.206 217.509 320.206 217.71 320.206 217.878C318.967 250.375 308.117 275.352 287.154 294.219Z" fill="#1E243A"/>
<path d="M245.697 287.807C240.305 287.807 235.148 286.363 231.498 283.577L230.092 282.503L231.9 276.661L233.139 276.258C258.589 267.765 277.945 249.502 292.311 220.429L289.967 210.996C289.632 209.653 290.436 208.277 291.809 207.941C293.148 207.605 294.521 208.411 294.856 209.787L297.669 221.034L297.267 221.873C282.466 252.121 262.44 271.357 236.086 280.556C241.544 283.611 250.251 283.543 256.814 280.186C258.154 279.515 259.661 278.944 261.101 278.373C262.876 277.702 264.717 276.997 265.99 276.191C267.162 275.453 268.702 275.788 269.439 276.963C270.176 278.138 269.841 279.683 268.669 280.421C266.995 281.496 264.918 282.301 262.909 283.073C261.503 283.611 260.197 284.114 259.058 284.685C254.973 286.766 250.251 287.807 245.697 287.807Z" fill="#1E243A"/>
<path d="M259.828 294.991C257.484 294.991 255.073 294.521 252.495 293.447L250.854 292.742L251.289 286.632L252.428 285.961C275.802 271.961 289.565 251.516 297.066 219.624C297.368 218.281 298.741 217.442 300.08 217.744C301.42 218.046 302.257 219.422 301.955 220.765C298.138 237.047 292.713 250.409 285.346 261.554C277.845 272.901 268.368 282.033 256.346 289.486C259.36 290.358 262.273 290.09 266.626 288.68C267.932 288.243 269.372 288.982 269.808 290.291C270.243 291.601 269.506 293.044 268.2 293.481C265.287 294.353 262.574 294.991 259.828 294.991Z" fill="#1E243A"/>
<path d="M107.093 294.588C102.371 294.588 98.5199 290.761 98.4864 286.061L97.8167 221.604C97.8167 221.436 97.8167 221.268 97.8501 221.134C98.9217 215.326 101.634 212.473 104.28 209.753C107.729 206.128 111.312 202.401 111.948 190.081C112.015 188.704 113.221 187.63 114.594 187.697C115.967 187.764 117.038 188.939 116.971 190.349C116.268 204.55 111.647 209.351 107.93 213.245C105.552 215.729 103.677 217.676 102.873 221.839L103.543 286.028C103.576 288.008 105.184 289.62 107.16 289.586L138.671 289.25C140.647 289.217 142.254 287.605 142.221 285.625L141.551 221.168C141.484 215.998 139.441 214.353 136.327 211.868C132.108 208.511 126.817 204.315 126.683 190.718C126.683 189.342 127.788 188.201 129.161 188.167H129.194C130.567 188.167 131.706 189.275 131.706 190.651C131.806 201.864 135.523 204.818 139.441 207.907C142.757 210.526 146.507 213.513 146.574 221.101L147.244 285.558C147.277 290.325 143.46 294.219 138.738 294.286L107.227 294.622C107.16 294.588 107.126 294.588 107.093 294.588Z" fill="#1E243A"/>
<path d="M121.66 240.908C115.699 240.908 109.604 240.136 100.094 238.625C98.7209 238.39 97.7832 237.114 98.0176 235.738C98.252 234.361 99.5245 233.421 100.898 233.656C120.153 236.711 124.573 236.678 143.761 233.22C145.134 232.985 146.44 233.891 146.675 235.234C146.909 236.611 146.005 237.92 144.666 238.155C134.385 240.001 128.123 240.908 121.66 240.908Z" fill="#1E243A"/>
<path d="M121.961 267.966C116 267.966 109.906 267.194 100.395 265.683C99.0224 265.448 98.0847 264.173 98.3191 262.796C98.5536 261.42 99.8261 260.48 101.199 260.715C120.454 263.77 124.875 263.736 144.063 260.278C145.436 260.043 146.742 260.95 146.976 262.293C147.211 263.669 146.307 264.978 144.967 265.213C134.653 267.06 128.391 267.966 121.961 267.966Z" fill="#1E243A"/>
<path d="M128.223 276.93C126.85 276.93 125.712 275.822 125.712 274.445L125.611 265.851C125.611 264.475 126.716 263.333 128.089 263.3H128.123C129.496 263.3 130.634 264.408 130.634 265.784L130.735 274.378C130.735 275.788 129.63 276.93 128.223 276.93Z" fill="#1E243A"/>
<path d="M127.821 239.531C126.448 239.531 125.31 238.423 125.31 237.047L125.109 218.314C125.109 216.938 126.214 215.796 127.587 215.763H127.62C128.993 215.763 130.132 216.871 130.132 218.247L130.333 236.98C130.333 238.356 129.228 239.498 127.821 239.531C127.855 239.531 127.821 239.531 127.821 239.531Z" fill="#1E243A"/>
<path d="M121.459 193.438C112.116 193.438 105.586 189.812 105.586 184.642C105.586 179.472 112.116 175.846 121.459 175.846C130.802 175.846 137.332 179.472 137.332 184.642C137.332 189.846 130.802 193.438 121.459 193.438ZM121.459 180.916C114.426 180.916 110.609 183.4 110.609 184.676C110.609 185.951 114.426 188.436 121.459 188.436C128.491 188.436 132.309 185.951 132.309 184.676C132.309 183.4 128.491 180.916 121.459 180.916Z" fill="#1E243A"/>
<path d="M514.902 415.21H467.584C466.211 415.21 465.073 414.069 465.073 412.692C465.073 411.316 466.211 410.174 467.584 410.174H512.022L494.006 285.289H423.582L418.123 322.956C417.922 324.332 416.65 325.272 415.277 325.071C413.904 324.87 412.966 323.594 413.167 322.217L418.927 282.402C419.094 281.16 420.166 280.253 421.405 280.253H496.182C497.421 280.253 498.493 281.16 498.66 282.402L517.413 412.323C517.514 413.061 517.313 413.766 516.811 414.337C516.308 414.874 515.605 415.21 514.902 415.21Z" fill="#1E243A"/>
<path d="M514.868 415.21C514.399 415.21 513.897 415.076 513.462 414.774C512.323 414.001 512.022 412.424 512.792 411.282L523.809 394.899L502.679 287.169L495.479 285.188C494.14 284.819 493.336 283.443 493.704 282.1C494.073 280.757 495.446 279.951 496.785 280.32L505.492 282.704C506.396 282.973 507.099 283.711 507.3 284.651L528.933 394.966C529.067 395.638 528.933 396.309 528.565 396.846L516.978 414.102C516.476 414.807 515.705 415.21 514.868 415.21Z" fill="#1E243A"/>
<path d="M482.453 284.349C481.08 284.349 479.941 283.208 479.941 281.831C479.941 271.827 471.837 263.703 461.858 263.703C451.879 263.703 443.775 271.827 443.775 281.831C443.775 283.208 442.636 284.349 441.263 284.349C439.89 284.349 438.751 283.208 438.751 281.831C438.751 269.074 449.099 258.667 461.858 258.667C474.616 258.667 484.964 269.041 484.964 281.831C484.964 283.208 483.859 284.349 482.453 284.349Z" fill="#1E243A"/>
<path d="M488.212 319.901H455.83C454.457 319.901 453.318 318.76 453.318 317.383V301C453.318 299.624 454.457 298.483 455.83 298.483H488.212C489.585 298.483 490.724 299.624 490.724 301V317.383C490.724 318.793 489.585 319.901 488.212 319.901ZM458.341 314.865H485.701V303.518H458.341V314.865Z" fill="#1E243A"/>
<path d="M458.643 439.516L358.75 439.146L375.494 323.09H448.999L470.531 423.939L458.643 439.516Z" fill="#5ED45E"/>
<path d="M433.394 381.135H385.239V405.34H433.394V381.135Z" fill="#4A91D6"/>
<path d="M459.045 442H358.784C358.047 442 357.377 441.698 356.875 441.127C356.406 440.59 356.172 439.852 356.272 439.113L373.016 323.057C373.183 321.815 374.255 320.908 375.494 320.908H442.268C443.507 320.908 444.578 321.815 444.746 323.057L461.489 439.113C461.59 439.852 461.389 440.557 460.887 441.127C460.384 441.698 459.748 442 459.045 442ZM361.663 436.964H456.131L440.124 325.944H377.704L361.663 436.964Z" fill="#1E243A"/>
<path d="M459.011 442C458.542 442 458.04 441.866 457.605 441.564C456.466 440.791 456.165 439.214 456.935 438.072L466.713 423.536L447.894 327.589L441.631 325.877C440.292 325.507 439.488 324.131 439.857 322.788C440.225 321.445 441.598 320.64 442.937 321.009L450.706 323.124C451.611 323.392 452.314 324.131 452.515 325.071L471.837 423.603C471.971 424.274 471.837 424.946 471.469 425.483L461.121 440.892C460.619 441.597 459.848 442 459.011 442Z" fill="#1E243A"/>
<path d="M430.078 325.105C428.705 325.105 427.567 323.963 427.567 322.587C427.567 313.825 420.434 306.674 411.694 306.674C402.954 306.674 395.821 313.825 395.821 322.587C395.821 323.963 394.682 325.105 393.309 325.105C391.936 325.105 390.798 323.963 390.798 322.587C390.798 311.038 400.174 301.638 411.694 301.638C423.213 301.638 432.59 311.038 432.59 322.587C432.59 323.963 431.451 325.105 430.078 325.105Z" fill="#1E243A"/>
<path d="M433.393 408.194H385.239C383.866 408.194 382.727 407.052 382.727 405.676V381.471C382.727 380.095 383.866 378.953 385.239 378.953H433.393C434.766 378.953 435.905 380.095 435.905 381.471V405.676C435.905 407.052 434.766 408.194 433.393 408.194ZM387.75 403.158H430.882V383.989H387.75V403.158Z" fill="#1E243A"/>
<path d="M128.089 361.328C127.587 361.328 127.118 361.194 126.683 360.892C114.862 352.801 108.767 343.569 108.499 333.43C108.097 315.705 125.812 302.108 126.582 301.537C127.687 300.698 129.261 300.933 130.098 302.041C130.935 303.149 130.701 304.727 129.596 305.566C129.429 305.7 113.154 318.222 113.522 333.363C113.723 341.789 119.114 349.679 129.496 356.796C130.634 357.568 130.935 359.146 130.165 360.287C129.663 360.959 128.859 361.328 128.089 361.328Z" fill="#1E243A"/>
<path d="M69.1513 302.276C68.582 302.276 68.0127 302.075 67.5104 301.672C65.4677 299.926 62.3534 295.797 63.8938 291.5C66.1709 285.02 77.1548 281.697 98.4862 281.126C99.8592 281.093 101.031 282.167 101.065 283.577C101.098 284.953 100.027 286.128 98.6202 286.162C72.8349 286.9 69.1513 291.735 68.6155 293.178C67.9792 294.991 70.1559 297.341 70.7587 297.845C71.8303 298.751 71.9307 300.329 71.0266 301.403C70.5578 301.974 69.8545 302.276 69.1513 302.276Z" fill="#1E243A"/>
<path d="M361.262 289.62H310.964C309.591 289.62 308.452 288.478 308.452 287.102C308.452 285.725 309.591 284.584 310.964 284.584H361.262C362.635 284.584 363.773 285.725 363.773 287.102C363.773 288.478 362.668 289.62 361.262 289.62Z" fill="#1E243A"/>
<path d="M347.532 306.036H78.5947C69.6201 306.036 62.3198 298.717 62.3198 289.72V171.079C62.3198 166.312 64.396 161.78 68.0127 158.691C71.6293 155.603 76.418 154.226 81.1397 154.999L350.077 197.97C358.013 199.246 363.773 205.993 363.773 214.05V289.72C363.773 298.717 356.473 306.036 347.532 306.036ZM78.5947 159.833C75.9492 159.833 73.3707 160.773 71.2944 162.519C68.7829 164.667 67.3429 167.789 67.3429 171.079V289.72C67.3429 295.931 72.3995 301 78.5947 301H347.532C353.727 301 358.784 295.931 358.784 289.72V214.05C358.784 208.478 354.799 203.811 349.307 202.938L80.3695 159.967C79.7667 159.866 79.164 159.833 78.5947 159.833Z" fill="#1E243A"/>
<path d="M115.33 377.476C113.957 377.476 112.819 376.334 112.819 374.958V359.784C112.819 358.407 113.957 357.266 115.33 357.266C116.703 357.266 117.842 358.407 117.842 359.784V374.958C117.842 376.368 116.703 377.476 115.33 377.476Z" fill="#1E243A"/>
<path d="M219.744 377.476C218.371 377.476 217.232 376.334 217.232 374.958V359.784C217.232 358.407 218.371 357.266 219.744 357.266C221.117 357.266 222.256 358.407 222.256 359.784V374.958C222.256 376.368 221.15 377.476 219.744 377.476Z" fill="#1E243A"/>
<path d="M261.335 361.764H106.423C105.92 361.764 105.418 361.597 105.016 361.328C93.2287 353.271 87.134 344.039 86.8326 333.833C86.3638 315.94 104.146 302.108 104.882 301.504C105.987 300.665 107.561 300.866 108.398 301.974C109.236 303.082 109.035 304.66 107.93 305.499C107.762 305.633 91.4204 318.39 91.8557 333.699C92.0901 341.991 97.2472 349.746 107.193 356.695H261.335C262.708 356.695 263.847 357.837 263.847 359.213C263.847 360.589 262.742 361.764 261.335 361.764Z" fill="#1E243A"/>
<path d="M123.298 394.846C127.836 390.296 127.836 382.92 123.298 378.371C118.76 373.822 111.403 373.822 106.865 378.371C102.327 382.92 102.327 390.296 106.865 394.846C111.403 399.395 118.76 399.395 123.298 394.846Z" fill="#E1E1E5"/>
<path d="M227.714 394.854C232.252 390.305 232.252 382.929 227.714 378.38C223.176 373.83 215.819 373.83 211.281 378.38C206.743 382.929 206.743 390.305 211.281 394.854C215.819 399.403 223.176 399.403 227.714 394.854Z" fill="#E1E1E5"/>
<path d="M115.096 401.144C107.293 401.144 100.964 394.799 100.964 386.977C100.964 379.154 107.293 372.809 115.096 372.809C122.899 372.809 129.228 379.154 129.228 386.977C129.228 394.765 122.899 401.144 115.096 401.144ZM115.096 377.812C110.073 377.812 105.987 381.907 105.987 386.943C105.987 391.979 110.073 396.074 115.096 396.074C120.119 396.074 124.205 391.979 124.205 386.943C124.205 381.907 120.119 377.812 115.096 377.812Z" fill="#1E243A"/>
<path d="M219.51 401.144C211.707 401.144 205.378 394.799 205.378 386.977C205.378 379.154 211.707 372.809 219.51 372.809C227.312 372.809 233.641 379.154 233.641 386.977C233.641 394.765 227.312 401.144 219.51 401.144ZM219.51 377.812C214.487 377.812 210.401 381.907 210.401 386.943C210.401 391.979 214.487 396.074 219.51 396.074C224.533 396.074 228.618 391.979 228.618 386.943C228.618 381.907 224.533 377.812 219.51 377.812Z" fill="#1E243A"/>
<path d="M54.9966 131.197C57.0507 129.356 47.0326 114.766 32.6207 98.6099C18.2087 82.4539 4.86027 70.8497 2.80618 72.6912C0.752085 74.5328 10.7701 89.1227 25.1821 105.279C39.5941 121.435 52.9425 133.039 54.9966 131.197Z" fill="#5ED45E"/>
<path d="M54.4838 134.252C52.1062 134.252 48.657 132.069 43.0981 127.202C37.4053 122.233 30.3729 115.149 23.3406 107.26C16.3082 99.3709 10.0461 91.5824 5.75969 85.3381C0.0668325 77.046 -1.20569 73.1853 1.13843 71.1039C3.44906 69.0225 7.13267 70.7011 14.7343 77.3146C20.4272 82.2832 27.4595 89.3667 34.4919 97.256C41.5242 105.145 47.7863 112.934 52.0727 119.178C57.7656 127.47 59.0381 131.331 56.694 133.412C56.0577 133.983 55.321 134.252 54.4838 134.252ZM6.5299 77.2139C7.43405 78.8253 8.84052 81.0746 11.1177 84.2639C15.2031 90.0046 20.896 96.9874 27.0577 103.937C33.2528 110.886 39.5484 117.298 44.7725 122.032C47.6859 124.65 49.7621 126.295 51.2355 127.369C50.3314 125.758 48.9249 123.509 46.6478 120.319C42.5623 114.579 36.8695 107.596 30.7078 100.647C24.5126 93.6974 18.217 87.2853 12.993 82.5517C10.113 79.9332 8.00334 78.2546 6.5299 77.2139Z" fill="#1E243A"/>
<path d="M73.7391 157.651C73.0023 157.651 72.2656 157.315 71.7633 156.677L53.0104 132.741C52.1397 131.633 52.3406 130.055 53.4457 129.216C54.5508 128.343 56.1247 128.544 56.9619 129.652L75.7148 153.589C76.5855 154.696 76.3846 156.274 75.2795 157.114C74.8107 157.483 74.2749 157.651 73.7391 157.651Z" fill="#1E243A"/>
<path d="M79.3651 306.036C77.9921 306.036 76.8535 304.895 76.8535 303.518V158.859C76.8535 157.483 77.9921 156.342 79.3651 156.342C80.738 156.342 81.8766 157.483 81.8766 158.859V303.518C81.8766 304.928 80.738 306.036 79.3651 306.036Z" fill="#1E243A"/>
<path d="M107.528 306.036C106.155 306.036 105.016 304.895 105.016 303.518V162.317C105.016 160.941 106.155 159.799 107.528 159.799C108.901 159.799 110.039 160.941 110.039 162.317V303.518C110.039 304.928 108.901 306.036 107.528 306.036Z" fill="#1E243A"/>
<path d="M135.691 306.036C134.318 306.036 133.179 304.895 133.179 303.518V166.681C133.179 165.305 134.318 164.164 135.691 164.164C137.064 164.164 138.202 165.305 138.202 166.681V303.518C138.202 304.928 137.064 306.036 135.691 306.036Z" fill="#1E243A"/>
<path d="M159.534 306.036C158.161 306.036 157.022 304.895 157.022 303.518V171.012C157.022 169.636 158.161 168.494 159.534 168.494C160.907 168.494 162.046 169.636 162.046 171.012V303.518C162.046 304.928 160.907 306.036 159.534 306.036Z" fill="#1E243A"/>
<path d="M183.343 306.036C181.97 306.036 180.832 304.895 180.832 303.518V174.504C180.832 173.127 181.97 171.986 183.343 171.986C184.716 171.986 185.855 173.127 185.855 174.504V303.552C185.855 304.928 184.75 306.036 183.343 306.036Z" fill="#1E243A"/>
<path d="M206.751 306.036C205.378 306.036 204.24 304.895 204.24 303.518V178.398C204.24 177.022 205.378 175.88 206.751 175.88C208.124 175.88 209.263 177.022 209.263 178.398V303.518C209.263 304.928 208.124 306.036 206.751 306.036Z" fill="#1E243A"/>
<path d="M230.594 306.036C229.221 306.036 228.082 304.895 228.082 303.518V182.292C228.082 180.916 229.221 179.774 230.594 179.774C231.967 179.774 233.105 180.916 233.105 182.292V303.518C233.105 304.928 231.967 306.036 230.594 306.036Z" fill="#1E243A"/>
<path d="M254.404 306.036C253.031 306.036 251.892 304.895 251.892 303.518V185.784C251.892 184.407 253.031 183.266 254.404 183.266C255.777 183.266 256.915 184.407 256.915 185.784V303.518C256.915 304.928 255.81 306.036 254.404 306.036Z" fill="#1E243A"/>
<path d="M278.247 306.036C276.874 306.036 275.735 304.895 275.735 303.518V189.241C275.735 187.865 276.874 186.724 278.247 186.724C279.62 186.724 280.758 187.865 280.758 189.241V303.518C280.758 304.928 279.62 306.036 278.247 306.036Z" fill="#1E243A"/>
<path d="M302.089 306.036C300.716 306.036 299.578 304.895 299.578 303.518V193.606C299.578 192.229 300.716 191.088 302.089 191.088C303.462 191.088 304.601 192.229 304.601 193.606V303.518C304.601 304.928 303.462 306.036 302.089 306.036Z" fill="#1E243A"/>
<path d="M325.899 306.036C324.526 306.036 323.388 304.895 323.388 303.518V197.5C323.388 196.124 324.526 194.982 325.899 194.982C327.272 194.982 328.411 196.124 328.411 197.5V303.518C328.411 304.928 327.306 306.036 325.899 306.036Z" fill="#1E243A"/>
<path d="M349.742 306.036C348.369 306.036 347.231 304.895 347.231 303.518V201.428C347.231 200.051 348.369 198.91 349.742 198.91C351.115 198.91 352.254 200.051 352.254 201.428V303.518C352.254 304.928 351.115 306.036 349.742 306.036Z" fill="#1E243A"/>
<path d="M157.725 286.498H146.373C145 286.498 143.862 285.356 143.862 283.98C143.862 282.603 145 281.462 146.373 281.462H157.725C159.098 281.462 160.237 282.603 160.237 283.98C160.237 285.356 159.098 286.498 157.725 286.498Z" fill="#1E243A"/>
<path d="M361.295 237.517C359.922 237.517 358.784 236.409 358.784 235.033C358.784 233.656 359.889 232.515 361.262 232.481L414.105 232.011C417.554 231.978 420.333 229.158 420.3 225.7L418.592 11.2464C418.558 7.78855 415.745 5.0357 412.296 5.0357L308.921 5.87498C307.28 5.87498 305.706 6.54641 304.534 7.75498C303.362 8.96354 302.726 10.5078 302.726 12.1864L304.434 191.256C304.434 192.632 303.328 193.774 301.956 193.807C301.956 193.807 301.955 193.807 301.922 193.807C300.549 193.807 299.41 192.699 299.41 191.323L297.703 12.2535C297.669 9.23211 298.841 6.41212 300.951 4.26356C303.061 2.11499 305.874 0.906426 308.887 0.872854L412.296 0C412.33 0 412.363 0 412.397 0C418.558 0 423.615 5.00213 423.649 11.1793L425.356 225.633C425.39 231.844 420.4 236.946 414.205 237.014L361.295 237.517C361.329 237.517 361.329 237.517 361.295 237.517Z" fill="#1E243A"/>
<path d="M300.449 36.8613C299.076 36.8613 297.937 35.7535 297.937 34.377C297.937 33.0006 299.042 31.8592 300.415 31.8256L421.271 30.8521C421.271 30.8521 421.271 30.8521 421.304 30.8521C422.677 30.8521 423.816 31.9599 423.816 33.3363C423.816 34.7128 422.711 35.8542 421.338 35.8878L300.449 36.8613Z" fill="#1E243A"/>
<path d="M358.047 206.833C356.674 206.833 355.535 205.725 355.535 204.349C355.535 202.972 356.64 201.831 358.013 201.797L421.807 201.26C421.807 201.26 421.807 201.26 421.84 201.26C423.213 201.26 424.352 202.368 424.352 203.745C424.352 205.121 423.247 206.262 421.874 206.296L358.047 206.833C358.08 206.833 358.08 206.833 358.047 206.833Z" fill="#1E243A"/>
<path d="M350.378 21.1835C349.005 21.1835 347.867 20.0757 347.867 18.6993C347.867 17.3228 348.972 16.1814 350.345 16.1478L372.011 15.98C372.011 15.98 372.011 15.98 372.045 15.98C373.417 15.98 374.556 17.0878 374.556 18.4643C374.556 19.8407 373.451 20.9821 372.078 21.0157L350.378 21.1835Z" fill="#1E243A"/>
<path d="M362.166 226.237C361.027 226.237 360.324 225.767 359.922 225.364C358.984 224.424 358.984 223.249 358.984 222.544L358.951 217.509C358.951 216.804 358.917 215.629 359.855 214.655C360.257 214.252 360.994 213.749 362.132 213.715L369.265 213.614H369.298C371.442 213.614 373.149 215.326 373.183 217.475L373.216 222.242C373.216 224.391 371.509 226.136 369.365 226.17L362.166 226.237C362.199 226.237 362.166 226.237 362.166 226.237ZM363.94 218.717L363.974 221.168L368.126 221.134L368.093 218.684L363.94 218.717Z" fill="#1E243A"/>
<path d="M388.688 18.3635C388.688 19.6057 387.683 20.6464 386.444 20.6464C385.205 20.6464 384.167 19.6392 384.167 18.3971C384.167 17.155 385.172 16.1143 386.411 16.1143C387.65 16.1143 388.688 17.1214 388.688 18.3635Z" fill="#1E243A"/>
<path d="M392.204 188.604H330.252C322.416 188.604 316.02 182.192 316.02 174.336V166.279C316.02 158.423 322.416 152.011 330.252 152.011H392.204C400.04 152.011 406.436 158.423 406.436 166.279V174.336C406.436 182.192 400.04 188.604 392.204 188.604ZM330.252 157.047C325.162 157.047 321.043 161.176 321.043 166.279V174.336C321.043 179.439 325.162 183.568 330.252 183.568H392.204C397.294 183.568 401.413 179.439 401.413 174.336V166.279C401.413 161.176 397.294 157.047 392.204 157.047H330.252Z" fill="#1E243A"/>
<path d="M412.296 76.2405H309.825V51.062H412.296V76.2405ZM314.848 71.2048H407.273V56.0977H314.848V71.2048Z" fill="#1E243A"/>
<path d="M409.484 94.7047H383.732C382.359 94.7047 381.22 93.5632 381.22 92.1868C381.22 90.8104 382.359 89.6689 383.732 89.6689H409.484C410.857 89.6689 411.995 90.8104 411.995 92.1868C411.995 93.5968 410.857 94.7047 409.484 94.7047Z" fill="#1E243A"/>
<path d="M375.092 94.7047H313.341C311.968 94.7047 310.83 93.5632 310.83 92.1868C310.83 90.8104 311.968 89.6689 313.341 89.6689H375.058C376.431 89.6689 377.57 90.8104 377.57 92.1868C377.604 93.5968 376.465 94.7047 375.092 94.7047Z" fill="#1E243A"/>
<path d="M409.484 109.812H353.392C352.019 109.812 350.881 108.67 350.881 107.294C350.881 105.918 352.019 104.776 353.392 104.776H409.484C410.856 104.776 411.995 105.918 411.995 107.294C411.995 108.704 410.856 109.812 409.484 109.812Z" fill="#1E243A"/>
<path d="M344.953 109.812H313.375C312.002 109.812 310.863 108.67 310.863 107.294C310.863 105.918 312.002 104.776 313.375 104.776H344.953C346.326 104.776 347.465 105.918 347.465 107.294C347.465 108.704 346.326 109.812 344.953 109.812Z" fill="#1E243A"/>
<path d="M409.483 124.919H374.054C372.681 124.919 371.542 123.777 371.542 122.401C371.542 121.024 372.681 119.883 374.054 119.883H409.483C410.856 119.883 411.995 121.024 411.995 122.401C411.995 123.811 410.856 124.919 409.483 124.919Z" fill="#1E243A"/>
<path d="M365.682 124.919H313.341C311.968 124.919 310.83 123.777 310.83 122.401C310.83 121.024 311.968 119.883 313.341 119.883H365.682C367.055 119.883 368.193 121.024 368.193 122.401C368.193 123.811 367.088 124.919 365.682 124.919Z" fill="#1E243A"/>
<path d="M409.484 140.026H338.256C336.883 140.026 335.744 138.885 335.744 137.508C335.744 136.132 336.883 134.99 338.256 134.99H409.484C410.857 134.99 411.995 136.132 411.995 137.508C411.995 138.918 410.857 140.026 409.484 140.026Z" fill="#1E243A"/>
<path d="M329.549 140.026H313.375C312.002 140.026 310.863 138.885 310.863 137.508C310.863 136.132 312.002 134.99 313.375 134.99H329.549C330.922 134.99 332.061 136.132 332.061 137.508C332.061 138.918 330.922 140.026 329.549 140.026Z" fill="#1E243A"/>
<path d="M95.2046 147.479C94.8697 147.479 94.5348 147.412 94.2334 147.277C92.9609 146.74 92.3581 145.263 92.8939 143.987C93.4297 142.678 93.999 141.369 94.6018 140.093C95.1711 138.817 96.6445 138.247 97.9171 138.817C99.1896 139.388 99.7589 140.865 99.1896 142.141C98.6203 143.383 98.0845 144.659 97.5487 145.934C97.1134 146.908 96.1757 147.479 95.2046 147.479Z" fill="#1E243A"/>
<path d="M103.71 129.988C103.309 129.988 102.873 129.887 102.505 129.686C101.299 129.015 100.864 127.47 101.534 126.262C102.907 123.744 104.38 121.26 105.854 118.809C106.59 117.634 108.131 117.265 109.303 117.97C110.475 118.708 110.843 120.253 110.14 121.428C108.7 123.811 107.26 126.228 105.921 128.679C105.452 129.518 104.581 129.988 103.71 129.988ZM116.503 109.946C116 109.946 115.464 109.778 115.029 109.443C113.924 108.637 113.656 107.059 114.493 105.918C116.168 103.601 117.943 101.318 119.717 99.1026C120.588 98.0283 122.162 97.8604 123.234 98.7333C124.305 99.6061 124.473 101.184 123.602 102.258C121.861 104.44 120.153 106.656 118.512 108.905C118.009 109.61 117.273 109.946 116.503 109.946ZM131.672 91.6833C131.07 91.6833 130.433 91.4483 129.964 91.0119C128.96 90.0719 128.893 88.4605 129.864 87.4533C131.806 85.3719 133.849 83.3241 135.892 81.3098C136.896 80.3362 138.47 80.3698 139.441 81.3434C140.413 82.3505 140.379 83.9283 139.374 84.9019C137.365 86.849 135.389 88.8633 133.514 90.8776C133.012 91.4147 132.342 91.6833 131.672 91.6833ZM148.952 75.4012C148.215 75.4012 147.512 75.0991 147.01 74.4948C146.105 73.4205 146.273 71.8427 147.344 70.9362C149.521 69.1234 151.798 67.3105 154.042 65.5648C155.147 64.7256 156.721 64.927 157.558 66.0348C158.395 67.1427 158.194 68.7205 157.089 69.5598C154.879 71.2384 152.669 73.0177 150.559 74.797C150.09 75.2334 149.521 75.4012 148.952 75.4012ZM168.006 61.3013C167.169 61.3013 166.365 60.8984 165.896 60.1599C165.126 58.9849 165.461 57.4406 166.633 56.6684C169.011 55.1242 171.455 53.5799 173.9 52.1363C175.105 51.4313 176.646 51.8342 177.349 53.0092C178.052 54.2177 177.651 55.762 176.478 56.467C174.101 57.877 171.69 59.3877 169.379 60.8984C168.977 61.167 168.475 61.3013 168.006 61.3013ZM188.601 49.5178C187.663 49.5178 186.793 49.0142 186.357 48.1078C185.754 46.8656 186.257 45.3549 187.496 44.7171C190.041 43.4413 192.653 42.1992 195.231 41.0578C196.504 40.4871 197.977 41.0578 198.547 42.3335C199.116 43.6092 198.547 45.0863 197.274 45.657C194.729 46.7985 192.184 48.007 189.706 49.2492C189.338 49.417 188.969 49.5178 188.601 49.5178ZM210.368 40.1178C209.33 40.1178 208.392 39.4799 208.024 38.4728C207.555 37.1635 208.224 35.7199 209.53 35.2499C212.209 34.2764 214.922 33.3364 217.634 32.4635C218.94 32.0271 220.38 32.7657 220.782 34.1085C221.218 35.4178 220.481 36.8614 219.141 37.2642C216.496 38.1035 213.85 39.0435 211.238 39.9835C210.937 40.0842 210.636 40.1178 210.368 40.1178ZM233.039 33.2357C231.9 33.2357 230.895 32.4635 230.594 31.3221C230.259 29.9792 231.096 28.6028 232.436 28.2671C235.182 27.5957 237.995 26.9578 240.774 26.3871C242.147 26.1185 243.453 26.9914 243.721 28.3678C243.989 29.7442 243.118 31.0535 241.745 31.3221C239.033 31.8592 236.287 32.4971 233.574 33.1349C233.44 33.2021 233.24 33.2357 233.039 33.2357ZM256.346 28.905C255.107 28.905 254.035 27.965 253.868 26.7228C253.7 25.3464 254.671 24.0707 256.044 23.9028C258.857 23.5336 261.737 23.2314 264.55 22.9628C265.923 22.8286 267.162 23.8693 267.263 25.2457C267.397 26.6221 266.359 27.8643 264.986 27.965C262.206 28.2 259.427 28.5357 256.681 28.8714C256.547 28.905 256.446 28.905 256.346 28.905Z" fill="#1E243A"/>
<path d="M280.088 27.1257C278.715 27.1257 277.61 26.0178 277.577 24.6414C277.543 23.265 278.648 22.09 280.055 22.09C281.461 22.0564 282.868 22.0564 284.274 22.0564C285.647 22.0564 286.786 23.1978 286.786 24.5742C286.786 25.9507 285.647 27.0921 284.274 27.0921C282.901 27.0921 281.495 27.0921 280.122 27.1257H280.088Z" fill="#1E243A"/>
<path d="M341.169 423.469C340.131 423.469 339.16 422.831 338.792 421.79C338.323 420.481 339.026 419.037 340.332 418.601C341.605 418.164 342.911 417.694 344.217 417.191C345.523 416.687 346.963 417.359 347.465 418.668C347.967 419.977 347.298 421.421 345.992 421.924C344.652 422.428 343.313 422.932 342.007 423.368C341.739 423.435 341.437 423.469 341.169 423.469Z" fill="#1E243A"/>
<path d="M277.409 431.526C274.429 431.492 271.448 431.392 268.569 431.257C267.196 431.19 266.124 430.015 266.157 428.639C266.224 427.262 267.396 426.188 268.769 426.222C271.616 426.356 274.529 426.423 277.409 426.457C278.782 426.49 279.921 427.632 279.887 429.008C279.921 430.418 278.782 431.526 277.409 431.526ZM293.148 431.425C291.775 431.425 290.67 430.351 290.637 428.974C290.603 427.598 291.708 426.423 293.081 426.389C296.196 426.322 299.009 426.188 301.721 426.02C303.128 425.953 304.3 426.994 304.367 428.37C304.434 429.747 303.395 430.955 302.022 431.022C299.276 431.19 296.397 431.291 293.215 431.392C293.182 431.425 293.148 431.425 293.148 431.425ZM253.03 430.049C252.93 430.049 252.829 430.049 252.762 430.049C249.816 429.713 246.869 429.344 243.989 428.907C242.616 428.706 241.678 427.43 241.879 426.054C242.08 424.677 243.353 423.737 244.726 423.939C247.538 424.375 250.418 424.744 253.298 425.047C254.671 425.214 255.676 426.457 255.508 427.833C255.375 429.109 254.269 430.049 253.03 430.049ZM317.494 429.444C316.288 429.444 315.216 428.572 315.016 427.329C314.815 425.953 315.752 424.677 317.125 424.442C320.005 424.006 322.751 423.469 325.531 422.864C326.87 422.562 328.243 423.402 328.544 424.778C328.846 426.121 328.009 427.497 326.636 427.799C323.756 428.437 320.876 428.974 317.895 429.444C317.728 429.411 317.628 429.444 317.494 429.444ZM228.919 425.987C228.719 425.987 228.551 425.953 228.35 425.919C225.47 425.248 222.59 424.509 219.777 423.704C218.438 423.334 217.668 421.924 218.036 420.582C218.404 419.239 219.811 418.467 221.15 418.836C223.863 419.608 226.676 420.347 229.489 420.984C230.828 421.287 231.665 422.663 231.364 424.006C231.096 425.181 230.058 425.987 228.919 425.987ZM205.545 418.836C205.244 418.836 204.943 418.769 204.641 418.668C201.895 417.627 199.116 416.486 196.437 415.277C195.164 414.707 194.595 413.229 195.164 411.954C195.733 410.678 197.207 410.107 198.479 410.678C201.091 411.819 203.77 412.927 206.416 413.968C207.722 414.472 208.358 415.915 207.856 417.224C207.521 418.232 206.55 418.836 205.545 418.836ZM183.41 408.462C183.008 408.462 182.573 408.362 182.171 408.127C179.626 406.683 177.048 405.139 174.569 403.561C173.397 402.822 173.063 401.278 173.799 400.103C174.536 398.928 176.076 398.592 177.248 399.331C179.66 400.875 182.138 402.352 184.649 403.762C185.855 404.434 186.29 405.978 185.62 407.187C185.151 407.992 184.314 408.462 183.41 408.462ZM163.05 394.933C162.514 394.933 161.978 394.765 161.509 394.396C159.199 392.617 156.888 390.737 154.644 388.823C153.573 387.917 153.472 386.339 154.377 385.265C155.281 384.19 156.855 384.09 157.926 384.962C160.103 386.842 162.38 388.655 164.624 390.401C165.729 391.24 165.93 392.818 165.093 393.926C164.557 394.597 163.787 394.933 163.05 394.933Z" fill="#1E243A"/>
<path d="M144.699 378.685C144.063 378.685 143.393 378.45 142.924 377.946C141.919 376.939 140.948 375.932 139.977 374.891C139.006 373.884 139.073 372.306 140.078 371.332C141.082 370.359 142.656 370.426 143.627 371.4C144.565 372.407 145.536 373.38 146.507 374.354C147.478 375.327 147.478 376.939 146.507 377.912C145.971 378.45 145.335 378.685 144.699 378.685Z" fill="#1E243A"/>
</g>
<defs>
<clipPath id="clip0">
<rect width="529" height="442" fill="white"/>
</clipPath>
</defs>
</svg>
