<svg width="563" height="465" viewBox="0 0 563 465" fill="none" xmlns="http://www.w3.org/2000/svg">
<g clip-path="url(#clip0)">
<path d="M111.549 146.236C137.027 146.236 157.681 125.573 157.681 100.084C157.681 74.5955 137.027 53.9326 111.549 53.9326C86.0707 53.9326 65.4165 74.5955 65.4165 100.084C65.4165 125.573 86.0707 146.236 111.549 146.236Z" fill="#FCD118"/>
<path d="M313.516 85.9794H298.636L405.177 5.43579L511.683 85.9794H494.814H313.516Z" fill="#5ED45E"/>
<path d="M497.158 83.9542L404.964 14.2468L383.727 30.3058L370.054 40.6447L312.806 83.9542H318.665V189.19H490.943V83.9542H497.158Z" fill="#E1E1E5"/>
<path d="M423.396 131.705H389.835V188.089H423.396V131.705Z" fill="#FCD118"/>
<path d="M367.888 152.169H339.086V122.503C339.086 114.829 345.301 108.647 352.936 108.647H354.002C361.673 108.647 367.852 114.864 367.852 122.503V152.169H367.888Z" fill="#4A91D6"/>
<path d="M472.263 150.926H443.461V121.26C443.461 113.585 449.676 107.403 457.311 107.403H458.377C466.048 107.403 472.227 113.621 472.227 121.26V150.926H472.263Z" fill="#4A91D6"/>
<path d="M422.319 59.2096C426.89 51.1331 424.051 40.8788 415.978 36.3059C407.905 31.7331 397.655 34.5734 393.084 42.6499C388.513 50.7264 391.352 60.9807 399.425 65.5535C407.498 70.1264 417.748 67.2861 422.319 59.2096Z" fill="#4A91D6"/>
<path d="M502.059 163.006H448.575V189.19H502.059V163.006Z" fill="#FCD118"/>
<path d="M452.446 37.3052V20.6067H466.474V48.4612L452.446 37.3052Z" fill="#5ED45E"/>
<path d="M274.096 199.849C274.025 199.032 273.954 198.215 273.954 197.398C273.954 192.495 275.445 187.982 278.038 184.216C278.393 183.719 278.535 183.115 278.464 182.511C278.393 181.836 278.322 181.125 278.322 180.415C278.322 170.893 286.028 163.183 295.546 163.183C300.838 163.183 305.596 165.599 308.757 169.365C309.752 170.573 311.598 170.609 312.628 169.436C316.002 165.599 320.974 163.183 326.478 163.183C336.706 163.183 344.981 171.462 344.981 181.694V181.729C344.981 183.328 346.366 184.572 347.929 184.323C348.888 184.181 349.847 184.11 350.841 184.11C360.11 184.11 367.817 190.931 369.131 199.849H274.096Z" fill="#5ED45E"/>
<path d="M130.371 271.333C130.371 268.881 128.382 266.927 125.968 266.927H76.5678C70.1753 266.927 64.2801 270.409 61.2259 276.023L38.1064 318.373L15.129 326.331C9.16265 329.28 5.39819 335.356 5.39819 342V384.066H130.371V271.333Z" fill="#5ED45E"/>
<path d="M3.65796 382.644V386.268C3.65796 391.491 7.8841 395.719 13.1046 395.719H51.3175H94.4667H128.631V382.644H3.65796Z" fill="#FCD118"/>
<path d="M38.0352 320.363H90.5245V283.803H56.3958L38.0352 320.363Z" fill="#4A91D6"/>
<path d="M5.43359 343.314H13.2821C15.5195 343.314 17.2952 345.659 17.2952 348.537C17.2952 351.415 15.484 353.76 13.2821 353.76H5.43359V343.314Z" fill="#FCD118"/>
<path d="M271.574 396.607H291.817V284.336H140.066V396.287L271.574 396.607Z" fill="#4A91D6"/>
<path d="M291.462 298.441H140.386V314.429H291.462V298.441Z" fill="#FCD118"/>
<path d="M99.4942 397.276C101.606 384.26 92.7704 371.996 79.76 369.884C66.7496 367.771 54.4909 376.61 52.3794 389.626C50.2679 402.642 59.1032 414.906 72.1136 417.018C85.124 419.131 97.3827 410.292 99.4942 397.276Z" fill="#E1E1E5"/>
<path d="M83.9373 401.457C88.3614 397.031 88.3614 389.855 83.9373 385.429C79.5131 381.003 72.3401 381.003 67.9159 385.429C63.4918 389.855 63.4918 397.031 67.9159 401.457C72.3401 405.883 79.5131 405.883 83.9373 401.457Z" fill="white"/>
<path d="M263.687 410.313C273.007 400.99 273.007 385.873 263.687 376.549C254.368 367.225 239.257 367.225 229.937 376.549C220.617 385.873 220.617 400.99 229.937 410.313C239.257 419.637 254.368 419.637 263.687 410.313Z" fill="#E1E1E5"/>
<path d="M254.823 401.445C259.247 397.019 259.247 389.843 254.823 385.417C250.399 380.991 243.226 380.991 238.801 385.417C234.377 389.843 234.377 397.019 238.801 401.445C243.226 405.871 250.399 405.871 254.823 401.445Z" fill="white"/>
<path d="M75.9285 420.34C61.2968 420.34 49.3997 408.438 49.3997 393.8C49.3997 379.163 61.2968 367.26 75.9285 367.26C90.5601 367.26 102.457 379.163 102.457 393.8C102.457 408.438 90.5601 420.34 75.9285 420.34ZM75.9285 372.59C64.2444 372.59 54.7267 382.112 54.7267 393.8C54.7267 405.489 64.2444 415.011 75.9285 415.011C87.6125 415.011 97.1302 405.489 97.1302 393.8C97.1302 382.112 87.6125 372.59 75.9285 372.59Z" fill="#1E243A"/>
<path d="M75.9285 407.799C68.222 407.799 61.936 401.51 61.936 393.8C61.936 386.091 68.222 379.802 75.9285 379.802C83.635 379.802 89.9209 386.091 89.9209 393.8C89.9209 401.51 83.635 407.799 75.9285 407.799ZM75.9285 385.131C71.1341 385.131 67.2631 389.04 67.2631 393.8C67.2631 398.561 71.1696 402.469 75.9285 402.469C80.6873 402.469 84.5938 398.561 84.5938 393.8C84.5938 389.04 80.7228 385.131 75.9285 385.131Z" fill="#1E243A"/>
<path d="M246.821 420.34C232.189 420.34 220.292 408.438 220.292 393.8C220.292 379.163 232.189 367.26 246.821 367.26C261.452 367.26 273.35 379.163 273.35 393.8C273.35 408.438 261.417 420.34 246.821 420.34ZM246.821 372.59C235.137 372.59 225.619 382.112 225.619 393.8C225.619 405.489 235.137 415.011 246.821 415.011C258.505 415.011 268.023 405.489 268.023 393.8C268.023 382.112 258.505 372.59 246.821 372.59Z" fill="#1E243A"/>
<path d="M246.821 407.799C239.114 407.799 232.828 401.51 232.828 393.8C232.828 386.091 239.114 379.802 246.821 379.802C254.527 379.802 260.813 386.091 260.813 393.8C260.813 401.51 254.527 407.799 246.821 407.799ZM246.821 385.131C242.026 385.131 238.155 389.04 238.155 393.8C238.155 398.561 242.062 402.469 246.821 402.469C251.58 402.469 255.486 398.561 255.486 393.8C255.486 389.04 251.58 385.131 246.821 385.131Z" fill="#1E243A"/>
<path d="M128.595 399.272H100.753C99.2965 399.272 98.0891 398.064 98.0891 396.607C98.0891 395.151 99.2965 393.943 100.753 393.943H125.932V273.429C125.932 272.434 125.115 271.653 124.156 271.653H74.3659C68.8967 271.653 63.8893 274.637 61.2613 279.433L37.9642 322.103C37.6446 322.672 37.1119 323.134 36.5082 323.347L13.4952 331.305C8.45228 333.864 5.32707 338.944 5.32707 344.629V387.121C5.32707 390.887 8.38125 393.978 12.1812 393.978H50.7137C52.1698 393.978 53.3772 395.186 53.3772 396.643C53.3772 398.1 52.1698 399.307 50.7137 399.307H12.1812C5.46912 399.307 0 393.836 0 387.121V344.629C0 336.883 4.33268 329.92 11.2579 326.474C11.3644 326.438 11.471 326.367 11.5775 326.331L33.7381 318.657L56.5379 276.911C60.0893 270.409 66.908 266.359 74.3304 266.359H124.121C128.027 266.359 131.223 269.556 131.223 273.465V396.643C131.259 398.064 130.051 399.272 128.595 399.272Z" fill="#1E243A"/>
<path d="M127.033 386.126H99.332C97.8759 386.126 96.6685 384.918 96.6685 383.462C96.6685 382.005 97.8759 380.797 99.332 380.797H127.033C128.489 380.797 129.696 382.005 129.696 383.462C129.696 384.918 128.489 386.126 127.033 386.126Z" fill="#1E243A"/>
<path d="M13.0336 356.353H4.26168C2.80561 356.353 1.59814 355.145 1.59814 353.689C1.59814 352.232 2.7701 351.024 4.26168 351.024H13.0691C13.3532 351.024 14.2055 350.1 14.2055 348.43C14.2055 346.761 13.3532 345.837 13.0691 345.837H4.26168C2.80561 345.837 1.59814 344.629 1.59814 343.172C1.59814 341.715 2.80561 340.507 4.26168 340.507H13.0691C16.6915 340.507 19.5326 343.989 19.5326 348.43C19.4971 352.871 16.656 356.353 13.0336 356.353Z" fill="#1E243A"/>
<path d="M54.1586 386.126H3.69356C2.2375 386.126 1.03003 384.918 1.03003 383.462C1.03003 382.005 2.2375 380.797 3.69356 380.797H54.1586C55.6147 380.797 56.8222 382.005 56.8222 383.462C56.8222 384.918 55.6147 386.126 54.1586 386.126Z" fill="#1E243A"/>
<path d="M91.4479 324.448H34.1997C32.7436 324.448 31.5361 323.24 31.5361 321.784C31.5361 320.327 32.7436 319.119 34.1997 319.119H88.7844V287.641H56.9285C55.4724 287.641 54.265 286.433 54.265 284.976C54.265 283.519 55.4724 282.311 56.9285 282.311H91.4479C92.904 282.311 94.1114 283.519 94.1114 284.976V321.784C94.1114 323.24 92.904 324.448 91.4479 324.448Z" fill="#1E243A"/>
<path d="M124.902 301.106H110.199C108.743 301.106 107.536 299.898 107.536 298.441C107.536 296.985 108.743 295.777 110.199 295.777H124.902C126.358 295.777 127.565 296.985 127.565 298.441C127.565 299.898 126.358 301.106 124.902 301.106Z" fill="#1E243A"/>
<path d="M50.2521 319.51C49.5773 319.51 48.9025 319.261 48.3698 318.728C47.3399 317.698 47.3399 315.993 48.3698 314.962L58.0296 305.298C59.0595 304.268 60.7642 304.268 61.7941 305.298C62.824 306.329 62.824 308.034 61.7941 309.064L52.1343 318.728C51.6016 319.226 50.9268 319.51 50.2521 319.51Z" fill="#1E243A"/>
<path d="M68.9676 316.383C68.2929 316.383 67.6181 316.135 67.0854 315.602C66.0555 314.571 66.0555 312.866 67.0854 311.836L76.9227 301.994C77.9526 300.964 79.6573 300.964 80.6872 301.994C81.7171 303.025 81.7171 304.73 80.6872 305.76L70.8499 315.602C70.3172 316.135 69.6424 316.383 68.9676 316.383Z" fill="#1E243A"/>
<path d="M106.186 343.598H97.2722C95.8161 343.598 94.6086 342.39 94.6086 340.934C94.6086 339.477 95.8161 338.269 97.2722 338.269H106.186C107.642 338.269 108.85 339.477 108.85 340.934C108.85 342.39 107.678 343.598 106.186 343.598Z" fill="#1E243A"/>
<path d="M128.311 316.881H102.741C101.285 316.881 100.078 315.673 100.078 314.216C100.078 312.759 101.285 311.552 102.741 311.552H128.311C129.767 311.552 130.975 312.759 130.975 314.216C130.975 315.673 129.767 316.881 128.311 316.881Z" fill="#1E243A"/>
<path d="M291.817 399.627H271.574C270.118 399.627 268.91 398.419 268.91 396.963C268.91 395.506 270.118 394.298 271.574 394.298H289.153V287.356H142.73V396.643C142.73 398.1 141.522 399.307 140.066 399.307C138.61 399.307 137.403 398.1 137.403 396.643V284.692C137.403 283.235 138.61 282.027 140.066 282.027H291.781C293.237 282.027 294.445 283.235 294.445 284.692V396.963C294.48 398.419 293.273 399.627 291.817 399.627Z" fill="#1E243A"/>
<path d="M221.499 399.272H129.306C127.85 399.272 126.642 398.064 126.642 396.607C126.642 395.151 127.85 393.943 129.306 393.943H221.499C222.955 393.943 224.163 395.151 224.163 396.607C224.163 398.064 222.955 399.272 221.499 399.272Z" fill="#1E243A"/>
<path d="M291.462 300.751H140.386C138.93 300.751 137.722 299.543 137.722 298.086C137.722 296.629 138.93 295.421 140.386 295.421H291.462C292.918 295.421 294.125 296.629 294.125 298.086C294.125 299.578 292.953 300.751 291.462 300.751Z" fill="#1E243A"/>
<path d="M291.462 316.739H140.386C138.93 316.739 137.722 315.531 137.722 314.074C137.722 312.617 138.93 311.409 140.386 311.409H291.462C292.918 311.409 294.125 312.617 294.125 314.074C294.125 315.566 292.953 316.739 291.462 316.739Z" fill="#1E243A"/>
<path d="M416.896 272.719C407.45 275.703 412.67 275.703 407.45 275.703C402.229 275.703 398.003 284.443 398.003 277.693C398.003 270.942 402.229 265.471 407.45 265.471C412.67 265.471 423.324 270.693 416.896 272.719Z" fill="#FCD118"/>
<path d="M391.184 308.709C386.354 320.256 386.567 327.184 389.87 328.57C393.173 329.955 398.394 325.266 403.223 313.754C408.053 302.207 407.84 295.99 404.537 294.604C401.199 293.219 396.014 297.162 391.184 308.709Z" fill="#FCD118"/>
<path d="M526.705 267.034C532.458 270.622 527.379 266.11 532.6 266.11C537.82 266.11 542.047 277.337 542.047 270.587C542.047 263.836 537.82 258.365 532.6 258.365C527.379 258.365 520.987 263.446 526.705 267.034Z" fill="#FCD118"/>
<path d="M548.866 301.603C553.695 313.15 554.193 318.302 550.89 319.688C547.552 321.073 541.656 318.16 536.826 306.649C531.997 295.102 532.92 288.529 536.223 287.143C539.561 285.758 544.036 290.057 548.866 301.603Z" fill="#FCD118"/>
<path d="M491.794 165.813C490.303 165.813 489.131 164.605 489.131 163.112L489.948 83.9543C489.948 82.4976 491.155 81.3252 492.611 81.3252H492.647C494.103 81.3252 495.31 82.5332 495.275 84.0254L494.458 163.183C494.458 164.64 493.25 165.813 491.794 165.813Z" fill="#1E243A"/>
<path d="M318.913 163.859C317.422 163.823 316.214 162.615 316.25 161.158L317.244 83.919C317.28 82.4623 318.452 81.2543 319.943 81.2898C321.399 81.3254 322.607 82.5333 322.571 83.99L321.577 161.229C321.577 162.722 320.369 163.859 318.913 163.859Z" fill="#1E243A"/>
<path d="M410.219 86.4413H314.048C312.912 86.4413 311.882 85.6952 311.527 84.6294C311.171 83.528 311.527 82.3555 312.45 81.6449L369.734 38.3354C370.906 37.4472 372.575 37.6959 373.463 38.8683C374.351 40.0408 374.102 41.7106 372.93 42.5989L322.003 81.112H410.219C411.676 81.112 412.883 82.32 412.883 83.7767C412.883 85.2333 411.711 86.4413 410.219 86.4413Z" fill="#1E243A"/>
<path d="M498.472 86.4413H469.102C467.646 86.4413 466.438 85.2334 466.438 83.7767C466.438 82.32 467.646 81.112 469.102 81.112H490.552L406.278 17.3735L386.639 32.2245C385.467 33.1127 383.797 32.864 382.91 31.6916C382.022 30.5191 382.27 28.8493 383.442 27.9611L404.68 11.9021C405.639 11.1915 406.953 11.1915 407.876 11.9021L500.07 81.645C500.993 82.32 501.348 83.528 500.993 84.6294C500.638 85.6952 499.644 86.4413 498.472 86.4413Z" fill="#1E243A"/>
<path d="M460.045 86.4414H420.554C419.098 86.4414 417.89 85.2334 417.89 83.7767C417.89 82.32 419.098 81.1121 420.554 81.1121H460.045C461.501 81.1121 462.709 82.32 462.709 83.7767C462.709 85.2334 461.501 86.4414 460.045 86.4414Z" fill="#1E243A"/>
<path d="M513.529 86.4414H496.554C495.098 86.4414 493.89 85.2334 493.89 83.7767C493.89 82.3201 495.098 81.1121 496.554 81.1121H505.574L406.278 6.00435L306.946 81.1121H313.977C315.433 81.1121 316.641 82.3201 316.641 83.7767C316.641 85.2334 315.433 86.4414 313.977 86.4414H298.99C297.854 86.4414 296.824 85.6953 296.469 84.6294C296.114 83.528 296.469 82.3556 297.392 81.645L404.644 0.532931C405.603 -0.177644 406.917 -0.177644 407.84 0.532931L515.092 81.645C516.015 82.3201 516.37 83.528 516.015 84.6294C515.696 85.6953 514.666 86.4414 513.529 86.4414Z" fill="#1E243A"/>
<path d="M422.259 188.693C420.803 188.693 419.595 187.485 419.595 186.029V134.725H392.924V185.993C392.924 187.45 391.717 188.658 390.261 188.658C388.805 188.658 387.597 187.45 387.597 185.993V132.06C387.597 130.604 388.805 129.396 390.261 129.396H422.259C423.715 129.396 424.922 130.604 424.922 132.06V185.993C424.922 187.485 423.75 188.693 422.259 188.693Z" fill="#1E243A"/>
<path d="M369.166 153.804H340.932C339.476 153.804 338.269 152.596 338.269 151.139V122.574C338.269 113.337 345.797 105.804 355.031 105.804C364.265 105.804 371.829 113.337 371.829 122.574V151.139C371.829 152.596 370.622 153.804 369.166 153.804ZM343.596 148.474H366.502V122.574C366.502 116.25 361.352 111.134 355.067 111.134C348.745 111.134 343.631 116.285 343.631 122.574V148.474H343.596Z" fill="#1E243A"/>
<path d="M355.031 152.525C353.575 152.525 352.367 151.317 352.367 149.86V109.713C352.367 108.256 353.575 107.048 355.031 107.048C356.487 107.048 357.694 108.256 357.694 109.713V149.86C357.694 151.352 356.522 152.525 355.031 152.525Z" fill="#1E243A"/>
<path d="M367.922 125.985H342.352C340.896 125.985 339.689 124.777 339.689 123.32C339.689 121.863 340.896 120.655 342.352 120.655H367.922C369.378 120.655 370.586 121.863 370.586 123.32C370.586 124.777 369.414 125.985 367.922 125.985Z" fill="#1E243A"/>
<path d="M471.48 152.56H443.247C441.791 152.56 440.583 151.352 440.583 149.896V121.331C440.583 112.093 448.112 104.561 457.346 104.561C466.58 104.561 474.108 112.093 474.108 121.331V149.896C474.144 151.352 472.936 152.56 471.48 152.56ZM445.911 147.231H468.817V121.331C468.817 115.006 463.667 109.89 457.382 109.89C451.096 109.89 445.946 115.042 445.946 121.331V147.231H445.911Z" fill="#1E243A"/>
<path d="M457.346 151.317C455.89 151.317 454.682 150.109 454.682 148.652V108.505C454.682 107.048 455.89 105.84 457.346 105.84C458.802 105.84 460.009 107.048 460.009 108.505V148.652C460.009 150.109 458.837 151.317 457.346 151.317Z" fill="#1E243A"/>
<path d="M470.237 124.741H444.667C443.211 124.741 442.004 123.533 442.004 122.077C442.004 120.62 443.211 119.412 444.667 119.412H470.237C471.693 119.412 472.901 120.62 472.901 122.077C472.901 123.533 471.693 124.741 470.237 124.741Z" fill="#1E243A"/>
<path d="M414.978 162.828H409.047C407.591 162.828 406.384 161.62 406.384 160.163C406.384 158.707 407.591 157.499 409.047 157.499H414.978C416.434 157.499 417.642 158.707 417.642 160.163C417.642 161.62 416.47 162.828 414.978 162.828Z" fill="#1E243A"/>
<path d="M446.621 191.749H367.709C366.253 191.749 365.046 190.541 365.046 189.084C365.046 187.627 366.253 186.419 367.709 186.419H446.621C448.077 186.419 449.285 187.627 449.285 189.084C449.285 190.541 448.077 191.749 446.621 191.749Z" fill="#1E243A"/>
<path d="M406.277 69.3874C395.978 69.3874 387.597 61.0027 387.597 50.6993C387.597 40.396 395.978 32.0112 406.277 32.0112C416.576 32.0112 424.958 40.396 424.958 50.6993C424.958 61.0027 416.576 69.3874 406.277 69.3874ZM406.277 37.3761C398.926 37.3761 392.924 43.3804 392.924 50.7349C392.924 58.0893 398.926 64.0937 406.277 64.0937C413.629 64.0937 419.631 58.0893 419.631 50.7349C419.631 43.3804 413.629 37.3761 406.277 37.3761Z" fill="#1E243A"/>
<path d="M420.447 53.3996H392.072C390.616 53.3996 389.408 52.1916 389.408 50.735C389.408 49.2783 390.616 48.0703 392.072 48.0703H420.447C421.903 48.0703 423.111 49.2783 423.111 50.735C423.111 52.1916 421.939 53.3996 420.447 53.3996Z" fill="#1E243A"/>
<path d="M501.597 191.855H447.261C445.805 191.855 444.597 190.647 444.597 189.191V164.249C444.597 162.793 445.805 161.585 447.261 161.585H501.597C503.053 161.585 504.26 162.793 504.26 164.249V189.191C504.26 190.683 503.088 191.855 501.597 191.855ZM449.924 186.526H498.933V166.914H449.924V186.526Z" fill="#1E243A"/>
<path d="M464.733 191.855C463.277 191.855 462.07 190.647 462.07 189.191V164.249C462.07 162.793 463.277 161.585 464.733 161.585C466.189 161.585 467.397 162.793 467.397 164.249V189.191C467.397 190.683 466.225 191.855 464.733 191.855Z" fill="#1E243A"/>
<path d="M484.124 191.855C482.668 191.855 481.46 190.647 481.46 189.191V164.249C481.46 162.793 482.668 161.585 484.124 161.585C485.58 161.585 486.788 162.793 486.788 164.249V189.191C486.788 190.683 485.616 191.855 484.124 191.855Z" fill="#1E243A"/>
<path d="M464.627 48.2126C463.171 48.2126 461.963 47.0047 461.963 45.548V24.4795H453.937V36.0263C453.937 37.483 452.729 38.6909 451.273 38.6909C449.817 38.6909 448.61 37.483 448.61 36.0263V21.8148C448.61 20.3581 449.817 19.1501 451.273 19.1501H464.627C466.083 19.1501 467.29 20.3581 467.29 21.8148V45.548C467.29 47.0047 466.118 48.2126 464.627 48.2126Z" fill="#1E243A"/>
<path d="M367.638 199.849C366.324 199.849 365.188 198.89 365.01 197.575C363.874 189.901 357.126 184.074 349.349 184.074C348.497 184.074 347.68 184.146 346.863 184.288C345.371 184.536 343.844 184.11 342.672 183.115C341.5 182.12 340.826 180.628 340.826 179.065V179.029C340.826 170.289 333.723 163.184 324.986 163.184C320.441 163.184 316.143 165.138 313.125 168.513C312.13 169.65 310.674 170.289 309.147 170.254C307.62 170.218 306.2 169.543 305.205 168.371C302.435 165.067 298.351 163.148 294.054 163.148C286.028 163.148 279.493 169.685 279.493 177.715C279.493 178.283 279.529 178.887 279.6 179.491C279.742 180.735 279.458 182.014 278.747 183.044C276.404 186.49 275.161 190.505 275.161 194.698C275.161 195.408 275.196 196.154 275.267 196.9C275.409 198.357 274.344 199.672 272.888 199.814C271.432 199.956 270.118 198.89 269.976 197.433C269.869 196.51 269.833 195.586 269.833 194.698C269.833 189.439 271.396 184.394 274.344 180.06C274.237 179.278 274.202 178.461 274.202 177.679C274.202 166.701 283.116 157.783 294.089 157.783C299.949 157.783 305.454 160.341 309.254 164.818C313.267 160.341 319.02 157.783 325.022 157.783C336.706 157.783 346.188 167.269 346.188 178.958C347.254 178.781 348.319 178.71 349.42 178.71C354.534 178.71 359.47 180.557 363.306 183.897C367.106 187.201 369.627 191.784 370.373 196.723C370.586 198.179 369.592 199.529 368.136 199.743C367.923 199.849 367.781 199.849 367.638 199.849Z" fill="#1E243A"/>
<path d="M318.488 465H172.1C170.644 465 169.436 463.792 169.436 462.335C169.436 460.879 170.644 459.671 172.1 459.671H318.488C319.944 459.671 321.151 460.879 321.151 462.335C321.151 463.792 319.944 465 318.488 465Z" fill="#1E243A"/>
<path d="M377.085 465H339.263C337.807 465 336.6 463.792 336.6 462.335C336.6 460.879 337.807 459.671 339.263 459.671H377.085C378.541 459.671 379.749 460.879 379.749 462.335C379.749 463.792 378.541 465 377.085 465Z" fill="#1E243A"/>
<path d="M385.964 390.034H335.463C334.007 390.034 332.8 388.826 332.8 387.37C332.8 385.913 334.007 384.705 335.463 384.705H385.964C387.42 384.705 388.628 385.913 388.628 387.37C388.628 388.826 387.42 390.034 385.964 390.034Z" fill="#1E243A"/>
<path d="M540.449 390.034H406.739C405.283 390.034 404.076 388.826 404.076 387.37C404.076 385.913 405.283 384.705 406.739 384.705H540.449C541.905 384.705 543.112 385.913 543.112 387.37C543.112 388.826 541.905 390.034 540.449 390.034Z" fill="#1E243A"/>
<path d="M140.741 447.378H41.7641C40.3081 447.378 39.1006 446.17 39.1006 444.713C39.1006 443.256 40.3081 442.048 41.7641 442.048H140.741C142.197 442.048 143.405 443.256 143.405 444.713C143.405 446.17 142.197 447.378 140.741 447.378Z" fill="#1E243A"/>
<path d="M512.819 429.258H378.328C376.872 429.258 375.665 428.05 375.665 426.593C375.665 425.137 376.872 423.929 378.328 423.929H512.819C514.275 423.929 515.482 425.137 515.482 426.593C515.482 428.05 514.275 429.258 512.819 429.258Z" fill="#1E243A"/>
<path d="M357.375 212.533H233.539C232.082 212.533 230.875 211.325 230.875 209.868C230.875 208.412 232.082 207.204 233.539 207.204H357.375C358.831 207.204 360.039 208.412 360.039 209.868C360.039 211.325 358.831 212.533 357.375 212.533Z" fill="#1E243A"/>
<path d="M16.7627 40.2185C14.9159 39.579 13.9216 37.5539 14.5608 35.7064C15.2 33.8589 17.2243 32.8641 19.071 33.5036C20.9178 34.1431 21.9122 36.1683 21.2729 38.0157C20.7757 39.4724 19.3907 40.3962 17.9346 40.3962C17.544 40.3962 17.1533 40.3606 16.7627 40.2185ZM28.1626 37.2341C27.0972 35.5643 27.5944 33.397 29.2635 32.3312C30.9327 31.3008 33.099 31.7982 34.1644 33.4325C35.1943 35.1024 34.6971 37.3052 33.0635 38.3355C32.4953 38.6908 31.8205 38.8684 31.1812 38.8684C29.9738 38.904 28.8373 38.3355 28.1626 37.2341ZM5.11413 28.6362C4.47488 26.7887 5.43376 24.7635 7.28047 24.0885C9.12719 23.449 11.1515 24.4082 11.7907 26.2557C12.43 28.1032 11.4711 30.1284 9.62438 30.7679C9.23373 30.91 8.84308 30.9811 8.45243 30.9811C7.03188 31.0166 5.64684 30.0928 5.11413 28.6362ZM37.8223 27.6058C35.8691 27.3927 34.484 25.6162 34.6971 23.6977C34.9102 21.7436 36.6504 20.358 38.6036 20.5711C40.5569 20.7843 41.9419 22.5608 41.7288 24.4793C41.5158 26.2913 39.9887 27.6414 38.213 27.6414C38.1064 27.6058 37.9644 27.6058 37.8223 27.6058ZM8.06178 17.1959C6.39263 16.1656 5.89544 13.9628 6.92534 12.2929C7.95524 10.6231 10.1571 10.1257 11.8262 11.156C13.4954 12.1864 13.9926 14.3891 12.9627 16.059C12.2879 17.1249 11.1515 17.7288 9.94401 17.7288C9.30476 17.7644 8.66551 17.5867 8.06178 17.1959ZM31.3233 13.9983C31.3233 13.9983 31.2878 13.9628 31.3233 13.9983C29.9028 12.5772 29.9028 10.3389 31.2878 8.95325C32.6728 7.56763 34.9102 7.56763 36.2952 8.95325C36.2952 8.95325 36.2952 8.98878 36.3307 8.98878C37.7158 10.3744 37.7158 12.6127 36.3307 13.9983C35.6205 14.7089 34.7326 15.0287 33.8093 15.0287C32.9214 15.0287 31.9981 14.6734 31.3233 13.9983ZM17.686 7.49657C17.4729 5.54249 18.858 3.80158 20.8112 3.55288C22.7645 3.33971 24.5047 4.72533 24.7533 6.67941C24.9663 8.63349 23.5813 10.3744 21.628 10.6231C21.486 10.6586 21.3439 10.6586 21.2374 10.6586C19.4262 10.6231 17.8991 9.30854 17.686 7.49657Z" fill="#1E243A"/>
<path d="M145.855 237.652C144.009 237.012 143.014 234.987 143.653 233.139C144.293 231.292 146.317 230.297 148.164 230.937C150.01 231.576 151.005 233.601 150.366 235.449C149.868 236.906 148.483 237.829 147.027 237.829C146.637 237.865 146.246 237.794 145.855 237.652ZM157.255 234.703C156.225 233.033 156.723 230.83 158.356 229.8C160.025 228.769 162.192 229.267 163.257 230.901C164.322 232.571 163.79 234.738 162.156 235.804C161.552 236.159 160.913 236.337 160.274 236.337C159.066 236.373 157.93 235.769 157.255 234.703ZM134.242 226.069C133.603 224.222 134.562 222.197 136.409 221.557C138.255 220.918 140.28 221.877 140.954 223.724C141.594 225.572 140.635 227.597 138.788 228.272C138.397 228.414 138.007 228.485 137.616 228.485C136.125 228.45 134.739 227.526 134.242 226.069ZM166.95 225.039C164.997 224.826 163.612 223.049 163.825 221.131C164.038 219.177 165.814 217.791 167.732 218.004C169.685 218.217 171.07 219.994 170.857 221.912C170.644 223.724 169.117 225.074 167.341 225.074C167.199 225.074 167.057 225.074 166.95 225.039ZM137.154 214.665C135.485 213.634 134.988 211.431 136.018 209.762C137.048 208.092 139.25 207.594 140.919 208.625C142.588 209.655 143.085 211.858 142.055 213.528C141.381 214.593 140.209 215.197 139.037 215.197C138.397 215.197 137.758 215.02 137.154 214.665ZM160.416 211.467C160.416 211.431 160.416 211.431 160.416 211.467C160.38 211.431 160.38 211.431 160.416 211.467C158.995 210.046 158.995 207.807 160.38 206.422C161.765 205.036 164.003 205.036 165.388 206.422C165.388 206.457 165.423 206.457 165.423 206.457C166.808 207.843 166.808 210.081 165.423 211.467C164.749 212.142 163.825 212.497 162.902 212.497C162.014 212.497 161.091 212.142 160.416 211.467ZM146.779 204.93C146.566 202.976 147.951 201.235 149.904 200.986C151.857 200.773 153.597 202.158 153.846 204.113C154.059 206.067 152.674 207.807 150.721 208.056C150.579 208.056 150.437 208.092 150.33 208.092C148.519 208.092 146.992 206.742 146.779 204.93Z" fill="#1E243A"/>
<path d="M259.961 99.5515C258.114 98.912 257.12 96.8869 257.759 95.0394C258.398 93.1919 260.423 92.1971 262.269 92.8366C264.116 93.4761 265.111 95.5013 264.471 97.3488C263.974 98.8054 262.589 99.7292 261.133 99.7292C260.742 99.7647 260.352 99.6937 259.961 99.5515ZM271.361 96.6027C270.331 94.9328 270.828 92.73 272.462 91.6997C274.131 90.6694 276.297 91.1668 277.363 92.8011C278.393 94.4709 277.895 96.6737 276.262 97.7041C275.658 98.0593 275.019 98.237 274.38 98.237C273.208 98.237 272.036 97.6685 271.361 96.6027ZM248.348 87.9692C247.709 86.1217 248.668 84.0965 250.514 83.4215C252.361 82.782 254.385 83.7413 255.06 85.5887C255.699 87.4362 254.74 89.4614 252.894 90.1364C252.503 90.2785 252.112 90.3496 251.722 90.3496C250.23 90.3496 248.845 89.4259 248.348 87.9692ZM281.056 86.9388C279.103 86.7257 277.682 84.9492 277.931 83.0307C278.144 81.0766 279.92 79.6555 281.838 79.9042C283.791 80.1173 285.176 81.8938 284.963 83.8123C284.75 85.6243 283.223 86.9744 281.447 86.9744C281.34 86.9388 281.198 86.9388 281.056 86.9388ZM251.296 76.5645C249.627 75.5341 249.129 73.3313 250.159 71.6615C251.189 69.9916 253.391 69.4942 255.06 70.5246C256.729 71.5549 257.226 73.7577 256.197 75.4275C255.522 76.4934 254.35 77.0974 253.178 77.0974C252.503 77.0974 251.864 76.9197 251.296 76.5645ZM274.522 73.3313C273.101 71.9102 273.101 69.6719 274.486 68.2863C275.871 66.9006 278.109 66.9006 279.494 68.2863L279.529 68.3218C280.914 69.7074 280.914 71.9457 279.529 73.3313C278.819 74.0419 277.931 74.3617 277.008 74.3617C276.155 74.3617 275.232 74.0419 274.522 73.3313ZM260.92 66.8296C260.707 64.8755 262.092 63.1346 264.045 62.8859C265.998 62.6727 267.739 64.0583 267.987 66.0124C268.2 67.9665 266.815 69.7429 264.862 69.9561C264.72 69.9561 264.578 69.9916 264.471 69.9916C262.66 69.9916 261.097 68.6415 260.92 66.8296Z" fill="#1E243A"/>
<path d="M343.525 339.548C341.678 338.909 340.684 336.883 341.323 335.036C341.962 333.188 343.986 332.194 345.833 332.869C347.68 333.508 348.674 335.533 348.035 337.381C347.538 338.838 346.153 339.761 344.661 339.761C344.306 339.761 343.915 339.69 343.525 339.548ZM354.925 336.599C353.895 334.929 354.356 332.727 356.026 331.696C357.695 330.666 359.861 331.163 360.927 332.798C361.956 334.467 361.459 336.635 359.826 337.701C359.222 338.056 358.583 338.234 357.943 338.234C356.736 338.234 355.599 337.665 354.925 336.599ZM331.912 327.966C331.272 326.118 332.231 324.093 334.078 323.454C335.925 322.814 337.949 323.773 338.624 325.621C339.263 327.468 338.304 329.493 336.458 330.169C336.067 330.311 335.676 330.382 335.286 330.382C333.794 330.346 332.409 329.422 331.912 327.966ZM364.62 326.935C362.667 326.722 361.282 324.946 361.495 322.992C361.708 321.038 363.448 319.652 365.401 319.865C367.355 320.078 368.74 321.819 368.526 323.773C368.313 325.585 366.786 326.935 365.011 326.935C364.869 326.971 364.726 326.935 364.62 326.935ZM334.824 316.561C333.155 315.531 332.658 313.328 333.687 311.658C334.717 309.988 336.919 309.491 338.588 310.521C340.257 311.551 340.755 313.754 339.725 315.424C339.05 316.49 337.914 317.094 336.706 317.094C336.067 317.094 335.428 316.916 334.824 316.561ZM358.085 313.328C358.085 313.328 358.05 313.328 358.085 313.328C356.665 311.907 356.665 309.668 358.05 308.283C359.435 306.897 361.672 306.897 363.093 308.283C363.093 308.283 363.093 308.283 363.128 308.318C364.513 309.704 364.513 311.942 363.128 313.328C362.418 314.038 361.53 314.358 360.607 314.358C359.684 314.394 358.796 314.038 358.085 313.328ZM344.448 306.826C344.235 304.872 345.62 303.131 347.573 302.882C349.527 302.669 351.302 304.055 351.515 306.009C351.728 307.963 350.343 309.74 348.39 309.953C348.248 309.953 348.106 309.988 347.999 309.988C346.188 309.988 344.661 308.638 344.448 306.826Z" fill="#1E243A"/>
<path d="M526.705 46.7913C524.859 46.1518 523.864 44.1266 524.504 42.2791C525.143 40.4316 527.167 39.4368 529.014 40.0764C530.86 40.7159 531.855 42.741 531.216 44.5885C530.718 46.0452 529.333 46.9689 527.877 46.9689C527.487 46.9689 527.096 46.9334 526.705 46.7913ZM538.105 43.8069C537.075 42.137 537.573 39.9698 539.206 38.9039C540.875 37.838 543.077 38.371 544.107 40.0053C545.173 41.6751 544.64 43.8424 543.006 44.9083C542.402 45.2636 541.763 45.4412 541.124 45.4412C539.952 45.4767 538.78 44.8727 538.105 43.8069ZM515.092 35.2089C514.453 33.3614 515.412 31.3363 517.259 30.6612C519.105 30.0217 521.13 30.981 521.805 32.8285C522.444 34.676 521.485 36.7011 519.638 37.3406C519.247 37.4828 518.857 37.5538 518.466 37.5538C516.975 37.5538 515.625 36.6656 515.092 35.2089ZM547.801 34.1786C545.847 33.9654 544.462 32.189 544.675 30.2349C544.888 28.2808 546.664 26.8952 548.582 27.1084C550.535 27.3215 551.92 29.098 551.707 31.0521C551.494 32.864 549.967 34.2141 548.191 34.2141C548.085 34.1786 547.943 34.1786 547.801 34.1786ZM518.04 23.7687C516.371 22.7383 515.874 20.5356 516.904 18.8657C517.933 17.1959 520.135 16.6985 521.805 17.7288C523.474 18.7591 523.971 20.9619 522.941 22.6318C522.266 23.6976 521.13 24.3016 519.922 24.3016C519.283 24.3371 518.608 24.1595 518.04 23.7687ZM541.302 20.5711C541.266 20.5711 541.266 20.5711 541.302 20.5711C541.266 20.5356 541.266 20.5356 541.302 20.5711C539.881 19.1499 539.881 16.9116 541.266 15.526C542.651 14.1404 544.888 14.1404 546.273 15.526C546.273 15.526 546.273 15.526 546.309 15.5615C547.694 16.9472 547.694 19.1855 546.309 20.5711C545.634 21.2461 544.711 21.6014 543.787 21.6014C542.9 21.6014 541.976 21.2461 541.302 20.5711ZM527.664 14.0693C527.451 12.1152 528.836 10.3743 530.789 10.1256C532.743 9.91246 534.483 11.2981 534.731 13.2522C534.945 15.2062 533.56 16.9472 531.606 17.1959C531.464 17.1959 531.322 17.2314 531.216 17.2314C529.404 17.1959 527.842 15.8813 527.664 14.0693Z" fill="#1E243A"/>
<path d="M205.554 135.187C204.098 135.187 202.89 133.979 202.89 132.522V115.468C202.89 114.012 204.098 112.804 205.554 112.804C207.01 112.804 208.217 114.012 208.217 115.468V132.522C208.217 134.014 207.01 135.187 205.554 135.187Z" fill="#1E243A"/>
<path d="M214.255 126.838H197.208C195.752 126.838 194.545 125.63 194.545 124.173C194.545 122.716 195.752 121.508 197.208 121.508H214.255C215.711 121.508 216.918 122.716 216.918 124.173C216.918 125.665 215.711 126.838 214.255 126.838Z" fill="#1E243A"/>
<path d="M27.9494 151.104C26.4934 151.104 25.2859 149.896 25.2859 148.439V131.385C25.2859 129.929 26.4934 128.721 27.9494 128.721C29.4055 128.721 30.613 129.929 30.613 131.385V148.439C30.613 149.896 29.441 151.104 27.9494 151.104Z" fill="#1E243A"/>
<path d="M36.6503 142.755H19.6037C18.1477 142.755 16.9402 141.547 16.9402 140.09C16.9402 138.633 18.1477 137.425 19.6037 137.425H36.6503C38.1064 137.425 39.3139 138.633 39.3139 140.09C39.3139 141.547 38.1419 142.755 36.6503 142.755Z" fill="#1E243A"/>
<path d="M479.117 229.764C477.661 229.764 476.453 228.556 476.453 227.1V210.046C476.453 208.589 477.661 207.381 479.117 207.381C480.573 207.381 481.78 208.589 481.78 210.046V227.1C481.78 228.592 480.573 229.764 479.117 229.764Z" fill="#1E243A"/>
<path d="M487.818 221.415H470.771C469.315 221.415 468.107 220.207 468.107 218.75C468.107 217.294 469.315 216.086 470.771 216.086H487.818C489.274 216.086 490.481 217.294 490.481 218.75C490.481 220.243 489.274 221.415 487.818 221.415Z" fill="#1E243A"/>
<path d="M321.151 432.811C319.695 432.811 318.488 431.603 318.488 430.146V413.093C318.488 411.636 319.695 410.428 321.151 410.428C322.607 410.428 323.815 411.636 323.815 413.093V430.146C323.815 431.603 322.607 432.811 321.151 432.811Z" fill="#1E243A"/>
<path d="M329.852 424.462H312.806C311.35 424.462 310.142 423.254 310.142 421.797C310.142 420.34 311.35 419.132 312.806 419.132H329.852C331.308 419.132 332.516 420.34 332.516 421.797C332.516 423.254 331.308 424.462 329.852 424.462Z" fill="#1E243A"/>
<path d="M268.342 255.025C266.886 255.025 265.679 253.817 265.679 252.361V235.307C265.679 233.85 266.886 232.642 268.342 232.642C269.798 232.642 271.006 233.85 271.006 235.307V252.361C271.006 253.853 269.834 255.025 268.342 255.025Z" fill="#1E243A"/>
<path d="M277.043 246.676H259.997C258.54 246.676 257.333 245.468 257.333 244.011C257.333 242.555 258.54 241.347 259.997 241.347H277.043C278.499 241.347 279.707 242.555 279.707 244.011C279.707 245.468 278.535 246.676 277.043 246.676Z" fill="#1E243A"/>
<path d="M407.45 292.97C400.773 292.97 395.339 286.29 395.339 278.083C395.339 269.876 400.773 263.197 407.45 263.197C414.126 263.197 419.56 269.876 419.56 278.083C419.56 286.29 414.126 292.97 407.45 292.97ZM407.45 268.491C403.756 268.491 400.666 272.861 400.666 278.048C400.666 283.235 403.756 287.605 407.45 287.605C411.143 287.605 414.233 283.235 414.233 278.048C414.233 272.861 411.107 268.491 407.45 268.491Z" fill="#1E243A"/>
<path d="M391.078 331.838C390.154 331.838 389.408 331.625 388.84 331.412C383.478 329.174 383.442 320.647 388.734 308.07C391.149 302.314 393.777 297.979 396.582 295.279C400.666 291.3 403.969 291.833 405.567 292.508C409.296 294.071 412.35 299.258 405.674 315.14C403.259 320.967 400.631 325.337 397.896 328.214C395.197 331.092 392.818 331.838 391.078 331.838ZM403.152 297.34C401.625 297.34 397.754 300.218 393.635 310.095C388.947 321.357 390.012 326.118 390.9 326.473C391.823 326.864 396.05 324.306 400.773 313.079C405.745 301.213 404.182 297.695 403.507 297.411C403.401 297.375 403.294 297.34 403.152 297.34Z" fill="#1E243A"/>
<path d="M427.87 326.58C427.656 326.58 427.408 326.544 427.195 326.509L412.528 322.636C412.492 322.636 412.457 322.601 412.385 322.601C410.716 322.068 406.561 320.505 404.537 317.627L397.576 307.714C396.724 306.506 397.008 304.836 398.216 304.019C399.423 303.202 401.092 303.451 401.909 304.659L408.87 314.571C409.58 315.602 411.604 316.774 413.877 317.485L428.473 321.322C429.894 321.713 430.746 323.169 430.355 324.59C430.142 325.798 429.041 326.58 427.87 326.58Z" fill="#1E243A"/>
<path d="M424.815 311.48C424.354 311.48 423.892 311.374 423.502 311.125L406.632 301.426C405.354 300.68 404.928 299.081 405.638 297.802C406.384 296.523 407.982 296.096 409.26 296.807L426.13 306.506C427.408 307.252 427.834 308.851 427.124 310.13C426.662 311.018 425.739 311.48 424.815 311.48Z" fill="#1E243A"/>
<path d="M408.763 364.809H399.459C397.932 364.809 396.476 364.063 395.588 362.819C394.7 361.576 394.487 359.941 394.984 358.52L399.672 345.126C400.169 343.74 400.098 342.213 399.494 340.898L393.741 327.93C393.137 326.58 393.741 325.017 395.091 324.413C396.44 323.809 398.003 324.413 398.606 325.763L404.36 338.731C405.496 341.324 405.638 344.238 404.679 346.902L400.276 359.515H408.763C410.219 359.515 411.427 360.723 411.427 362.18C411.427 363.636 410.255 364.809 408.763 364.809Z" fill="#1E243A"/>
<path d="M387.455 372.199C386.78 372.199 386.141 371.95 385.608 371.453L379.678 365.768C377.795 363.956 377.227 361.149 378.293 358.769C378.328 358.662 378.399 358.591 378.435 358.485L386.674 344.451C386.887 343.954 387.029 343.421 387.136 342.852L386.567 328.641C386.496 327.184 387.668 325.941 389.124 325.869C390.58 325.834 391.823 326.971 391.894 328.428L392.463 342.923C392.463 343.101 392.463 343.279 392.427 343.456C392.25 344.593 391.93 345.694 391.468 346.725C391.433 346.831 391.362 346.902 391.326 347.009L383.122 361.007C383.016 361.327 383.122 361.682 383.371 361.931L389.302 367.616C390.367 368.646 390.403 370.316 389.373 371.382C388.84 371.915 388.165 372.199 387.455 372.199Z" fill="#1E243A"/>
<path d="M398.003 280.712C396.937 280.712 395.908 280.037 395.517 278.972C395.02 277.586 395.694 276.058 397.08 275.561L414.091 269.237L422.578 261.918C423.679 260.958 425.384 261.065 426.343 262.202C427.302 263.303 427.195 265.009 426.059 265.968L417.216 273.607C416.967 273.82 416.683 273.962 416.399 274.104L398.926 280.57C398.607 280.677 398.322 280.712 398.003 280.712Z" fill="#1E243A"/>
<path d="M532.6 285.864C525.924 285.864 520.49 279.185 520.49 270.978C520.49 262.77 525.924 256.091 532.6 256.091C539.277 256.091 544.711 262.77 544.711 270.978C544.711 279.185 539.277 285.864 532.6 285.864ZM532.6 261.385C528.907 261.385 525.817 265.755 525.817 270.942C525.817 276.129 528.907 280.499 532.6 280.499C536.294 280.499 539.384 276.129 539.384 270.942C539.384 265.755 536.294 261.385 532.6 261.385Z" fill="#1E243A"/>
<path d="M549.185 323.063C544.781 323.063 539.064 319.226 534.376 308.034C526.882 290.163 533.133 285.9 535.193 285.047C537.181 284.23 540.271 284.088 543.929 288.102C546.379 290.803 548.865 295.102 551.316 300.964C555.08 309.953 558.525 319.759 551.92 322.53C551.103 322.885 550.179 323.063 549.185 323.063ZM537.465 289.914C537.394 289.914 537.323 289.914 537.288 289.95C536.222 290.412 534.731 295.031 539.312 305.973C543.645 316.277 548.297 318.266 549.895 317.591C550.144 317.485 551.991 316.241 546.45 302.989C541.763 291.904 538.424 289.914 537.465 289.914Z" fill="#1E243A"/>
<path d="M512.18 319.474C511.008 319.474 509.907 318.693 509.623 317.485C509.232 316.063 510.084 314.607 511.505 314.216L526.101 310.379C528.409 309.633 530.398 308.46 531.108 307.466L538.069 297.553C538.921 296.345 540.591 296.061 541.763 296.914C542.97 297.766 543.254 299.436 542.402 300.608L535.441 310.521C533.417 313.399 529.297 314.962 527.593 315.495C527.557 315.495 527.522 315.531 527.451 315.531L512.783 319.403C512.641 319.439 512.393 319.474 512.18 319.474Z" fill="#1E243A"/>
<path d="M511.683 307.927C510.795 307.927 509.942 307.501 509.445 306.719C508.628 305.476 508.984 303.842 510.226 303.025L530.647 289.772C531.89 288.955 533.524 289.31 534.34 290.554C535.157 291.797 534.802 293.432 533.559 294.249L513.139 307.501C512.677 307.785 512.18 307.927 511.683 307.927Z" fill="#1E243A"/>
<path d="M534.98 357.952C534.767 357.952 534.589 357.952 534.376 357.916L525.142 356.708C523.686 356.531 522.656 355.181 522.834 353.724C523.011 352.267 524.361 351.237 525.817 351.415L534.234 352.516L531.499 339.441C530.931 336.67 531.428 333.792 532.884 331.376L540.271 319.261C541.052 318.018 542.686 317.627 543.929 318.373C545.172 319.155 545.563 320.789 544.817 322.032L537.43 334.148C536.649 335.391 536.4 336.883 536.72 338.34L539.632 352.232C539.952 353.724 539.525 355.287 538.46 356.424C537.572 357.383 536.294 357.952 534.98 357.952Z" fill="#1E243A"/>
<path d="M553.305 361.54C552.595 361.54 551.92 361.256 551.387 360.723C550.357 359.657 550.393 357.987 551.458 356.957L557.389 351.272C557.638 351.024 557.744 350.668 557.637 350.349L549.434 336.35C549.363 336.244 549.327 336.173 549.292 336.066C548.83 335.036 548.51 333.934 548.333 332.798C548.297 332.62 548.297 332.442 548.297 332.265L548.866 319.545C548.937 318.089 550.18 316.952 551.636 316.987C553.092 317.058 554.228 318.302 554.193 319.758L553.624 332.158C553.731 332.691 553.873 333.224 554.086 333.721L562.325 347.755C562.396 347.862 562.432 347.933 562.467 348.039C563.497 350.42 562.929 353.227 561.082 355.039L555.152 360.723C554.619 361.292 553.98 361.54 553.305 361.54Z" fill="#1E243A"/>
<path d="M542.047 273.607C541.727 273.607 541.443 273.536 541.124 273.429L523.651 266.963C523.367 266.856 523.083 266.679 522.834 266.465L513.991 258.827C512.89 257.867 512.748 256.198 513.707 255.061C514.666 253.959 516.335 253.817 517.471 254.776L525.959 262.095L542.97 268.419C544.355 268.917 545.066 270.48 544.533 271.83C544.142 272.932 543.148 273.607 542.047 273.607Z" fill="#1E243A"/>
<path d="M111.868 158.529C79.2668 158.529 52.738 131.989 52.738 99.3738C52.738 66.7585 79.2668 40.2185 111.868 40.2185C144.47 40.2185 170.999 66.7585 170.999 99.3738C170.999 131.989 144.47 158.529 111.868 158.529ZM111.868 45.5478C82.2145 45.5478 58.0651 69.7074 58.0651 99.3738C58.0651 129.04 82.2145 153.2 111.868 153.2C141.522 153.2 165.672 129.04 165.672 99.3738C165.672 69.7074 141.522 45.5478 111.868 45.5478Z" fill="#1E243A"/>
<path d="M66.7304 102.394C65.2744 102.394 64.0669 101.186 64.0669 99.729C64.0669 88.2888 68.1865 77.2038 75.6089 68.5703C76.5677 67.4689 78.2369 67.3268 79.3733 68.2861C80.4743 69.2454 80.6163 70.9152 79.6574 72.0521C73.0519 79.7619 69.394 89.5678 69.394 99.7645C69.394 101.186 68.222 102.394 66.7304 102.394Z" fill="#1E243A"/>
<path d="M111.868 147.515C94.289 147.515 78.1658 137.887 69.82 122.432C69.1097 121.153 69.6069 119.519 70.8854 118.808C72.1639 118.097 73.7976 118.595 74.5078 119.874C81.9302 133.623 96.2778 142.186 111.868 142.186C135.272 142.186 154.307 123.142 154.307 99.729C154.307 76.3156 135.272 57.2722 111.868 57.2722C105.547 57.2722 99.4385 58.6223 93.7563 61.3225C92.4423 61.962 90.8442 61.3935 90.2049 60.0434C89.5657 58.7289 90.1339 57.1301 91.4834 56.4905C97.8759 53.4706 104.73 51.9429 111.868 51.9429C138.22 51.9429 159.634 73.4022 159.634 99.729C159.634 126.091 138.184 147.515 111.868 147.515Z" fill="#1E243A"/>
<path d="M110.306 104.17C109.24 104.17 108.246 103.531 107.82 102.5L94.9994 70.2048C94.4667 68.8548 95.106 67.2915 96.491 66.7586C97.8406 66.2256 99.4032 66.8651 99.9359 68.2508L111.904 98.3436L138.539 91.38C139.96 90.9891 141.416 91.8418 141.807 93.2985C142.162 94.7197 141.309 96.1763 139.889 96.5671L110.981 104.135C110.732 104.135 110.519 104.17 110.306 104.17Z" fill="#1E243A"/>
<path d="M165.921 53.6841C164.997 53.6841 164.074 53.1867 163.577 52.3341C162.866 51.055 163.328 49.4207 164.607 48.7101C165.921 47.9995 167.235 47.2534 168.549 46.5429C169.863 45.8678 171.461 46.3297 172.135 47.6443C172.81 48.9588 172.349 50.5576 171.035 51.2327C169.756 51.9077 168.442 52.6183 167.199 53.3289C166.808 53.5776 166.347 53.6841 165.921 53.6841Z" fill="#1E243A"/>
<path d="M185.24 44.0913C184.21 44.0913 183.251 43.4873 182.79 42.4925C182.186 41.1424 182.825 39.5792 184.175 38.9752C187.122 37.6961 190.105 36.4526 193.089 35.3157C194.474 34.7828 196.001 35.4578 196.533 36.8434C197.066 38.2291 196.391 39.7568 195.006 40.2897C192.094 41.4267 189.182 42.6346 186.305 43.8781C185.95 44.0202 185.595 44.0913 185.24 44.0913ZM210.242 34.9249C209.105 34.9249 208.04 34.1788 207.685 33.0063C207.258 31.5852 208.075 30.1285 209.46 29.7022C212.515 28.7784 215.64 27.9257 218.729 27.1441C220.15 26.7888 221.606 27.6415 221.961 29.0627C222.316 30.4838 221.464 31.9405 220.043 32.2958C216.989 33.0774 213.971 33.8946 210.987 34.7828C210.774 34.8894 210.49 34.9249 210.242 34.9249ZM236.167 28.814C234.888 28.814 233.787 27.8902 233.539 26.6112C233.29 25.1545 234.249 23.7689 235.705 23.5202C238.83 22.9517 242.027 22.4543 245.187 22.028C246.643 21.8148 247.993 22.8451 248.206 24.3018C248.419 25.7585 247.389 27.1086 245.933 27.3218C242.808 27.7481 239.683 28.2455 236.628 28.814C236.486 28.7784 236.344 28.814 236.167 28.814ZM325.271 27.3928C325.129 27.3928 324.987 27.3928 324.845 27.3573C321.719 26.8599 318.594 26.398 315.54 26.0427C314.084 25.8651 313.054 24.5505 313.232 23.0938C313.409 21.6372 314.723 20.6068 316.179 20.7845C319.304 21.1753 322.536 21.6016 325.732 22.1346C327.189 22.3833 328.183 23.7334 327.934 25.19C327.686 26.4691 326.549 27.3928 325.271 27.3928ZM262.624 25.4743C261.239 25.4743 260.067 24.4084 259.961 23.0228C259.854 21.5661 260.955 20.2871 262.411 20.145C265.537 19.8962 268.768 19.6831 272 19.541C273.492 19.4699 274.735 20.6068 274.77 22.0635C274.841 23.5202 273.705 24.7992 272.249 24.8347C269.088 24.9769 265.892 25.19 262.838 25.4387C262.731 25.4387 262.66 25.4743 262.624 25.4743ZM298.777 24.6926C298.742 24.6926 298.706 24.6926 298.671 24.6926C295.617 24.5505 292.456 24.515 289.26 24.4795C287.804 24.4795 286.596 23.2715 286.596 21.8148C286.596 20.3581 287.804 19.1501 289.26 19.1501C292.527 19.1501 295.759 19.2212 298.884 19.3633C300.34 19.4344 301.512 20.6779 301.441 22.1346C301.37 23.5557 300.198 24.6926 298.777 24.6926Z" fill="#1E243A"/>
<path d="M346.437 31.7629C346.224 31.7629 346.011 31.7274 345.798 31.6918C344.342 31.3366 342.886 31.0168 341.501 30.697C340.08 30.3773 339.157 28.9561 339.512 27.4995C339.831 26.0783 341.287 25.1546 342.708 25.5099C344.129 25.8296 345.585 26.1849 347.076 26.5402C348.497 26.8955 349.385 28.3166 349.03 29.7733C348.745 30.9457 347.644 31.7629 346.437 31.7629Z" fill="#1E243A"/>
<path d="M30.4353 303.913C29.0858 303.913 27.9139 302.882 27.7718 301.532C27.5942 299.827 27.4522 298.406 27.3101 297.127C27.1326 295.67 28.198 294.355 29.654 294.178C31.1101 294.036 32.4241 295.066 32.6017 296.523C32.7437 297.802 32.8858 299.258 33.0633 300.964C33.2054 302.42 32.14 303.735 30.6839 303.877C30.6129 303.913 30.5419 303.913 30.4353 303.913Z" fill="#1E243A"/>
<path d="M29.0859 282.915C27.5943 282.915 26.4224 281.707 26.4224 280.251C26.4224 277.124 26.4934 273.998 26.5644 270.942C26.5999 269.485 27.8429 268.313 29.299 268.349C30.755 268.384 31.927 269.628 31.8915 271.084C31.7849 274.069 31.7494 277.16 31.7494 280.251C31.7494 281.743 30.542 282.915 29.0859 282.915ZM30.1513 257.121C30.0803 257.121 30.0093 257.121 29.9382 257.121C28.4822 257.015 27.3812 255.7 27.5233 254.244C27.7719 251.117 28.0915 248.026 28.4466 244.971C28.6242 243.514 29.9382 242.448 31.3943 242.626C32.8504 242.803 33.9158 244.118 33.7382 245.575C33.3831 248.559 33.099 251.615 32.8148 254.67C32.7083 256.091 31.5363 257.121 30.1513 257.121ZM33.5251 231.541C33.3831 231.541 33.2055 231.541 33.0634 231.505C31.6074 231.257 30.6485 229.871 30.9326 228.414C31.5008 225.359 32.1046 222.268 32.7438 219.283C33.0634 217.862 34.484 216.938 35.9045 217.258C37.3251 217.578 38.2485 218.999 37.9288 220.42C37.2896 223.369 36.6858 226.354 36.1531 229.374C35.9045 230.617 34.7681 231.541 33.5251 231.541ZM39.4559 206.386C39.2073 206.386 38.9587 206.351 38.7101 206.28C37.2896 205.854 36.5083 204.397 36.8989 202.976C37.7868 199.991 38.7456 197.007 39.74 194.094C40.2017 192.708 41.7288 191.962 43.1138 192.424C44.4989 192.886 45.2447 194.413 44.783 195.799C43.8241 198.641 42.8652 201.59 42.0129 204.468C41.6578 205.64 40.5924 206.386 39.4559 206.386ZM48.1568 182.12C47.8017 182.12 47.4465 182.049 47.1269 181.907C45.7774 181.339 45.1381 179.775 45.7063 178.425C46.9138 175.583 48.1923 172.705 49.5418 169.934C50.1811 168.619 51.7792 168.051 53.0932 168.69C54.4072 169.33 54.9754 170.929 54.3362 172.243C53.0222 174.979 51.7792 177.75 50.6072 180.557C50.1811 181.516 49.1867 182.12 48.1568 182.12Z" fill="#1E243A"/>
<path d="M59.6278 158.991C59.1661 158.991 58.7399 158.884 58.3138 158.636C57.0353 157.89 56.5736 156.291 57.3194 155.012C58.0652 153.733 58.811 152.418 59.5923 151.139C60.338 149.86 61.9717 149.469 63.2502 150.215C64.5287 150.961 64.9193 152.596 64.1735 153.875C63.4278 155.118 62.682 156.397 61.9717 157.676C61.4745 158.494 60.5511 158.991 59.6278 158.991Z" fill="#1E243A"/>
</g>
<defs>
<clipPath id="clip0">
<rect width="563" height="465" fill="white"/>
</clipPath>
</defs>
</svg>
