<svg width="30" height="33" viewBox="0 0 30 33" fill="none" xmlns="http://www.w3.org/2000/svg">
<path fill-rule="evenodd" clip-rule="evenodd" d="M23.456 6.79894L25.8073 6.31727C26.8098 6.11213 27.8311 6.5717 28.3424 7.45807L29.5767 9.59548C30.0879 10.4814 29.9749 11.5951 29.2962 12.3603L27.7055 14.1539C27.9831 15.6708 27.9831 17.2256 27.7055 18.7425L29.2962 20.5361C29.9749 21.3013 30.0879 22.415 29.5767 23.3009L28.3408 25.4399C27.8295 26.3263 26.8082 26.7859 25.8057 26.5807L23.456 26.0991C22.2827 27.0998 20.9366 27.8779 19.4838 28.3949L18.7264 30.667C18.4033 31.6372 17.4959 32.2919 16.4733 32.2927H14.0048C12.9816 32.2926 12.0734 31.6377 11.7501 30.667L10.9912 28.3949C9.53822 27.8774 8.19205 27.0988 7.01895 26.0975L4.66763 26.5791C3.66512 26.7843 2.64386 26.3247 2.13252 25.4383L0.898239 23.3009C0.387017 22.415 0.499979 21.3013 1.17869 20.5361L2.76947 18.7425C2.49184 17.2256 2.49184 15.6708 2.76947 14.1539L1.17869 12.3603C0.499979 11.5951 0.387017 10.4814 0.898239 9.59548L2.13411 7.45648C2.64544 6.57012 3.66671 6.11055 4.66922 6.31568L7.01895 6.79735C8.19218 5.79658 9.53833 5.01853 10.9912 4.50149L11.7485 2.2294C12.0716 1.25926 12.9791 0.604536 14.0016 0.60376H16.4702C17.4933 0.603854 18.4015 1.25871 18.7248 2.2294L19.4822 4.50149C20.9351 5.01901 22.2813 5.79761 23.4544 6.79894H23.456ZM18.6172 5.88008C18.3759 5.80354 18.1857 5.6163 18.1054 5.37623L17.2245 2.73021C17.1166 2.40627 16.8133 2.1879 16.4719 2.18833H14.0033C13.6619 2.1879 13.3586 2.40627 13.2507 2.73021L12.3698 5.37623C12.2899 5.61691 12.0996 5.80481 11.858 5.88167C10.3452 6.36609 8.95434 7.17015 7.77962 8.23932C7.59244 8.40966 7.33514 8.48031 7.08722 8.42945L4.35247 7.86856C4.01796 7.79969 3.67696 7.95295 3.50638 8.24883L2.2721 10.3878C2.10186 10.6836 2.14016 11.0552 2.36716 11.31L4.21779 13.3983C4.38475 13.5872 4.45181 13.8443 4.39842 14.0907C4.06187 15.6444 4.06187 17.2522 4.39842 18.806C4.45181 19.0524 4.38475 19.3095 4.21779 19.4984L2.36558 21.5867C2.13909 21.8419 2.10143 22.2134 2.2721 22.5088L3.50796 24.6478C3.67834 24.9431 4.01847 25.0962 4.35247 25.0281L7.08881 24.4672C7.33673 24.4163 7.59403 24.487 7.78121 24.6573C8.95592 25.7265 10.3468 26.5306 11.8596 27.015C12.1012 27.0919 12.2915 27.2798 12.3713 27.5204L13.2523 30.1665C13.3602 30.4904 13.6635 30.7088 14.0049 30.7083H16.4735C16.8149 30.7088 17.1182 30.4904 17.2261 30.1665L18.107 27.5204C18.1869 27.2798 18.3772 27.0919 18.6188 27.015C20.1316 26.5306 21.5225 25.7265 22.6972 24.6573C22.8843 24.487 23.1416 24.4163 23.3896 24.4672L26.1259 25.0281C26.4604 25.097 26.8014 24.9437 26.972 24.6478L28.2063 22.5088C28.3765 22.2131 28.3382 21.8415 28.1112 21.5867L26.2606 19.4984C26.0936 19.3095 26.0266 19.0524 26.08 18.806C26.4165 17.2522 26.4165 15.6444 26.08 14.0907C26.0266 13.8443 26.0936 13.5872 26.2606 13.3983L28.1128 11.31C28.3393 11.0548 28.3769 10.6833 28.2063 10.3878L26.9704 8.24883C26.8 7.95359 26.4599 7.80043 26.1259 7.86856L23.3896 8.42945C23.1416 8.48031 22.8843 8.40966 22.6972 8.23932C21.5225 7.17015 20.1316 6.36609 18.6188 5.88167L18.6172 5.88008ZM15.2377 22.786C11.7374 22.786 8.8999 19.9485 8.8999 16.4482C8.8999 12.948 11.7374 10.1105 15.2377 10.1105C18.7379 10.1105 21.5755 12.948 21.5755 16.4482C21.5755 19.9485 18.7379 22.786 15.2377 22.786ZM15.2375 21.2017C17.8627 21.2017 19.9909 19.0735 19.9909 16.4483C19.9909 13.8231 17.8627 11.695 15.2375 11.695C12.6123 11.695 10.4842 13.8231 10.4842 16.4483C10.4842 19.0735 12.6123 21.2017 15.2375 21.2017Z" fill="white"/>
</svg>
