<svg width="33" height="30" viewBox="0 0 33 30" fill="none" xmlns="http://www.w3.org/2000/svg">
<path fill-rule="evenodd" clip-rule="evenodd" d="M7.66385 24.8333C7.39608 23.2256 7.84915 21.5814 8.90267 20.3378C9.95618 19.0942 11.5035 18.3769 13.1334 18.3767H17.0295C17.467 18.3767 17.8217 18.7314 17.8217 19.1689V24.2819C17.8217 24.4795 17.9365 24.659 18.1157 24.742C18.295 24.825 18.5061 24.7963 18.6567 24.6686L29.8049 15.1936C30.2658 14.8022 30.5315 14.2281 30.5315 13.6234C30.5315 13.0187 30.2658 12.4446 29.8049 12.0532L18.6567 2.57823C18.5061 2.45046 18.295 2.4218 18.1157 2.50479C17.9365 2.58778 17.8217 2.76731 17.8217 2.96484V8.07784C17.8217 8.51537 17.467 8.87006 17.0295 8.87006H12.2762C6.58825 8.87006 1.97728 13.481 1.97728 19.1689C1.97728 23.6846 3.98319 26.4526 8.12968 27.6283L7.66385 24.8333ZM13.1336 19.9612C11.9692 19.9611 10.8638 20.4734 10.1112 21.3619C9.35853 22.2503 9.03492 23.4249 9.22634 24.5735L9.88864 28.5457C9.93095 28.802 9.84493 29.0627 9.65844 29.2435C9.47195 29.4243 9.20867 29.5022 8.95382 29.452C3.30369 28.3302 0.393066 24.8381 0.393066 19.1689C0.393066 12.6059 5.71342 7.2856 12.2764 7.2856H16.2375V2.96482C16.2373 2.14947 16.711 1.40833 17.451 1.06605C18.191 0.723764 19.0625 0.842744 19.6837 1.37087L30.8302 10.8458C31.6449 11.5382 32.1144 12.5534 32.1144 13.6226C32.1144 14.6917 31.6449 15.7069 30.8302 16.3993L19.6837 25.8743C19.0629 26.4021 18.1922 26.5213 17.4524 26.1798C16.7127 25.8383 16.2385 25.0983 16.2375 24.2835V19.9612H13.1336Z" fill="white"/>
</svg>
