<svg width="30" height="30" viewBox="0 0 30 30" fill="none" xmlns="http://www.w3.org/2000/svg">
<path fill-rule="evenodd" clip-rule="evenodd" d="M25.5488 27.7102C26.8614 27.7102 27.9255 26.6461 27.9255 25.3335V6.66715C27.4424 6.9556 26.8909 7.10934 26.3284 7.11238H4.14614C3.56623 7.11238 3.0291 6.94601 2.56169 6.67349V25.3335C2.56169 26.6461 3.62576 27.7102 4.93836 27.7102H25.5488ZM4.14614 2.35921C3.27107 2.35921 2.56169 3.06859 2.56169 3.94365C2.56169 4.81872 3.27107 5.5281 4.14614 5.5281H26.3284C27.2034 5.5281 27.9128 4.81872 27.9128 3.94365C27.9128 3.06859 27.2034 2.35921 26.3284 2.35921H4.14614ZM29.4816 3.80412C29.4911 3.8469 29.5101 3.88651 29.5101 3.93087V25.3335C29.5101 27.5212 27.7366 29.2947 25.549 29.2947H4.93853C2.75087 29.2947 0.977417 27.5212 0.977417 25.3335V3.94355C0.977417 2.19342 2.39618 0.774658 4.14631 0.774658H26.3285C28.0302 0.774658 29.4103 2.11985 29.4816 3.80412ZM22.3672 8.69683C22.8048 8.69683 23.1595 9.05152 23.1595 9.48905C23.1595 9.92659 22.8048 10.2813 22.3672 10.2813H21.575C21.575 13.7815 18.7375 16.6191 15.2372 16.6191C11.737 16.6191 8.89947 13.7815 8.89947 10.2813H8.10725C7.66971 10.2813 7.31502 9.92659 7.31502 9.48905C7.31502 9.05152 7.66971 8.69683 8.10725 8.69683H11.2761C11.7137 8.69683 12.0684 9.05152 12.0684 9.48905C12.0684 9.92659 11.7137 10.2813 11.2761 10.2813H10.4839C10.4839 12.9065 12.6121 15.0346 15.2372 15.0346C17.8624 15.0346 19.9906 12.9065 19.9906 10.2813H19.1984C18.7608 10.2813 18.4061 9.92659 18.4061 9.48905C18.4061 9.05152 18.7608 8.69683 19.1984 8.69683H22.3672Z" fill="white"/>
</svg>
