<svg width="33" height="32" viewBox="0 0 33 32" fill="none" xmlns="http://www.w3.org/2000/svg">
<path fill-rule="evenodd" clip-rule="evenodd" d="M6.73061 23.9569V14.4502H4.35395C3.04135 14.4502 1.97728 15.5143 1.97728 16.8269V21.5802C1.97728 22.8928 3.04135 23.9569 4.35395 23.9569H6.73061ZM19.2717 28.7104H22.6672C23.6909 28.711 24.5999 28.056 24.9234 27.0847L25.2831 26.0026C25.3361 25.8436 25.4024 25.6894 25.4812 25.5415H24.952C24.5144 25.5415 24.1597 25.1868 24.1597 24.7493V13.6582C24.1597 13.2206 24.5144 12.8659 24.952 12.8659H25.7442V11.2562C25.7442 6.00576 21.4879 1.74948 16.2375 1.74948C10.9871 1.74948 6.73084 6.00576 6.73084 11.2562V12.8659H7.52307C7.9606 12.8659 8.31529 13.2206 8.31529 13.6582V24.7493C8.31529 25.1868 7.9606 25.5415 7.52307 25.5415H4.35418C2.16652 25.5415 0.393066 23.7681 0.393066 21.5804V16.8271C0.393066 14.6394 2.16652 12.8659 4.35418 12.8659H5.1464V11.2562C5.1464 7.29368 7.26035 3.6322 10.692 1.65097C14.1236 -0.33027 18.3515 -0.33027 21.7831 1.65097C25.2147 3.6322 27.3286 7.29368 27.3286 11.2562V12.8659H28.1208C30.3085 12.8659 32.082 14.6394 32.082 16.8271V21.5804C32.082 23.7681 30.3085 25.5415 28.1208 25.5415C27.5154 25.5413 26.9779 25.9288 26.7867 26.5033L26.4255 27.587C25.886 29.2044 24.3722 30.2951 22.6672 30.2948H19.2717C18.9358 31.2449 18.0374 31.8798 17.0297 31.8793H15.4453C14.1327 31.8793 13.0686 30.8152 13.0686 29.5026C13.0686 28.19 14.1327 27.1259 15.4453 27.1259H17.0297C18.0374 27.1254 18.9358 27.7604 19.2717 28.7104ZM25.7439 14.4502V23.9569H28.1206C29.4332 23.9569 30.4973 22.8928 30.4973 21.5802V16.8269C30.4973 15.5143 29.4332 14.4502 28.1206 14.4502H25.7439ZM14.653 29.5025C14.653 29.94 15.0077 30.2947 15.4452 30.2947H17.0297C17.4672 30.2947 17.8219 29.94 17.8219 29.5025C17.8219 29.0649 17.4672 28.7102 17.0297 28.7102H15.4452C15.0077 28.7102 14.653 29.0649 14.653 29.5025Z" fill="white"/>
</svg>
