<svg width="40" height="40" viewBox="0 0 40 40" fill="none" xmlns="http://www.w3.org/2000/svg">
<path d="M13.3335 26.6666V19.9999C13.3335 18.2318 14.0359 16.5361 15.2861 15.2859C16.5364 14.0356 18.2321 13.3333 20.0002 13.3333C21.7683 13.3333 23.464 14.0356 24.7142 15.2859C25.9645 16.5361 26.6668 18.2318 26.6668 19.9999V26.6666" stroke="black" stroke-width="2" stroke-linecap="round" stroke-linejoin="round"/>
<path d="M30.6667 9.33333L29.5 10.5M5 20H6.66667H5ZM20 5V6.66667V5ZM33.3333 20H35H33.3333ZM9.33333 9.33333L10.5 10.5L9.33333 9.33333Z" stroke="black" stroke-width="2" stroke-linecap="round" stroke-linejoin="round"/>
<path d="M28.3333 26.6667H11.6667C10.7462 26.6667 10 27.4129 10 28.3334V31.6667C10 32.5872 10.7462 33.3334 11.6667 33.3334H28.3333C29.2538 33.3334 30 32.5872 30 31.6667V28.3334C30 27.4129 29.2538 26.6667 28.3333 26.6667Z" stroke="black" stroke-width="2" stroke-linecap="round" stroke-linejoin="round"/>
</svg>
