<svg width="46" height="43" viewBox="0 0 46 43" fill="none" xmlns="http://www.w3.org/2000/svg">
<path fill-rule="evenodd" clip-rule="evenodd" d="M22.9509 27.3171C29.1197 27.3171 34.1465 21.2939 34.1465 13.8824C34.1465 6.47096 29.1197 0.447754 22.9509 0.447754C16.7822 0.447754 11.7554 6.47096 11.7554 13.8824C11.7554 21.2939 16.7934 27.3171 22.9509 27.3171ZM22.9509 3.80649C27.2836 3.80649 30.7878 8.28471 30.7878 13.8825C30.7878 19.4803 27.2836 23.9585 22.9509 23.9585C18.6183 23.9585 15.114 19.4803 15.114 13.8825C15.114 8.28471 18.6183 3.80649 22.9509 3.80649Z" fill="#77838F"/>
<path fill-rule="evenodd" clip-rule="evenodd" d="M33.1948 26.1975C32.2673 26.1048 31.4403 26.7815 31.3475 27.7089C31.2548 28.6364 31.9315 29.4634 32.8589 29.5562C38.0671 30.1682 42.1021 34.4007 42.4647 39.6322H3.43703C3.83389 34.4159 7.85143 30.2017 13.0428 29.5562C13.9703 29.4634 14.647 28.6364 14.5542 27.7089C14.4615 26.7815 13.6344 26.1048 12.707 26.1975C12.5838 26.1975 0 27.6306 0 41.3003C0 42.2278 0.751863 42.9797 1.67933 42.9797H44.2224C45.1499 42.9797 45.9018 42.2278 45.9018 41.3003C45.9018 27.6306 33.318 26.1975 33.1948 26.1975Z" fill="#77838F"/>
</svg>
